<svg width="317" height="460" viewBox="0 0 317 460" fill="none" xmlns="http://www.w3.org/2000/svg">
<g id="Group 30">
<g id="Group 2">
<g id="iPhone-X-Mockup">
<g id="phone">
<g id="body" filter="url(#filter0_d)">
<path fill-rule="evenodd" clip-rule="evenodd" d="M75.6289 55.3418H191.241C202.329 55.3418 211.318 63.883 211.318 74.4191V335.581C211.318 346.117 202.329 354.658 191.241 354.658H75.6289C64.541 354.658 55.5525 346.117 55.5525 335.581V74.4191C55.5525 63.883 64.541 55.3418 75.6289 55.3418Z" fill="#213648"/>
</g>
<g id="frame">
<path id="reflect-frame-top" opacity="0.595562" fill-rule="evenodd" clip-rule="evenodd" d="M191.688 55H75.113C69.6704 55.3294 64.6509 57.7942 60.0546 62.3944C63.0105 59.8335 68.2828 56.4067 75.2533 56.4067C75.2533 56.4067 186.901 56.4067 191.548 56.4067C198.519 56.4067 203.791 59.8335 206.747 62.3944C202.15 57.7942 197.131 55.3294 191.688 55Z" fill="url(#paint0_linear)" fill-opacity="0.65"/>
<path id="reflect-frame-right" opacity="0.75" fill-rule="evenodd" clip-rule="evenodd" d="M208.163 332.603V75.9891C208.163 69.1039 205.614 66.5587 204.092 64.9243C202.571 63.29 202.507 62.4564 204.692 63.6903C206.878 64.9243 211.249 68.5184 211.249 75.9891V332.603C211.249 340.073 206.878 343.667 204.692 344.901C202.507 346.135 202.571 345.302 204.092 343.667C205.614 342.033 208.163 339.488 208.163 332.603Z" fill="url(#paint1_linear)"/>
<path id="reflect-frame-left" opacity="0.75" fill-rule="evenodd" clip-rule="evenodd" d="M58.6382 332.603V75.9891C58.6382 69.1039 61.1879 66.5587 62.7089 64.9243C64.2299 63.29 64.2947 62.4564 62.1092 63.6903C59.9238 64.9243 55.5525 68.5184 55.5525 75.9891V332.603C55.5525 340.073 59.9238 343.667 62.1092 344.901C64.2947 346.135 64.2299 345.302 62.7089 343.667C61.1879 342.033 58.6382 339.488 58.6382 332.603Z" fill="url(#paint2_linear)"/>
</g>
<g id="controls">
<rect id="vol+" x="54" y="115.934" width="3.00138" height="38.6105" rx="1.50069" fill="#2E423C"/>
<rect id="power" x="209.696" y="147.426" width="3.00138" height="28.17" rx="1.50069" fill="#2E423C"/>
</g>
</g>
<g id="Screen">
<path id="Screen Mask" fill-rule="evenodd" clip-rule="evenodd" d="M119.701 62.4668L74.7182 62.4668C68.0049 62.4668 63.1133 67.0048 63.1133 72.9316V326.365C63.1133 334.093 70.6717 340.941 79.2183 340.941H187.636C195.869 340.941 203.741 334.04 203.741 326.365V73.6167C203.741 66.5129 198.428 62.509 192.137 62.4668L146.44 62.4668C146.267 62.495 143.128 63.7758 141.801 67.0048C140.474 70.2337 137.805 72.8077 134.882 72.8077H131.488C130.098 72.8077 126.441 71.4699 124.589 67.0048C122.737 62.5397 119.875 62.495 119.701 62.4668Z" fill="white"/>
<mask id="mask0" mask-type="alpha" maskUnits="userSpaceOnUse" x="63" y="62" width="141" height="279">
<path id="Screen Mask_2" fill-rule="evenodd" clip-rule="evenodd" d="M119.701 62.4668L74.7182 62.4668C68.0049 62.4668 63.1133 67.0048 63.1133 72.9316V326.365C63.1133 334.093 70.6717 340.941 79.2183 340.941H187.636C195.869 340.941 203.741 334.04 203.741 326.365V73.6167C203.741 66.5129 198.428 62.509 192.137 62.4668L146.44 62.4668C146.267 62.495 143.128 63.7758 141.801 67.0048C140.474 70.2337 137.805 72.8077 134.882 72.8077H131.488C130.098 72.8077 126.441 71.4699 124.589 67.0048C122.737 62.5397 119.875 62.495 119.701 62.4668Z" fill="white"/>
</mask>
<g mask="url(#mask0)">
<rect id="Rectangle" x="63" y="62" width="141" height="279" fill="url(#paint3_linear)"/>
<path id="12:49" fill-rule="evenodd" clip-rule="evenodd" d="M127.452 136.639V139H117.179V136.907C117.179 136.203 117.311 135.594 117.576 135.079C117.84 134.563 118.19 134.115 118.625 133.735C119.061 133.354 119.538 133.019 120.057 132.731C120.576 132.443 121.097 132.171 121.619 131.915C122.141 131.659 122.62 131.402 123.056 131.143C123.491 130.883 123.841 130.594 124.105 130.274C124.369 129.954 124.502 129.576 124.502 129.141C124.502 128.584 124.307 128.13 123.916 127.778C123.526 127.426 122.993 127.25 122.316 127.25C121.613 127.25 121.016 127.451 120.526 127.855C120.036 128.258 119.733 128.866 119.617 129.679H116.918C116.931 128.795 117.139 127.994 117.542 127.274C117.945 126.554 118.55 125.983 119.356 125.56C120.162 125.138 121.174 124.927 122.393 124.927C123.438 124.927 124.339 125.103 125.097 125.455C125.854 125.807 126.439 126.296 126.852 126.923C127.265 127.551 127.471 128.283 127.471 129.122C127.471 129.819 127.342 130.421 127.084 130.927C126.826 131.432 126.485 131.864 126.059 132.223C125.633 132.581 125.166 132.895 124.656 133.163C124.147 133.432 123.639 133.682 123.133 133.912C122.627 134.143 122.161 134.378 121.735 134.618C121.31 134.858 120.968 135.128 120.71 135.429C120.452 135.73 120.323 136.091 120.323 136.514V136.639H127.452ZM113.997 125.119V139H111.134V128.603H108.638V127.019C109.438 127.019 110.084 126.944 110.577 126.794C111.071 126.643 111.44 126.426 111.685 126.141C111.93 125.856 112.075 125.515 112.12 125.119H113.997ZM132.424 132.319V129.314H129.328V132.319H132.424ZM132.424 135.947V138.943H129.328V135.947H132.424ZM143.567 139V135.928H145.724V133.576H143.567V125.119H140.791L134.416 133.624V135.928H140.859L140.849 139H143.567ZM137.028 133.576H140.859V128.488L137.028 133.576ZM152.263 139.211C153.488 139.211 154.543 138.938 155.426 138.391C156.31 137.843 156.988 137.018 157.462 135.914C157.936 134.81 158.173 133.429 158.173 131.771C158.173 130.383 157.943 129.175 157.482 128.147C157.021 127.12 156.36 126.327 155.499 125.767C154.638 125.207 153.614 124.927 152.428 124.927C151.37 124.927 150.448 125.128 149.661 125.531C148.874 125.935 148.262 126.491 147.823 127.202C147.385 127.912 147.166 128.722 147.166 129.631C147.166 130.533 147.373 131.312 147.789 131.968C148.205 132.624 148.779 133.13 149.511 133.485C150.243 133.84 151.083 134.018 152.031 134.018C152.553 134.018 153.027 133.949 153.453 133.811C153.879 133.674 154.251 133.479 154.57 133.226C154.889 132.973 155.139 132.677 155.32 132.338C155.397 133.445 155.309 134.341 155.054 135.026C154.799 135.711 154.419 136.21 153.912 136.523C153.406 136.837 152.818 136.994 152.147 136.994C151.541 136.994 151.038 136.826 150.638 136.49C150.238 136.154 149.98 135.717 149.864 135.179H147.175C147.233 135.992 147.501 136.701 147.978 137.306C148.455 137.911 149.071 138.379 149.826 138.712C150.58 139.045 151.393 139.211 152.263 139.211ZM150.841 131.191C151.267 131.591 151.825 131.791 152.515 131.791C152.908 131.791 153.29 131.703 153.661 131.527C154.032 131.351 154.336 131.128 154.575 130.859C154.814 130.591 154.933 130.312 154.933 130.024C154.939 129.403 154.841 128.871 154.638 128.426C154.435 127.981 154.151 127.64 153.787 127.403C153.422 127.167 152.998 127.048 152.515 127.048C152.07 127.048 151.673 127.151 151.325 127.355C150.977 127.56 150.703 127.848 150.503 128.219C150.303 128.591 150.203 129.019 150.203 129.506C150.203 130.229 150.416 130.791 150.841 131.191Z" fill="white"/>
</g>
</g>
</g>
</g>
<g id="Group 29" clip-path="url(#clip0)">
<g id="Rectangle_2" filter="url(#filter1_d)">
<rect x="66.8054" y="155" width="131.255" height="53.1915" rx="5" fill="#FBFCFE"/>
</g>
<g id="Group 28">
<path id="YourApp" fill-rule="evenodd" clip-rule="evenodd" d="M78.8863 170.285V168.426L80.4005 165.865H79.4402L78.4497 167.656L77.4473 165.865H76.496L78.0072 168.423V170.285H78.8863ZM82.1706 170.346C82.4877 170.346 82.7582 170.277 82.982 170.138C83.2057 170 83.3773 169.809 83.4967 169.565C83.6162 169.321 83.6759 169.041 83.6759 168.723C83.6759 168.384 83.6147 168.091 83.4922 167.842C83.3698 167.594 83.1962 167.402 82.9714 167.266C82.7466 167.131 82.4807 167.063 82.1737 167.063C81.8666 167.063 81.6002 167.132 81.3744 167.271C81.1486 167.409 80.974 167.603 80.8506 167.852C80.7271 168.1 80.6654 168.391 80.6654 168.723C80.6654 169.055 80.7271 169.342 80.8506 169.585C80.974 169.827 81.1486 170.015 81.3744 170.147C81.6002 170.28 81.8656 170.346 82.1706 170.346ZM81.7853 169.539C81.8796 169.635 82.0091 169.683 82.1737 169.683C82.3282 169.683 82.4526 169.637 82.5469 169.545C82.6413 169.453 82.71 169.333 82.7532 169.183C82.7963 169.033 82.8179 168.87 82.8179 168.692C82.8179 168.525 82.7983 168.367 82.7592 168.218C82.72 168.07 82.6533 167.949 82.559 167.858C82.4647 167.766 82.3362 167.72 82.1737 167.72C82.0191 167.72 81.8942 167.763 81.7989 167.85C81.7035 167.937 81.6338 168.054 81.5896 168.202C81.5455 168.349 81.5234 168.513 81.5234 168.692C81.5234 168.857 81.5435 169.016 81.5836 169.168C81.6237 169.319 81.691 169.443 81.7853 169.539ZM85.4069 170.346C85.5293 170.346 85.6542 170.327 85.7817 170.289C85.9091 170.252 86.0225 170.184 86.1218 170.085C86.2212 169.986 86.2889 169.844 86.325 169.658L86.4274 170.285H87.0897V167.124H86.2197V169.181C86.2197 169.344 86.169 169.471 86.0677 169.562C85.9663 169.653 85.8293 169.698 85.6567 169.698C85.4741 169.698 85.3356 169.651 85.2413 169.557C85.147 169.464 85.0998 169.343 85.0998 169.197V167.124H84.2208V169.31C84.2208 169.479 84.2554 169.628 84.3246 169.756C84.3939 169.884 84.4857 169.992 84.6001 170.08C84.7145 170.168 84.8414 170.234 84.9809 170.279C85.1204 170.324 85.2624 170.346 85.4069 170.346ZM88.6822 168.555V170.285H87.8032V167.124H88.6491V167.873C88.6993 167.712 88.77 167.571 88.8613 167.45C88.9527 167.328 89.0635 167.234 89.194 167.165C89.3244 167.097 89.472 167.063 89.6365 167.063C89.6646 167.063 89.6912 167.064 89.7163 167.067C89.7414 167.07 89.76 167.075 89.772 167.081V167.931C89.7539 167.923 89.7324 167.918 89.7073 167.916C89.6822 167.914 89.6596 167.912 89.6395 167.91C89.4669 167.895 89.3194 167.9 89.197 167.925C89.0746 167.949 88.9752 167.991 88.899 168.05C88.8227 168.109 88.7675 168.182 88.7334 168.267C88.6993 168.353 88.6822 168.449 88.6822 168.555ZM92.1984 170.285L92.5627 169.261H94.1281L94.4833 170.285H95.3594L93.803 165.865H92.8758L91.3164 170.285H92.1984ZM92.7584 168.481H93.9174L93.3424 166.727L92.7584 168.481ZM96.7803 171.269V169.811C96.8244 169.886 96.8761 169.956 96.9353 170.02C96.9945 170.085 97.0618 170.141 97.137 170.19C97.2123 170.239 97.2941 170.277 97.3824 170.305C97.4707 170.332 97.565 170.346 97.6654 170.346C97.9102 170.346 98.13 170.287 98.3246 170.169C98.5193 170.051 98.6724 169.869 98.7837 169.623C98.8951 169.377 98.9508 169.063 98.9508 168.68C98.9508 168.311 98.8991 168.007 98.7958 167.767C98.6924 167.528 98.5504 167.351 98.3698 167.236C98.1892 167.12 97.9835 167.063 97.7527 167.063C97.6463 167.063 97.5449 167.076 97.4486 167.101C97.3523 167.127 97.263 167.163 97.1807 167.21C97.0984 167.256 97.0236 167.311 96.9564 167.373C96.8892 167.435 96.8325 167.504 96.7863 167.579L96.7833 167.124H95.9012V171.269H96.7803ZM97.0768 169.551C97.1762 169.645 97.3021 169.692 97.4546 169.692C97.6453 169.692 97.8053 169.611 97.9348 169.45C98.0642 169.289 98.129 169.035 98.129 168.686C98.129 168.38 98.0673 168.141 97.9438 167.969C97.8204 167.797 97.6573 167.711 97.4546 167.711C97.2278 167.711 97.0588 167.804 96.9474 167.991C96.836 168.177 96.7803 168.409 96.7803 168.686C96.7803 168.863 96.8049 169.028 96.854 169.181C96.9032 169.334 96.9775 169.457 97.0768 169.551ZM100.414 171.269V169.811C100.458 169.886 100.51 169.956 100.569 170.02C100.628 170.085 100.695 170.141 100.771 170.19C100.846 170.239 100.928 170.277 101.016 170.305C101.104 170.332 101.199 170.346 101.299 170.346C101.544 170.346 101.764 170.287 101.958 170.169C102.153 170.051 102.306 169.869 102.417 169.623C102.529 169.377 102.584 169.063 102.584 168.68C102.584 168.311 102.533 168.007 102.429 167.767C102.326 167.528 102.184 167.351 102.003 167.236C101.823 167.12 101.617 167.063 101.386 167.063C101.28 167.063 101.179 167.076 101.082 167.101C100.986 167.127 100.897 167.163 100.814 167.21C100.732 167.256 100.657 167.311 100.59 167.373C100.523 167.435 100.466 167.504 100.42 167.579L100.417 167.124H99.5348V171.269H100.414ZM100.71 169.551C100.81 169.645 100.936 169.692 101.088 169.692C101.279 169.692 101.439 169.611 101.568 169.45C101.698 169.289 101.763 169.035 101.763 168.686C101.763 168.38 101.701 168.141 101.577 167.969C101.454 167.797 101.291 167.711 101.088 167.711C100.861 167.711 100.692 167.804 100.581 167.991C100.47 168.177 100.414 168.409 100.414 168.686C100.414 168.863 100.438 169.028 100.488 169.181C100.537 169.334 100.611 169.457 100.71 169.551Z" fill="#BA4270"/>
<path id="JustNow" opacity="0.5" fill-rule="evenodd" clip-rule="evenodd" d="M164.691 170.218C164.558 170.303 164.368 170.346 164.124 170.346C163.969 170.346 163.824 170.328 163.689 170.291C163.553 170.254 163.463 170.227 163.419 170.208L163.458 169.667C163.521 169.69 163.592 169.718 163.674 169.751C163.755 169.785 163.856 169.802 163.976 169.802C164.173 169.802 164.308 169.747 164.381 169.637C164.454 169.527 164.491 169.341 164.491 169.08V165.865H165.048V169.242C165.048 169.477 165.022 169.677 164.97 169.842C164.917 170.007 164.825 170.132 164.691 170.218ZM167.524 170.28C167.396 170.326 167.26 170.348 167.113 170.346C166.95 170.344 166.797 170.32 166.654 170.274C166.51 170.228 166.383 170.161 166.273 170.071C166.163 169.981 166.076 169.87 166.013 169.736C165.949 169.603 165.918 169.447 165.918 169.27V167.124H166.475V169.212C166.475 169.418 166.537 169.585 166.663 169.713C166.788 169.842 166.978 169.906 167.23 169.906C167.459 169.906 167.643 169.845 167.783 169.724C167.922 169.603 167.992 169.422 167.992 169.181V167.124H168.546V170.285H168.103L168.046 169.68C168.008 169.839 167.943 169.967 167.852 170.065C167.761 170.163 167.651 170.234 167.524 170.28ZM170.521 170.346C170.774 170.346 170.989 170.308 171.167 170.231C171.344 170.155 171.481 170.047 171.576 169.907C171.671 169.768 171.719 169.601 171.719 169.408C171.719 169.33 171.707 169.249 171.684 169.165C171.661 169.08 171.622 168.999 171.567 168.921C171.512 168.844 171.437 168.774 171.344 168.711C171.251 168.647 171.132 168.596 170.987 168.558L170.364 168.399C170.192 168.356 170.061 168.302 169.973 168.238C169.885 168.174 169.84 168.086 169.84 167.974C169.84 167.805 169.903 167.68 170.027 167.599C170.152 167.519 170.313 167.479 170.512 167.479C170.702 167.479 170.854 167.523 170.968 167.612C171.081 167.7 171.148 167.82 171.168 167.971H171.659C171.651 167.673 171.543 167.448 171.335 167.294C171.127 167.14 170.855 167.063 170.518 167.063C170.255 167.063 170.035 167.104 169.859 167.185C169.682 167.267 169.549 167.378 169.461 167.518C169.373 167.659 169.33 167.822 169.332 168.007C169.332 168.242 169.407 168.424 169.557 168.555C169.708 168.685 169.909 168.781 170.16 168.842L170.804 169.004C170.944 169.037 171.048 169.088 171.115 169.158C171.183 169.229 171.216 169.322 171.216 169.438C171.216 169.603 171.152 169.725 171.024 169.805C170.895 169.884 170.727 169.924 170.518 169.924C170.387 169.924 170.267 169.903 170.157 169.862C170.046 169.82 169.954 169.758 169.881 169.675C169.808 169.592 169.757 169.489 169.729 169.365H169.223C169.255 169.591 169.333 169.777 169.455 169.923C169.578 170.068 169.732 170.175 169.917 170.244C170.103 170.312 170.304 170.346 170.521 170.346ZM173.963 170.285C173.886 170.295 173.79 170.3 173.676 170.3C173.461 170.3 173.294 170.271 173.176 170.212C173.058 170.152 172.975 170.065 172.928 169.949C172.88 169.832 172.857 169.69 172.857 169.521V167.537H172.351V167.124H172.872L173.007 166.204H173.417V167.121H174.118V167.537H173.417V169.502C173.417 169.614 173.428 169.696 173.451 169.748C173.475 169.8 173.514 169.833 173.569 169.848C173.624 169.862 173.7 169.869 173.796 169.869H174.136V170.248C174.098 170.262 174.041 170.275 173.963 170.285ZM176.978 170.285V166.8L179.314 170.285H179.811V165.865H179.254V169.301L176.954 165.865H176.421V170.285H176.978ZM182.862 170.14C182.652 170.277 182.393 170.346 182.084 170.346C181.797 170.346 181.546 170.283 181.331 170.158C181.117 170.033 180.95 169.849 180.832 169.606C180.713 169.364 180.654 169.067 180.654 168.717C180.654 168.387 180.709 168.097 180.82 167.848C180.93 167.6 181.092 167.407 181.306 167.269C181.519 167.132 181.779 167.063 182.084 167.063C182.371 167.063 182.62 167.127 182.832 167.254C183.044 167.381 183.208 167.568 183.324 167.815C183.441 168.061 183.499 168.362 183.499 168.717C183.499 169.039 183.445 169.322 183.338 169.567C183.23 169.811 183.072 170.002 182.862 170.14ZM182.084 169.9C181.877 169.9 181.71 169.847 181.581 169.741C181.453 169.635 181.358 169.491 181.298 169.31C181.238 169.128 181.208 168.927 181.208 168.704C181.208 168.454 181.241 168.239 181.309 168.059C181.376 167.88 181.475 167.743 181.605 167.648C181.736 167.553 181.895 167.506 182.084 167.506C182.289 167.506 182.455 167.559 182.582 167.665C182.71 167.771 182.802 167.914 182.861 168.095C182.919 168.275 182.948 168.478 182.948 168.704C182.948 168.951 182.915 169.164 182.849 169.343C182.782 169.523 182.685 169.66 182.557 169.756C182.428 169.852 182.271 169.9 182.084 169.9ZM186.124 167.952L185.45 170.285H184.905L183.944 167.124H184.459L185.173 169.554H185.221L185.922 167.124H186.344L187.072 169.548H187.12L187.804 167.124H188.325L187.382 170.285H186.834L186.124 167.952Z" fill="#36536B"/>
</g>
<path id="The payment has been" d="M76.1495 177.353V176.8H79.705V177.353H78.2718V181.5H77.6673V177.353H76.1495ZM80.3566 181.5V176.67H80.9416V178.633C81.0261 178.495 81.155 178.371 81.3284 178.263C81.5017 178.152 81.7227 178.097 81.9914 178.097C82.2102 178.097 82.4085 178.138 82.5861 178.221C82.7638 178.301 82.9046 178.416 83.0086 178.565C83.1126 178.715 83.1646 178.892 83.1646 179.098V181.5H82.5634V179.218C82.5634 179.017 82.494 178.862 82.3554 178.754C82.2189 178.643 82.0401 178.588 81.8191 178.588C81.6675 178.588 81.5255 178.613 81.3934 178.663C81.2634 178.71 81.1572 178.784 81.0749 178.884C80.9947 178.981 80.9546 179.106 80.9546 179.257V181.5H80.3566ZM84.5307 179.959C84.5307 180.172 84.5654 180.365 84.6347 180.538C84.7062 180.709 84.8135 180.846 84.9565 180.947C85.1017 181.049 85.2826 181.1 85.4992 181.1C85.7137 181.1 85.8979 181.05 86.0517 180.951C86.2077 180.851 86.3074 180.707 86.3507 180.518H86.9195C86.8783 180.746 86.7873 180.938 86.6465 181.094C86.5057 181.25 86.3356 181.368 86.1362 181.448C85.9369 181.526 85.7289 181.565 85.5122 181.565C85.1981 181.565 84.9218 181.497 84.6835 181.36C84.4452 181.224 84.2588 181.028 84.1245 180.772C83.9902 180.516 83.923 180.21 83.923 179.852C83.923 179.499 83.9837 179.189 84.105 178.923C84.2263 178.656 84.4018 178.448 84.6315 178.299C84.8633 178.149 85.1417 178.074 85.4667 178.074C85.9412 178.074 86.3052 178.225 86.5587 178.526C86.8122 178.825 86.939 179.229 86.939 179.738V179.959H84.5307ZM84.534 179.553H86.3605C86.3605 179.265 86.2868 179.022 86.1395 178.825C85.9922 178.628 85.7668 178.529 85.4635 178.529C85.2533 178.529 85.0789 178.58 84.9402 178.682C84.8016 178.782 84.6987 178.911 84.6315 179.069C84.5643 179.225 84.5318 179.386 84.534 179.553ZM89.218 182.547V178.139H89.816L89.8225 178.724C89.8745 178.633 89.947 178.538 90.0402 178.438C90.1355 178.337 90.2558 178.251 90.401 178.182C90.5461 178.11 90.7216 178.074 90.9275 178.074C91.3283 178.074 91.6555 178.213 91.909 178.49C92.1625 178.768 92.2892 179.196 92.2892 179.774C92.2892 180.351 92.1646 180.794 91.9155 181.103C91.6663 181.411 91.3207 181.565 90.8787 181.565C90.6794 181.565 90.5093 181.529 90.3685 181.458C90.2298 181.384 90.116 181.295 90.0272 181.191C89.9384 181.087 89.8701 180.988 89.8225 180.892V182.547H89.218ZM90.765 181.097C91.0423 181.097 91.2687 180.992 91.4442 180.782C91.6197 180.569 91.7075 180.24 91.7075 179.794C91.7075 179.412 91.6273 179.109 91.467 178.884C91.3066 178.656 91.0726 178.542 90.765 178.542C90.453 178.542 90.2168 178.658 90.0565 178.89C89.8961 179.122 89.816 179.423 89.816 179.794C89.816 180.034 89.8517 180.253 89.9232 180.45C89.9947 180.647 90.1009 180.804 90.2417 180.921C90.3825 181.038 90.557 181.097 90.765 181.097ZM93.9624 181.565C93.6352 181.565 93.3687 181.479 93.1629 181.308C92.9571 181.137 92.8541 180.898 92.8541 180.59C92.8541 180.217 92.9841 179.94 93.2441 179.758C93.5041 179.576 93.9212 179.478 94.4954 179.465L95.0966 179.449V179.186C95.0966 178.98 95.0338 178.818 94.9081 178.698C94.7846 178.577 94.594 178.516 94.3361 178.516C94.1433 178.519 93.9732 178.565 93.8259 178.656C93.6786 178.745 93.5843 178.889 93.5431 179.088H93.0134C93.0307 178.761 93.1586 178.511 93.3969 178.338C93.6352 178.162 93.9581 178.074 94.3654 178.074C94.8031 178.074 95.1302 178.167 95.3469 178.351C95.5657 178.535 95.6751 178.802 95.6751 179.153V181.5H95.1616L95.1194 180.869C94.9872 181.132 94.8215 181.314 94.6221 181.415C94.4228 181.515 94.2029 181.565 93.9624 181.565ZM94.1444 181.133C94.2939 181.133 94.4412 181.097 94.5864 181.025C94.7337 180.954 94.8551 180.863 94.9504 180.752C95.0457 180.64 95.0945 180.521 95.0966 180.395V179.82L94.5961 179.83C94.2105 179.836 93.9212 179.893 93.7284 180.002C93.5356 180.108 93.4391 180.284 93.4391 180.531C93.4391 180.722 93.5041 180.871 93.6341 180.977C93.7663 181.081 93.9364 181.133 94.1444 181.133ZM96.9254 182.573C96.7283 182.573 96.5928 182.558 96.5192 182.53C96.4455 182.502 96.4087 182.488 96.4087 182.488V182.098L96.7499 182.105C96.9168 182.111 97.0457 182.095 97.1367 182.056C97.2298 182.017 97.2981 181.968 97.3414 181.91C97.3848 181.851 97.4183 181.794 97.4422 181.737L97.5592 181.419L96.2462 178.139H96.8539L97.8452 180.733L98.8299 178.139H99.4182L98.0012 181.754C97.8712 182.074 97.7173 182.291 97.5397 182.404C97.362 182.516 97.1573 182.573 96.9254 182.573ZM100.06 181.5V178.139H100.638V178.627C100.731 178.477 100.858 178.349 101.019 178.24C101.181 178.13 101.393 178.074 101.656 178.074C101.84 178.074 102.025 178.121 102.211 178.214C102.398 178.307 102.535 178.444 102.624 178.624C102.728 178.459 102.869 178.327 103.047 178.227C103.224 178.125 103.425 178.074 103.648 178.074C103.765 178.074 103.887 178.093 104.015 178.13C104.143 178.164 104.262 178.227 104.373 178.318C104.483 178.407 104.572 178.532 104.639 178.692C104.708 178.85 104.743 179.054 104.743 179.303V181.5H104.139V179.361C104.139 179.158 104.106 179 104.041 178.887C103.976 178.774 103.89 178.696 103.784 178.653C103.68 178.607 103.569 178.585 103.45 178.585C103.346 178.585 103.235 178.605 103.118 178.646C103.001 178.688 102.901 178.757 102.819 178.854C102.737 178.952 102.696 179.085 102.696 179.254V181.5H102.098V179.186C102.098 179.054 102.062 178.943 101.99 178.854C101.921 178.763 101.833 178.696 101.727 178.653C101.623 178.607 101.519 178.585 101.415 178.585C101.3 178.585 101.184 178.609 101.067 178.656C100.952 178.702 100.855 178.773 100.775 178.871C100.697 178.968 100.658 179.096 100.658 179.254V181.5H100.06ZM106.113 179.959C106.113 180.172 106.147 180.365 106.217 180.538C106.288 180.709 106.396 180.846 106.539 180.947C106.684 181.049 106.865 181.1 107.081 181.1C107.296 181.1 107.48 181.05 107.634 180.951C107.79 180.851 107.889 180.707 107.933 180.518H108.502C108.46 180.746 108.369 180.938 108.229 181.094C108.088 181.25 107.918 181.368 107.718 181.448C107.519 181.526 107.311 181.565 107.094 181.565C106.78 181.565 106.504 181.497 106.266 181.36C106.027 181.224 105.841 181.028 105.707 180.772C105.572 180.516 105.505 180.21 105.505 179.852C105.505 179.499 105.566 179.189 105.687 178.923C105.808 178.656 105.984 178.448 106.214 178.299C106.445 178.149 106.724 178.074 107.049 178.074C107.523 178.074 107.887 178.225 108.141 178.526C108.394 178.825 108.521 179.229 108.521 179.738V179.959H106.113ZM106.116 179.553H107.943C107.943 179.265 107.869 179.022 107.722 178.825C107.574 178.628 107.349 178.529 107.046 178.529C106.835 178.529 106.661 178.58 106.522 178.682C106.384 178.782 106.281 178.911 106.214 179.069C106.146 179.225 106.114 179.386 106.116 179.553ZM109.346 181.5V178.139H109.928V178.627C110.01 178.486 110.139 178.362 110.315 178.253C110.49 178.145 110.712 178.091 110.981 178.091C111.193 178.091 111.388 178.133 111.566 178.218C111.746 178.302 111.889 178.434 111.995 178.614C112.103 178.792 112.158 179.021 112.158 179.303V181.5H111.556V179.361C111.556 179.099 111.487 178.905 111.348 178.78C111.212 178.652 111.034 178.588 110.815 178.588C110.664 178.588 110.522 178.613 110.39 178.663C110.257 178.71 110.15 178.784 110.068 178.884C109.986 178.981 109.944 179.105 109.944 179.254V181.5H109.346ZM114.646 178.578H113.889V180.668C113.889 180.848 113.917 180.958 113.974 180.999C114.032 181.038 114.141 181.058 114.299 181.058H114.666V181.461C114.623 181.476 114.56 181.489 114.477 181.5C114.395 181.511 114.292 181.516 114.169 181.516C113.82 181.516 113.585 181.446 113.463 181.305C113.344 181.164 113.285 180.958 113.285 180.688V178.578H112.739V178.139H113.301L113.447 177.161H113.889V178.136H114.646V178.578ZM117.008 181.5V176.67H117.593V178.633C117.677 178.495 117.806 178.371 117.98 178.263C118.153 178.152 118.374 178.097 118.643 178.097C118.862 178.097 119.06 178.138 119.237 178.221C119.415 178.301 119.556 178.416 119.66 178.565C119.764 178.715 119.816 178.892 119.816 179.098V181.5H119.215V179.218C119.215 179.017 119.145 178.862 119.007 178.754C118.87 178.643 118.691 178.588 118.47 178.588C118.319 178.588 118.177 178.613 118.045 178.663C117.915 178.71 117.809 178.784 117.726 178.884C117.646 178.981 117.606 179.106 117.606 179.257V181.5H117.008ZM121.67 181.565C121.343 181.565 121.076 181.479 120.87 181.308C120.665 181.137 120.562 180.898 120.562 180.59C120.562 180.217 120.692 179.94 120.952 179.758C121.212 179.576 121.629 179.478 122.203 179.465L122.804 179.449V179.186C122.804 178.98 122.741 178.818 122.616 178.698C122.492 178.577 122.301 178.516 122.044 178.516C121.851 178.519 121.681 178.565 121.533 178.656C121.386 178.745 121.292 178.889 121.251 179.088H120.721C120.738 178.761 120.866 178.511 121.104 178.338C121.343 178.162 121.666 178.074 122.073 178.074C122.511 178.074 122.838 178.167 123.054 178.351C123.273 178.535 123.383 178.802 123.383 179.153V181.5H122.869L122.827 180.869C122.695 181.132 122.529 181.314 122.33 181.415C122.13 181.515 121.91 181.565 121.67 181.565ZM121.852 181.133C122.001 181.133 122.149 181.097 122.294 181.025C122.441 180.954 122.563 180.863 122.658 180.752C122.753 180.64 122.802 180.521 122.804 180.395V179.82L122.304 179.83C121.918 179.836 121.629 179.893 121.436 180.002C121.243 180.108 121.147 180.284 121.147 180.531C121.147 180.722 121.212 180.871 121.342 180.977C121.474 181.081 121.644 181.133 121.852 181.133ZM125.545 181.565C125.309 181.565 125.091 181.528 124.892 181.454C124.692 181.381 124.526 181.268 124.391 181.116C124.259 180.963 124.177 180.764 124.144 180.522H124.69C124.734 180.719 124.832 180.867 124.986 180.967C125.142 181.067 125.327 181.116 125.542 181.116C125.767 181.116 125.949 181.074 126.088 180.99C126.226 180.905 126.296 180.775 126.296 180.6C126.296 180.364 126.147 180.21 125.85 180.138L125.155 179.966C124.882 179.901 124.664 179.799 124.502 179.66C124.341 179.522 124.261 179.328 124.261 179.079C124.259 178.784 124.365 178.544 124.58 178.357C124.794 178.169 125.115 178.074 125.542 178.074C125.906 178.074 126.199 178.157 126.422 178.321C126.648 178.486 126.765 178.726 126.773 179.04H126.244C126.22 178.879 126.147 178.753 126.026 178.659C125.905 178.564 125.741 178.516 125.535 178.516C125.321 178.516 125.146 178.56 125.012 178.646C124.878 178.731 124.81 178.863 124.81 179.043C124.81 179.162 124.858 179.256 124.953 179.326C125.049 179.393 125.19 179.449 125.376 179.495L126.049 179.664C126.255 179.718 126.415 179.795 126.53 179.894C126.645 179.994 126.725 180.104 126.77 180.223C126.816 180.342 126.838 180.457 126.838 180.567C126.838 180.877 126.725 181.121 126.497 181.298C126.27 181.476 125.952 181.565 125.545 181.565ZM130.812 181.565C130.55 181.565 130.341 181.521 130.185 181.432C130.029 181.343 129.912 181.239 129.834 181.12C129.756 181.001 129.702 180.898 129.674 180.811L129.609 181.5H129.151V176.67H129.756V178.672C129.792 178.599 129.856 178.515 129.947 178.422C130.038 178.329 130.159 178.248 130.308 178.178C130.46 178.109 130.643 178.074 130.857 178.074C131.278 178.074 131.611 178.221 131.858 178.513C132.107 178.806 132.232 179.237 132.232 179.807C132.232 180.335 132.113 180.761 131.875 181.084C131.638 181.405 131.284 181.565 130.812 181.565ZM130.705 181.103C130.975 181.103 131.196 180.998 131.368 180.788C131.541 180.576 131.628 180.239 131.628 179.777C131.628 179.385 131.547 179.082 131.387 178.867C131.229 178.651 130.997 178.542 130.692 178.542C130.358 178.542 130.12 178.651 129.977 178.867C129.834 179.082 129.76 179.385 129.756 179.777C129.756 180.248 129.828 180.587 129.973 180.795C130.121 181.001 130.364 181.103 130.705 181.103ZM133.446 179.959C133.446 180.172 133.48 180.365 133.55 180.538C133.621 180.709 133.729 180.846 133.872 180.947C134.017 181.049 134.198 181.1 134.414 181.1C134.629 181.1 134.813 181.05 134.967 180.951C135.123 180.851 135.222 180.707 135.266 180.518H135.835C135.793 180.746 135.702 180.938 135.562 181.094C135.421 181.25 135.251 181.368 135.051 181.448C134.852 181.526 134.644 181.565 134.427 181.565C134.113 181.565 133.837 181.497 133.599 181.36C133.36 181.224 133.174 181.028 133.04 180.772C132.905 180.516 132.838 180.21 132.838 179.852C132.838 179.499 132.899 179.189 133.02 178.923C133.141 178.656 133.317 178.448 133.547 178.299C133.778 178.149 134.057 178.074 134.382 178.074C134.856 178.074 135.22 178.225 135.474 178.526C135.727 178.825 135.854 179.229 135.854 179.738V179.959H133.446ZM133.449 179.553H135.276C135.276 179.265 135.202 179.022 135.055 178.825C134.907 178.628 134.682 178.529 134.379 178.529C134.168 178.529 133.994 178.58 133.855 178.682C133.717 178.782 133.614 178.911 133.547 179.069C133.479 179.225 133.447 179.386 133.449 179.553ZM137.108 179.959C137.108 180.172 137.143 180.365 137.212 180.538C137.284 180.709 137.391 180.846 137.534 180.947C137.679 181.049 137.86 181.1 138.077 181.1C138.291 181.1 138.476 181.05 138.629 180.951C138.785 180.851 138.885 180.707 138.928 180.518H139.497C139.456 180.746 139.365 180.938 139.224 181.094C139.083 181.25 138.913 181.368 138.714 181.448C138.515 181.526 138.307 181.565 138.09 181.565C137.776 181.565 137.499 181.497 137.261 181.36C137.023 181.224 136.836 181.028 136.702 180.772C136.568 180.516 136.501 180.21 136.501 179.852C136.501 179.499 136.561 179.189 136.683 178.923C136.804 178.656 136.979 178.448 137.209 178.299C137.441 178.149 137.719 178.074 138.044 178.074C138.519 178.074 138.883 178.225 139.136 178.526C139.39 178.825 139.517 179.229 139.517 179.738V179.959H137.108ZM137.112 179.553H138.938C138.938 179.265 138.864 179.022 138.717 178.825C138.57 178.628 138.344 178.529 138.041 178.529C137.831 178.529 137.657 178.58 137.518 178.682C137.379 178.782 137.276 178.911 137.209 179.069C137.142 179.225 137.109 179.386 137.112 179.553ZM140.342 181.5V178.139H140.924V178.627C141.006 178.486 141.135 178.362 141.31 178.253C141.486 178.145 141.708 178.091 141.977 178.091C142.189 178.091 142.384 178.133 142.562 178.218C142.742 178.302 142.885 178.434 142.991 178.614C143.099 178.792 143.153 179.021 143.153 179.303V181.5H142.552V179.361C142.552 179.099 142.483 178.905 142.344 178.78C142.207 178.652 142.03 178.588 141.811 178.588C141.659 178.588 141.517 178.613 141.385 178.663C141.253 178.71 141.146 178.784 141.063 178.884C140.981 178.981 140.94 179.105 140.94 179.254V181.5H140.342ZM145.591 182.547V178.139H146.189L146.196 178.724C146.248 178.633 146.321 178.538 146.414 178.438C146.509 178.337 146.629 178.251 146.774 178.182C146.92 178.11 147.095 178.074 147.301 178.074C147.702 178.074 148.029 178.213 148.282 178.49C148.536 178.768 148.663 179.196 148.663 179.774C148.663 180.351 148.538 180.794 148.289 181.103C148.04 181.411 147.694 181.565 147.252 181.565C147.053 181.565 146.883 181.529 146.742 181.458C146.603 181.384 146.49 181.295 146.401 181.191C146.312 181.087 146.244 180.988 146.196 180.892V182.547H145.591ZM147.138 181.097C147.416 181.097 147.642 180.992 147.818 180.782C147.993 180.569 148.081 180.24 148.081 179.794C148.081 179.412 148.001 179.109 147.84 178.884C147.68 178.656 147.446 178.542 147.138 178.542C146.826 178.542 146.59 178.658 146.43 178.89C146.27 179.122 146.189 179.423 146.189 179.794C146.189 180.034 146.225 180.253 146.297 180.45C146.368 180.647 146.474 180.804 146.615 180.921C146.756 181.038 146.93 181.097 147.138 181.097ZM149.451 181.5V178.139H150.023V178.786C150.107 178.546 150.241 178.367 150.423 178.25C150.607 178.133 150.805 178.074 151.017 178.074C151.067 178.074 151.115 178.078 151.16 178.084C151.208 178.091 151.246 178.102 151.274 178.117V178.698C151.242 178.683 151.199 178.674 151.147 178.669C151.098 178.663 151.055 178.659 151.021 178.659C150.754 178.642 150.526 178.693 150.335 178.812C150.144 178.931 150.049 179.131 150.049 179.41V181.5H149.451ZM153.23 181.565C152.765 181.565 152.391 181.417 152.109 181.12C151.828 180.823 151.687 180.394 151.687 179.833C151.687 179.482 151.746 179.174 151.865 178.91C151.985 178.645 152.159 178.441 152.389 178.295C152.618 178.148 152.899 178.074 153.23 178.074C153.694 178.074 154.065 178.226 154.342 178.529C154.619 178.833 154.758 179.267 154.758 179.833C154.758 180.175 154.699 180.476 154.582 180.736C154.468 180.996 154.296 181.2 154.069 181.347C153.844 181.492 153.564 181.565 153.23 181.565ZM153.23 181.09C153.532 181.09 153.762 180.978 153.923 180.752C154.083 180.525 154.163 180.214 154.163 179.82C154.163 179.579 154.131 179.364 154.066 179.173C154.003 178.98 153.903 178.827 153.767 178.715C153.63 178.602 153.451 178.546 153.23 178.546C152.925 178.546 152.691 178.658 152.528 178.884C152.366 179.107 152.285 179.419 152.285 179.82C152.285 180.056 152.317 180.27 152.382 180.463C152.447 180.656 152.549 180.809 152.688 180.921C152.826 181.034 153.007 181.09 153.23 181.09ZM156.884 178.074C157.245 178.074 157.55 178.177 157.797 178.383C158.044 178.587 158.19 178.86 158.236 179.202H157.703C157.672 179.027 157.587 178.876 157.446 178.75C157.305 178.623 157.119 178.559 156.887 178.559C156.601 178.559 156.367 178.663 156.185 178.871C156.005 179.079 155.915 179.397 155.915 179.826C155.915 180.214 155.997 180.525 156.162 180.759C156.329 180.991 156.574 181.107 156.897 181.107C157.126 181.107 157.312 181.042 157.452 180.912C157.593 180.782 157.678 180.632 157.706 180.463H158.229C158.186 180.801 158.04 181.07 157.79 181.269C157.543 181.466 157.241 181.565 156.884 181.565C156.58 181.565 156.313 181.499 156.081 181.367C155.849 181.235 155.667 181.04 155.535 180.782C155.403 180.524 155.337 180.208 155.337 179.833C155.337 179.484 155.396 179.177 155.515 178.913C155.637 178.649 155.812 178.443 156.042 178.295C156.274 178.148 156.554 178.074 156.884 178.074ZM159.478 179.959C159.478 180.172 159.512 180.365 159.582 180.538C159.653 180.709 159.76 180.846 159.903 180.947C160.048 181.049 160.229 181.1 160.446 181.1C160.661 181.1 160.845 181.05 160.999 180.951C161.155 180.851 161.254 180.707 161.298 180.518H161.866C161.825 180.746 161.734 180.938 161.593 181.094C161.452 181.25 161.282 181.368 161.083 181.448C160.884 181.526 160.676 181.565 160.459 181.565C160.145 181.565 159.869 181.497 159.63 181.36C159.392 181.224 159.206 181.028 159.071 180.772C158.937 180.516 158.87 180.21 158.87 179.852C158.87 179.499 158.93 179.189 159.052 178.923C159.173 178.656 159.349 178.448 159.578 178.299C159.81 178.149 160.089 178.074 160.414 178.074C160.888 178.074 161.252 178.225 161.506 178.526C161.759 178.825 161.886 179.229 161.886 179.738V179.959H159.478ZM159.481 179.553H161.307C161.307 179.265 161.234 179.022 161.086 178.825C160.939 178.628 160.714 178.529 160.41 178.529C160.2 178.529 160.026 178.58 159.887 178.682C159.748 178.782 159.645 178.911 159.578 179.069C159.511 179.225 159.479 179.386 159.481 179.553ZM163.878 181.565C163.642 181.565 163.425 181.528 163.225 181.454C163.026 181.381 162.859 181.268 162.725 181.116C162.593 180.963 162.51 180.764 162.478 180.522H163.024C163.067 180.719 163.166 180.867 163.319 180.967C163.475 181.067 163.661 181.116 163.875 181.116C164.101 181.116 164.283 181.074 164.421 180.99C164.56 180.905 164.629 180.775 164.629 180.6C164.629 180.364 164.481 180.21 164.184 180.138L163.488 179.966C163.215 179.901 162.998 179.799 162.835 179.66C162.675 179.522 162.595 179.328 162.595 179.079C162.593 178.784 162.699 178.544 162.913 178.357C163.128 178.169 163.448 178.074 163.875 178.074C164.239 178.074 164.533 178.157 164.756 178.321C164.981 178.486 165.098 178.726 165.107 179.04H164.577C164.553 178.879 164.481 178.753 164.359 178.659C164.238 178.564 164.075 178.516 163.869 178.516C163.654 178.516 163.48 178.56 163.345 178.646C163.211 178.731 163.144 178.863 163.144 179.043C163.144 179.162 163.192 179.256 163.287 179.326C163.382 179.393 163.523 179.449 163.709 179.495L164.382 179.664C164.588 179.718 164.748 179.795 164.863 179.894C164.978 179.994 165.058 180.104 165.104 180.223C165.149 180.342 165.172 180.457 165.172 180.567C165.172 180.877 165.058 181.121 164.831 181.298C164.603 181.476 164.286 181.565 163.878 181.565ZM167.148 181.565C166.911 181.565 166.694 181.528 166.494 181.454C166.295 181.381 166.128 181.268 165.994 181.116C165.862 180.963 165.779 180.764 165.747 180.522H166.293C166.336 180.719 166.435 180.867 166.589 180.967C166.745 181.067 166.93 181.116 167.144 181.116C167.37 181.116 167.552 181.074 167.69 180.99C167.829 180.905 167.898 180.775 167.898 180.6C167.898 180.364 167.75 180.21 167.453 180.138L166.758 179.966C166.485 179.901 166.267 179.799 166.104 179.66C165.944 179.522 165.864 179.328 165.864 179.079C165.862 178.784 165.968 178.544 166.182 178.357C166.397 178.169 166.717 178.074 167.144 178.074C167.508 178.074 167.802 178.157 168.025 178.321C168.25 178.486 168.367 178.726 168.376 179.04H167.846C167.822 178.879 167.75 178.753 167.629 178.659C167.507 178.564 167.344 178.516 167.138 178.516C166.923 178.516 166.749 178.56 166.615 178.646C166.48 178.731 166.413 178.863 166.413 179.043C166.413 179.162 166.461 179.256 166.556 179.326C166.651 179.393 166.792 179.449 166.979 179.495L167.651 179.664C167.857 179.718 168.017 179.795 168.132 179.894C168.247 179.994 168.327 180.104 168.373 180.223C168.418 180.342 168.441 180.457 168.441 180.567C168.441 180.877 168.327 181.121 168.1 181.298C167.872 181.476 167.555 181.565 167.148 181.565ZM169.71 179.959C169.71 180.172 169.745 180.365 169.814 180.538C169.885 180.709 169.993 180.846 170.136 180.947C170.281 181.049 170.462 181.1 170.678 181.1C170.893 181.1 171.077 181.05 171.231 180.951C171.387 180.851 171.487 180.707 171.53 180.518H172.099C172.058 180.746 171.967 180.938 171.826 181.094C171.685 181.25 171.515 181.368 171.315 181.448C171.116 181.526 170.908 181.565 170.691 181.565C170.377 181.565 170.101 181.497 169.863 181.36C169.624 181.224 169.438 181.028 169.304 180.772C169.169 180.516 169.102 180.21 169.102 179.852C169.102 179.499 169.163 179.189 169.284 178.923C169.406 178.656 169.581 178.448 169.811 178.299C170.043 178.149 170.321 178.074 170.646 178.074C171.12 178.074 171.484 178.225 171.738 178.526C171.991 178.825 172.118 179.229 172.118 179.738V179.959H169.71ZM169.713 179.553H171.54C171.54 179.265 171.466 179.022 171.319 178.825C171.171 178.628 170.946 178.529 170.643 178.529C170.433 178.529 170.258 178.58 170.119 178.682C169.981 178.782 169.878 178.911 169.811 179.069C169.744 179.225 169.711 179.386 169.713 179.553ZM174.156 181.565C173.718 181.565 173.371 181.415 173.116 181.116C172.862 180.817 172.736 180.381 172.736 179.807C172.736 179.282 172.85 178.863 173.08 178.549C173.312 178.233 173.655 178.074 174.11 178.074C174.323 178.074 174.504 178.109 174.653 178.178C174.805 178.248 174.926 178.329 175.017 178.422C175.11 178.515 175.175 178.599 175.212 178.672V176.67H175.817V181.5H175.358L175.293 180.811C175.265 180.898 175.212 181.001 175.134 181.12C175.056 181.239 174.939 181.343 174.783 181.432C174.627 181.521 174.418 181.565 174.156 181.565ZM174.263 181.103C174.603 181.103 174.846 181.001 174.991 180.795C175.138 180.587 175.212 180.248 175.212 179.777C175.208 179.385 175.134 179.082 174.991 178.867C174.848 178.651 174.61 178.542 174.276 178.542C174.001 178.542 173.776 178.641 173.6 178.838C173.427 179.033 173.34 179.346 173.34 179.777C173.34 180.198 173.418 180.524 173.574 180.756C173.732 180.988 173.962 181.103 174.263 181.103ZM176.67 181.5V180.733H177.385V181.5H176.67ZM76.1495 185.353V184.8H79.705V185.353H78.2718V189.5H77.6673V185.353H76.1495ZM80.3566 189.5V184.67H80.9416V186.633C81.0261 186.495 81.155 186.371 81.3284 186.263C81.5017 186.152 81.7227 186.097 81.9914 186.097C82.2102 186.097 82.4085 186.138 82.5861 186.221C82.7638 186.301 82.9046 186.416 83.0086 186.565C83.1126 186.715 83.1646 186.892 83.1646 187.098V189.5H82.5634V187.218C82.5634 187.017 82.494 186.862 82.3554 186.754C82.2189 186.643 82.0401 186.588 81.8191 186.588C81.6675 186.588 81.5255 186.613 81.3934 186.663C81.2634 186.71 81.1572 186.784 81.0749 186.884C80.9947 186.981 80.9546 187.106 80.9546 187.257V189.5H80.3566ZM84.5307 187.959C84.5307 188.172 84.5654 188.365 84.6347 188.538C84.7062 188.709 84.8135 188.846 84.9565 188.947C85.1017 189.049 85.2826 189.1 85.4992 189.1C85.7137 189.1 85.8979 189.05 86.0517 188.951C86.2077 188.851 86.3074 188.707 86.3507 188.518H86.9195C86.8783 188.746 86.7873 188.938 86.6465 189.094C86.5057 189.25 86.3356 189.368 86.1362 189.448C85.9369 189.526 85.7289 189.565 85.5122 189.565C85.1981 189.565 84.9218 189.497 84.6835 189.36C84.4452 189.224 84.2588 189.028 84.1245 188.772C83.9902 188.516 83.923 188.21 83.923 187.852C83.923 187.499 83.9837 187.189 84.105 186.923C84.2263 186.656 84.4018 186.448 84.6315 186.299C84.8633 186.149 85.1417 186.074 85.4667 186.074C85.9412 186.074 86.3052 186.225 86.5587 186.526C86.8122 186.825 86.939 187.229 86.939 187.738V187.959H84.5307ZM84.534 187.553H86.3605C86.3605 187.265 86.2868 187.022 86.1395 186.825C85.9922 186.628 85.7668 186.529 85.4635 186.529C85.2533 186.529 85.0789 186.58 84.9402 186.682C84.8016 186.782 84.6987 186.911 84.6315 187.069C84.5643 187.225 84.5318 187.386 84.534 187.553ZM90.9253 186.578H90.168V188.668C90.168 188.848 90.1962 188.958 90.2525 188.999C90.311 189.038 90.4194 189.058 90.5775 189.058H90.9448V189.461C90.9014 189.476 90.8386 189.489 90.7563 189.5C90.6739 189.511 90.571 189.516 90.4475 189.516C90.0987 189.516 89.8636 189.446 89.7423 189.305C89.6231 189.164 89.5635 188.958 89.5635 188.688V186.578H89.0175V186.139H89.5798L89.726 185.161H90.168V186.136H90.9253V186.578ZM93.0356 189.565C92.5698 189.565 92.1961 189.417 91.9144 189.12C91.6327 188.823 91.4919 188.394 91.4919 187.833C91.4919 187.482 91.5515 187.174 91.6706 186.91C91.7898 186.645 91.9642 186.441 92.1939 186.295C92.4236 186.148 92.7041 186.074 93.0356 186.074C93.4993 186.074 93.8698 186.226 94.1471 186.529C94.4245 186.833 94.5631 187.267 94.5631 187.833C94.5631 188.175 94.5046 188.476 94.3876 188.736C94.2728 188.996 94.1016 189.2 93.8741 189.347C93.6488 189.492 93.3693 189.565 93.0356 189.565ZM93.0356 189.09C93.3368 189.09 93.5676 188.978 93.7279 188.752C93.8882 188.525 93.9684 188.214 93.9684 187.82C93.9684 187.579 93.9359 187.364 93.8709 187.173C93.8081 186.98 93.7084 186.827 93.5719 186.715C93.4354 186.602 93.2566 186.546 93.0356 186.546C92.7301 186.546 92.4961 186.658 92.3336 186.884C92.1711 187.107 92.0899 187.419 92.0899 187.82C92.0899 188.056 92.1224 188.27 92.1874 188.463C92.2524 188.656 92.3542 188.809 92.4929 188.921C92.6316 189.034 92.8125 189.09 93.0356 189.09ZM96.9492 186.578H96.1919V188.668C96.1919 188.848 96.2201 188.958 96.2764 188.999C96.3349 189.038 96.4433 189.058 96.6014 189.058H96.9687V189.461C96.9254 189.476 96.8625 189.489 96.7802 189.5C96.6979 189.511 96.5949 189.516 96.4714 189.516C96.1226 189.516 95.8875 189.446 95.7662 189.305C95.647 189.164 95.5874 188.958 95.5874 188.688V186.578H95.0414V186.139H95.6037L95.7499 185.161H96.1919V186.136H96.9492V186.578ZM98.7168 189.565C98.3896 189.565 98.1231 189.479 97.9173 189.308C97.7115 189.137 97.6085 188.898 97.6085 188.59C97.6085 188.217 97.7385 187.94 97.9985 187.758C98.2585 187.576 98.6756 187.478 99.2498 187.465L99.851 187.449V187.186C99.851 186.98 99.7882 186.818 99.6625 186.698C99.539 186.577 99.3484 186.516 99.0905 186.516C98.8977 186.519 98.7276 186.565 98.5803 186.656C98.433 186.745 98.3387 186.889 98.2975 187.088H97.7678C97.7851 186.761 97.913 186.511 98.1513 186.338C98.3896 186.162 98.7125 186.074 99.1198 186.074C99.5575 186.074 99.8846 186.167 100.101 186.351C100.32 186.535 100.43 186.802 100.43 187.153V189.5H99.916L99.8738 188.869C99.7416 189.132 99.5759 189.314 99.3765 189.415C99.1772 189.515 98.9573 189.565 98.7168 189.565ZM98.8988 189.133C99.0483 189.133 99.1956 189.097 99.3408 189.025C99.4881 188.954 99.6095 188.863 99.7048 188.752C99.8001 188.64 99.8489 188.521 99.851 188.395V187.82L99.3505 187.83C98.9649 187.836 98.6756 187.893 98.4828 188.002C98.29 188.108 98.1935 188.284 98.1935 188.531C98.1935 188.722 98.2585 188.871 98.3885 188.977C98.5207 189.081 98.6908 189.133 98.8988 189.133ZM102.304 189.542C102.062 189.542 101.88 189.5 101.758 189.415C101.637 189.329 101.556 189.217 101.515 189.081C101.476 188.942 101.456 188.794 101.456 188.635V184.67H102.048V188.577C102.048 188.748 102.08 188.876 102.145 188.96C102.212 189.043 102.306 189.088 102.425 189.097L102.607 189.1V189.49C102.498 189.525 102.398 189.542 102.304 189.542ZM105.82 189.565C105.493 189.565 105.226 189.479 105.02 189.308C104.814 189.137 104.712 188.898 104.712 188.59C104.712 188.217 104.842 187.94 105.102 187.758C105.362 187.576 105.779 187.478 106.353 187.465L106.954 187.449V187.186C106.954 186.98 106.891 186.818 106.766 186.698C106.642 186.577 106.451 186.516 106.194 186.516C106.001 186.519 105.831 186.565 105.683 186.656C105.536 186.745 105.442 186.889 105.401 187.088H104.871C104.888 186.761 105.016 186.511 105.254 186.338C105.493 186.162 105.815 186.074 106.223 186.074C106.66 186.074 106.988 186.167 107.204 186.351C107.423 186.535 107.533 186.802 107.533 187.153V189.5H107.019L106.977 188.869C106.845 189.132 106.679 189.314 106.48 189.415C106.28 189.515 106.06 189.565 105.82 189.565ZM106.002 189.133C106.151 189.133 106.299 189.097 106.444 189.025C106.591 188.954 106.712 188.863 106.808 188.752C106.903 188.64 106.952 188.521 106.954 188.395V187.82L106.454 187.83C106.068 187.836 105.779 187.893 105.586 188.002C105.393 188.108 105.297 188.284 105.297 188.531C105.297 188.722 105.362 188.871 105.492 188.977C105.624 189.081 105.794 189.133 106.002 189.133ZM108.559 189.5V186.139H109.138V186.627C109.231 186.477 109.358 186.349 109.518 186.24C109.681 186.13 109.893 186.074 110.155 186.074C110.339 186.074 110.524 186.121 110.711 186.214C110.897 186.307 111.035 186.444 111.124 186.624C111.228 186.459 111.368 186.327 111.546 186.227C111.724 186.125 111.924 186.074 112.147 186.074C112.264 186.074 112.387 186.093 112.515 186.13C112.642 186.164 112.762 186.227 112.872 186.318C112.983 186.407 113.071 186.532 113.139 186.692C113.208 186.85 113.243 187.054 113.243 187.303V189.5H112.638V187.361C112.638 187.158 112.606 187 112.541 186.887C112.476 186.774 112.39 186.696 112.284 186.653C112.18 186.607 112.068 186.585 111.949 186.585C111.845 186.585 111.735 186.605 111.618 186.646C111.501 186.688 111.401 186.757 111.319 186.854C111.236 186.952 111.195 187.085 111.195 187.254V189.5H110.597V187.186C110.597 187.054 110.561 186.943 110.49 186.854C110.42 186.763 110.333 186.696 110.227 186.653C110.123 186.607 110.019 186.585 109.915 186.585C109.8 186.585 109.684 186.609 109.567 186.656C109.452 186.702 109.354 186.773 109.274 186.871C109.196 186.968 109.157 187.096 109.157 187.254V189.5H108.559ZM115.519 189.565C115.053 189.565 114.679 189.417 114.398 189.12C114.116 188.823 113.975 188.394 113.975 187.833C113.975 187.482 114.035 187.174 114.154 186.91C114.273 186.645 114.448 186.441 114.677 186.295C114.907 186.148 115.188 186.074 115.519 186.074C115.983 186.074 116.353 186.226 116.631 186.529C116.908 186.833 117.047 187.267 117.047 187.833C117.047 188.175 116.988 188.476 116.871 188.736C116.756 188.996 116.585 189.2 116.358 189.347C116.132 189.492 115.853 189.565 115.519 189.565ZM115.519 189.09C115.82 189.09 116.051 188.978 116.211 188.752C116.372 188.525 116.452 188.214 116.452 187.82C116.452 187.579 116.419 187.364 116.354 187.173C116.291 186.98 116.192 186.827 116.055 186.715C115.919 186.602 115.74 186.546 115.519 186.546C115.214 186.546 114.98 186.658 114.817 186.884C114.655 187.107 114.573 187.419 114.573 187.82C114.573 188.056 114.606 188.27 114.671 188.463C114.736 188.656 114.838 188.809 114.976 188.921C115.115 189.034 115.296 189.09 115.519 189.09ZM119.011 189.565C118.777 189.563 118.563 189.52 118.368 189.435C118.173 189.348 118.015 189.22 117.896 189.051C117.779 188.882 117.721 188.672 117.721 188.421V186.139H118.322V188.359C118.322 188.578 118.389 188.756 118.524 188.892C118.66 189.029 118.865 189.097 119.138 189.097C119.385 189.097 119.583 189.033 119.733 188.905C119.884 188.775 119.96 188.582 119.96 188.327V186.139H120.558V189.5H120.08L120.019 188.856C119.958 189.11 119.834 189.292 119.648 189.402C119.462 189.513 119.249 189.567 119.011 189.565ZM121.54 189.5V186.139H122.122V186.627C122.204 186.486 122.333 186.362 122.509 186.253C122.684 186.145 122.906 186.091 123.175 186.091C123.387 186.091 123.582 186.133 123.76 186.218C123.94 186.302 124.083 186.434 124.189 186.614C124.297 186.792 124.351 187.021 124.351 187.303V189.5H123.75V187.361C123.75 187.099 123.681 186.905 123.542 186.78C123.406 186.652 123.228 186.588 123.009 186.588C122.858 186.588 122.716 186.613 122.583 186.663C122.451 186.71 122.344 186.784 122.262 186.884C122.179 186.981 122.138 187.105 122.138 187.254V189.5H121.54ZM126.84 186.578H126.083V188.668C126.083 188.848 126.111 188.958 126.168 188.999C126.226 189.038 126.334 189.058 126.493 189.058H126.86V189.461C126.816 189.476 126.754 189.489 126.671 189.5C126.589 189.511 126.486 189.516 126.363 189.516C126.014 189.516 125.779 189.446 125.657 189.305C125.538 189.164 125.479 188.958 125.479 188.688V186.578H124.933V186.139H125.495L125.641 185.161H126.083V186.136H126.84V186.578ZM130.332 189.565C129.894 189.565 129.547 189.415 129.292 189.116C129.038 188.817 128.911 188.381 128.911 187.807C128.911 187.282 129.026 186.863 129.256 186.549C129.488 186.233 129.831 186.074 130.286 186.074C130.498 186.074 130.679 186.109 130.829 186.178C130.98 186.248 131.102 186.329 131.193 186.422C131.286 186.515 131.351 186.599 131.388 186.672V184.67H131.992V189.5H131.534L131.469 188.811C131.441 188.898 131.388 189.001 131.31 189.12C131.232 189.239 131.115 189.343 130.959 189.432C130.803 189.521 130.594 189.565 130.332 189.565ZM130.439 189.103C130.779 189.103 131.022 189.001 131.167 188.795C131.314 188.587 131.388 188.248 131.388 187.777C131.383 187.385 131.31 187.082 131.167 186.867C131.024 186.651 130.785 186.542 130.452 186.542C130.177 186.542 129.951 186.641 129.776 186.838C129.602 187.033 129.516 187.346 129.516 187.777C129.516 188.198 129.594 188.524 129.75 188.756C129.908 188.988 130.138 189.103 130.439 189.103ZM133.414 187.959C133.414 188.172 133.449 188.365 133.518 188.538C133.59 188.709 133.697 188.846 133.84 188.947C133.985 189.049 134.166 189.1 134.383 189.1C134.597 189.1 134.781 189.05 134.935 188.951C135.091 188.851 135.191 188.707 135.234 188.518H135.803C135.762 188.746 135.671 188.938 135.53 189.094C135.389 189.25 135.219 189.368 135.02 189.448C134.82 189.526 134.612 189.565 134.396 189.565C134.081 189.565 133.805 189.497 133.567 189.36C133.328 189.224 133.142 189.028 133.008 188.772C132.873 188.516 132.806 188.21 132.806 187.852C132.806 187.499 132.867 187.189 132.988 186.923C133.11 186.656 133.285 186.448 133.515 186.299C133.747 186.149 134.025 186.074 134.35 186.074C134.825 186.074 135.189 186.225 135.442 186.526C135.696 186.825 135.822 187.229 135.822 187.738V187.959H133.414ZM133.417 187.553H135.244C135.244 187.265 135.17 187.022 135.023 186.825C134.875 186.628 134.65 186.529 134.347 186.529C134.137 186.529 133.962 186.58 133.824 186.682C133.685 186.782 133.582 186.911 133.515 187.069C133.448 187.225 133.415 187.386 133.417 187.553ZM137.86 189.565C137.422 189.565 137.076 189.415 136.82 189.116C136.566 188.817 136.44 188.381 136.44 187.807C136.44 187.282 136.554 186.863 136.784 186.549C137.016 186.233 137.359 186.074 137.814 186.074C138.027 186.074 138.208 186.109 138.357 186.178C138.509 186.248 138.63 186.329 138.721 186.422C138.814 186.515 138.879 186.599 138.916 186.672V184.67H139.521V189.5H139.062L138.997 188.811C138.969 188.898 138.916 189.001 138.838 189.12C138.76 189.239 138.643 189.343 138.487 189.432C138.331 189.521 138.122 189.565 137.86 189.565ZM137.967 189.103C138.307 189.103 138.55 189.001 138.695 188.795C138.842 188.587 138.916 188.248 138.916 187.777C138.912 187.385 138.838 187.082 138.695 186.867C138.552 186.651 138.314 186.542 137.98 186.542C137.705 186.542 137.48 186.641 137.304 186.838C137.131 187.033 137.044 187.346 137.044 187.777C137.044 188.198 137.122 188.524 137.278 188.756C137.436 188.988 137.666 189.103 137.967 189.103ZM141.748 189.565C141.514 189.563 141.3 189.52 141.105 189.435C140.91 189.348 140.753 189.22 140.634 189.051C140.517 188.882 140.458 188.672 140.458 188.421V186.139H141.059V188.359C141.059 188.578 141.127 188.756 141.261 188.892C141.397 189.029 141.602 189.097 141.875 189.097C142.122 189.097 142.32 189.033 142.47 188.905C142.622 188.775 142.697 188.582 142.697 188.327V186.139H143.295V189.5H142.818L142.756 188.856C142.695 189.11 142.572 189.292 142.385 189.402C142.199 189.513 141.987 189.567 141.748 189.565ZM145.572 186.074C145.934 186.074 146.238 186.177 146.485 186.383C146.732 186.587 146.879 186.86 146.924 187.202H146.391C146.361 187.027 146.275 186.876 146.134 186.75C145.994 186.623 145.807 186.559 145.575 186.559C145.289 186.559 145.055 186.663 144.873 186.871C144.694 187.079 144.604 187.397 144.604 187.826C144.604 188.214 144.686 188.525 144.851 188.759C145.017 188.991 145.262 189.107 145.585 189.107C145.815 189.107 146 189.042 146.141 188.912C146.282 188.782 146.366 188.632 146.394 188.463H146.918C146.874 188.801 146.728 189.07 146.479 189.269C146.232 189.466 145.93 189.565 145.572 189.565C145.269 189.565 145.001 189.499 144.769 189.367C144.538 189.235 144.356 189.04 144.223 188.782C144.091 188.524 144.025 188.208 144.025 187.833C144.025 187.484 144.085 187.177 144.204 186.913C144.325 186.649 144.501 186.443 144.73 186.295C144.962 186.148 145.243 186.074 145.572 186.074ZM149.336 186.578H148.579V188.668C148.579 188.848 148.607 188.958 148.664 188.999C148.722 189.038 148.83 189.058 148.989 189.058H149.356V189.461C149.313 189.476 149.25 189.489 149.167 189.5C149.085 189.511 148.982 189.516 148.859 189.516C148.51 189.516 148.275 189.446 148.153 189.305C148.034 189.164 147.975 188.958 147.975 188.688V186.578H147.429V186.139H147.991L148.137 185.161H148.579V186.136H149.336V186.578ZM150.54 187.959C150.54 188.172 150.575 188.365 150.644 188.538C150.716 188.709 150.823 188.846 150.966 188.947C151.111 189.049 151.292 189.1 151.509 189.1C151.723 189.1 151.907 189.05 152.061 188.951C152.217 188.851 152.317 188.707 152.36 188.518H152.929C152.888 188.746 152.797 188.938 152.656 189.094C152.515 189.25 152.345 189.368 152.146 189.448C151.946 189.526 151.738 189.565 151.522 189.565C151.207 189.565 150.931 189.497 150.693 189.36C150.454 189.224 150.268 189.028 150.134 188.772C149.999 188.516 149.932 188.21 149.932 187.852C149.932 187.499 149.993 187.189 150.114 186.923C150.236 186.656 150.411 186.448 150.641 186.299C150.873 186.149 151.151 186.074 151.476 186.074C151.951 186.074 152.315 186.225 152.568 186.526C152.822 186.825 152.948 187.229 152.948 187.738V187.959H150.54ZM150.543 187.553H152.37C152.37 187.265 152.296 187.022 152.149 186.825C152.001 186.628 151.776 186.529 151.473 186.529C151.263 186.529 151.088 186.58 150.95 186.682C150.811 186.782 150.708 186.911 150.641 187.069C150.574 187.225 150.541 187.386 150.543 187.553ZM154.986 189.565C154.548 189.565 154.202 189.415 153.946 189.116C153.692 188.817 153.566 188.381 153.566 187.807C153.566 187.282 153.68 186.863 153.91 186.549C154.142 186.233 154.485 186.074 154.94 186.074C155.153 186.074 155.334 186.109 155.483 186.178C155.635 186.248 155.756 186.329 155.847 186.422C155.94 186.515 156.005 186.599 156.042 186.672V184.67H156.647V189.5H156.188L156.123 188.811C156.095 188.898 156.042 189.001 155.964 189.12C155.886 189.239 155.769 189.343 155.613 189.432C155.457 189.521 155.248 189.565 154.986 189.565ZM155.093 189.103C155.433 189.103 155.676 189.001 155.821 188.795C155.968 188.587 156.042 188.248 156.042 187.777C156.038 187.385 155.964 187.082 155.821 186.867C155.678 186.651 155.44 186.542 155.106 186.542C154.831 186.542 154.606 186.641 154.43 186.838C154.257 187.033 154.17 187.346 154.17 187.777C154.17 188.198 154.248 188.524 154.404 188.756C154.562 188.988 154.792 189.103 155.093 189.103ZM161.035 186.139V186.578H160.22V189.5H159.615V186.578H158.907V186.139H159.615V185.619C159.615 185.073 159.887 184.8 160.431 184.8H161.065L161.068 185.226H160.564C160.428 185.226 160.334 185.263 160.285 185.337C160.235 185.41 160.21 185.522 160.21 185.671V186.139H161.035ZM161.778 189.5V186.139H162.35V186.786C162.435 186.546 162.568 186.367 162.75 186.25C162.934 186.133 163.132 186.074 163.345 186.074C163.394 186.074 163.442 186.078 163.488 186.084C163.535 186.091 163.573 186.102 163.601 186.117V186.698C163.569 186.683 163.527 186.674 163.475 186.669C163.425 186.663 163.382 186.659 163.348 186.659C163.081 186.642 162.853 186.693 162.662 186.812C162.471 186.931 162.376 187.131 162.376 187.41V189.5H161.778ZM165.558 189.565C165.092 189.565 164.718 189.417 164.436 189.12C164.155 188.823 164.014 188.394 164.014 187.833C164.014 187.482 164.073 187.174 164.193 186.91C164.312 186.645 164.486 186.441 164.716 186.295C164.946 186.148 165.226 186.074 165.558 186.074C166.021 186.074 166.392 186.226 166.669 186.529C166.946 186.833 167.085 187.267 167.085 187.833C167.085 188.175 167.027 188.476 166.91 188.736C166.795 188.996 166.624 189.2 166.396 189.347C166.171 189.492 165.891 189.565 165.558 189.565ZM165.558 189.09C165.859 189.09 166.09 188.978 166.25 188.752C166.41 188.525 166.49 188.214 166.49 187.82C166.49 187.579 166.458 187.364 166.393 187.173C166.33 186.98 166.23 186.827 166.094 186.715C165.957 186.602 165.779 186.546 165.558 186.546C165.252 186.546 165.018 186.658 164.856 186.884C164.693 187.107 164.612 187.419 164.612 187.82C164.612 188.056 164.644 188.27 164.709 188.463C164.774 188.656 164.876 188.809 165.015 188.921C165.154 189.034 165.334 189.09 165.558 189.09ZM167.872 189.5V186.139H168.45V186.627C168.543 186.477 168.67 186.349 168.831 186.24C168.993 186.13 169.205 186.074 169.468 186.074C169.652 186.074 169.837 186.121 170.023 186.214C170.21 186.307 170.347 186.444 170.436 186.624C170.54 186.459 170.681 186.327 170.859 186.227C171.036 186.125 171.237 186.074 171.46 186.074C171.577 186.074 171.699 186.093 171.827 186.13C171.955 186.164 172.074 186.227 172.185 186.318C172.295 186.407 172.384 186.532 172.451 186.692C172.52 186.85 172.555 187.054 172.555 187.303V189.5H171.951V187.361C171.951 187.158 171.918 187 171.853 186.887C171.788 186.774 171.702 186.696 171.596 186.653C171.492 186.607 171.381 186.585 171.262 186.585C171.158 186.585 171.047 186.605 170.93 186.646C170.813 186.688 170.713 186.757 170.631 186.854C170.549 186.952 170.508 187.085 170.508 187.254V189.5H169.91V187.186C169.91 187.054 169.874 186.943 169.802 186.854C169.733 186.763 169.645 186.696 169.539 186.653C169.435 186.607 169.331 186.585 169.227 186.585C169.112 186.585 168.996 186.609 168.879 186.656C168.764 186.702 168.667 186.773 168.587 186.871C168.509 186.968 168.47 187.096 168.47 187.254V189.5H167.872ZM175.281 190.573C175.084 190.573 174.948 190.558 174.875 190.53C174.801 190.502 174.764 190.488 174.764 190.488V190.098L175.105 190.105C175.272 190.111 175.401 190.095 175.492 190.056C175.585 190.017 175.654 189.968 175.697 189.91C175.74 189.851 175.774 189.794 175.798 189.737L175.915 189.419L174.602 186.139H175.209L176.201 188.733L177.185 186.139H177.774L176.357 189.754C176.227 190.074 176.073 190.291 175.895 190.404C175.717 190.516 175.513 190.573 175.281 190.573ZM179.63 189.565C179.165 189.565 178.791 189.417 178.509 189.12C178.227 188.823 178.087 188.394 178.087 187.833C178.087 187.482 178.146 187.174 178.265 186.91C178.385 186.645 178.559 186.441 178.789 186.295C179.018 186.148 179.299 186.074 179.63 186.074C180.094 186.074 180.465 186.226 180.742 186.529C181.019 186.833 181.158 187.267 181.158 187.833C181.158 188.175 181.099 188.476 180.982 188.736C180.868 188.996 180.696 189.2 180.469 189.347C180.244 189.492 179.964 189.565 179.63 189.565ZM179.63 189.09C179.932 189.09 180.162 188.978 180.323 188.752C180.483 188.525 180.563 188.214 180.563 187.82C180.563 187.579 180.531 187.364 180.466 187.173C180.403 186.98 180.303 186.827 180.167 186.715C180.03 186.602 179.851 186.546 179.63 186.546C179.325 186.546 179.091 186.658 178.928 186.884C178.766 187.107 178.685 187.419 178.685 187.82C178.685 188.056 178.717 188.27 178.782 188.463C178.847 188.656 178.949 188.809 179.088 188.921C179.226 189.034 179.407 189.09 179.63 189.09ZM183.122 189.565C182.888 189.563 182.674 189.52 182.479 189.435C182.284 189.348 182.127 189.22 182.008 189.051C181.891 188.882 181.832 188.672 181.832 188.421V186.139H182.433V188.359C182.433 188.578 182.501 188.756 182.635 188.892C182.771 189.029 182.976 189.097 183.249 189.097C183.496 189.097 183.694 189.033 183.844 188.905C183.996 188.775 184.071 188.582 184.071 188.327V186.139H184.669V189.5H184.192L184.13 188.856C184.069 189.11 183.946 189.292 183.759 189.402C183.573 189.513 183.361 189.567 183.122 189.565ZM185.652 189.5V186.139H186.224V186.786C186.308 186.546 186.441 186.367 186.623 186.25C186.807 186.133 187.006 186.074 187.218 186.074C187.268 186.074 187.316 186.078 187.361 186.084C187.409 186.091 187.447 186.102 187.475 186.117V186.698C187.442 186.683 187.4 186.674 187.348 186.669C187.298 186.663 187.256 186.659 187.221 186.659C186.955 186.642 186.726 186.693 186.536 186.812C186.345 186.931 186.25 187.131 186.25 187.41V189.5H185.652ZM77.4268 198.565C77.0996 198.565 76.8331 198.479 76.6273 198.308C76.4214 198.137 76.3185 197.898 76.3185 197.59C76.3185 197.217 76.4485 196.94 76.7085 196.758C76.9685 196.576 77.3856 196.478 77.9598 196.465L78.561 196.449V196.186C78.561 195.98 78.4982 195.818 78.3725 195.698C78.249 195.577 78.0583 195.516 77.8005 195.516C77.6077 195.519 77.4376 195.565 77.2903 195.656C77.1429 195.745 77.0487 195.889 77.0075 196.088H76.4777C76.4951 195.761 76.6229 195.511 76.8613 195.338C77.0996 195.162 77.4224 195.074 77.8298 195.074C78.2674 195.074 78.5946 195.167 78.8113 195.351C79.0301 195.535 79.1395 195.802 79.1395 196.153V198.5H78.626L78.5838 197.869C78.4516 198.132 78.2858 198.314 78.0865 198.415C77.8872 198.515 77.6673 198.565 77.4268 198.565ZM77.6088 198.133C77.7583 198.133 77.9056 198.097 78.0508 198.025C78.1981 197.954 78.3194 197.863 78.4148 197.752C78.5101 197.64 78.5588 197.521 78.561 197.395V196.82L78.0605 196.83C77.6748 196.836 77.3856 196.893 77.1928 197.002C76.9999 197.108 76.9035 197.284 76.9035 197.531C76.9035 197.722 76.9685 197.871 77.0985 197.977C77.2307 198.081 77.4008 198.133 77.6088 198.133ZM81.5052 195.074C81.867 195.074 82.1714 195.177 82.4184 195.383C82.6654 195.587 82.8117 195.86 82.8572 196.202H82.3242C82.2939 196.027 82.2083 195.876 82.0674 195.75C81.9266 195.623 81.7403 195.559 81.5084 195.559C81.2224 195.559 80.9884 195.663 80.8064 195.871C80.6266 196.079 80.5367 196.397 80.5367 196.826C80.5367 197.214 80.619 197.525 80.7837 197.759C80.9505 197.991 81.1954 198.107 81.5182 198.107C81.7479 198.107 81.9331 198.042 82.0739 197.912C82.2148 197.782 82.2993 197.632 82.3274 197.463H82.8507C82.8074 197.801 82.6611 198.07 82.4119 198.269C82.1649 198.466 81.8627 198.565 81.5052 198.565C81.2019 198.565 80.9343 198.499 80.7024 198.367C80.4706 198.235 80.2886 198.04 80.1564 197.782C80.0243 197.524 79.9582 197.208 79.9582 196.833C79.9582 196.484 80.0178 196.177 80.1369 195.913C80.2583 195.649 80.4338 195.443 80.6634 195.295C80.8953 195.148 81.1759 195.074 81.5052 195.074ZM85.0091 195.074C85.3709 195.074 85.6754 195.177 85.9224 195.383C86.1694 195.587 86.3156 195.86 86.3611 196.202H85.8281C85.7978 196.027 85.7122 195.876 85.5714 195.75C85.4305 195.623 85.2442 195.559 85.0124 195.559C84.7264 195.559 84.4924 195.663 84.3104 195.871C84.1305 196.079 84.0406 196.397 84.0406 196.826C84.0406 197.214 84.1229 197.525 84.2876 197.759C84.4544 197.991 84.6993 198.107 85.0221 198.107C85.2518 198.107 85.437 198.042 85.5779 197.912C85.7187 197.782 85.8032 197.632 85.8314 197.463H86.3546C86.3113 197.801 86.165 198.07 85.9159 198.269C85.6689 198.466 85.3666 198.565 85.0091 198.565C84.7058 198.565 84.4382 198.499 84.2064 198.367C83.9745 198.235 83.7925 198.04 83.6604 197.782C83.5282 197.524 83.4621 197.208 83.4621 196.833C83.4621 196.484 83.5217 196.177 83.6409 195.913C83.7622 195.649 83.9377 195.443 84.1674 195.295C84.3992 195.148 84.6798 195.074 85.0091 195.074ZM88.5098 198.565C88.0439 198.565 87.6702 198.417 87.3885 198.12C87.1068 197.823 86.966 197.394 86.966 196.833C86.966 196.482 87.0256 196.174 87.1448 195.91C87.2639 195.645 87.4383 195.441 87.668 195.295C87.8977 195.148 88.1783 195.074 88.5098 195.074C88.9734 195.074 89.3439 195.226 89.6213 195.529C89.8986 195.833 90.0373 196.267 90.0373 196.833C90.0373 197.175 89.9788 197.476 89.8618 197.736C89.7469 197.996 89.5758 198.2 89.3483 198.347C89.1229 198.492 88.8434 198.565 88.5098 198.565ZM88.5098 198.09C88.8109 198.09 89.0417 197.978 89.202 197.752C89.3623 197.525 89.4425 197.214 89.4425 196.82C89.4425 196.579 89.41 196.364 89.345 196.173C89.2822 195.98 89.1825 195.827 89.046 195.715C88.9095 195.602 88.7308 195.546 88.5098 195.546C88.2043 195.546 87.9703 195.658 87.8078 195.884C87.6453 196.107 87.564 196.419 87.564 196.82C87.564 197.056 87.5965 197.27 87.6615 197.463C87.7265 197.656 87.8283 197.809 87.967 197.921C88.1057 198.034 88.2866 198.09 88.5098 198.09ZM92.0018 198.565C91.7678 198.563 91.5533 198.52 91.3583 198.435C91.1633 198.348 91.0062 198.22 90.887 198.051C90.77 197.882 90.7115 197.672 90.7115 197.421V195.139H91.3128V197.359C91.3128 197.578 91.3799 197.756 91.5143 197.892C91.6508 198.029 91.8555 198.097 92.1285 198.097C92.3755 198.097 92.5738 198.033 92.7233 197.905C92.8749 197.775 92.9508 197.582 92.9508 197.327V195.139H93.5488V198.5H93.071L93.0093 197.856C92.9486 198.11 92.8251 198.292 92.6388 198.402C92.4524 198.513 92.2401 198.567 92.0018 198.565ZM94.5309 198.5V195.139H95.1127V195.627C95.195 195.486 95.3239 195.362 95.4994 195.253C95.6749 195.145 95.897 195.091 96.1657 195.091C96.378 195.091 96.573 195.133 96.7507 195.218C96.9305 195.302 97.0735 195.434 97.1797 195.614C97.288 195.792 97.3422 196.021 97.3422 196.303V198.5H96.7409V196.361C96.7409 196.099 96.6716 195.905 96.5329 195.78C96.3964 195.652 96.2188 195.588 95.9999 195.588C95.8483 195.588 95.7064 195.613 95.5742 195.663C95.442 195.71 95.3348 195.784 95.2524 195.884C95.1701 195.981 95.1289 196.105 95.1289 196.254V198.5H94.5309ZM99.831 195.578H99.0738V197.668C99.0738 197.848 99.1019 197.958 99.1583 197.999C99.2168 198.038 99.3251 198.058 99.4833 198.058H99.8505V198.461C99.8072 198.476 99.7444 198.489 99.662 198.5C99.5797 198.511 99.4768 198.516 99.3533 198.516C99.0044 198.516 98.7694 198.446 98.648 198.305C98.5289 198.164 98.4693 197.958 98.4693 197.688V195.578H97.9233V195.139H98.4855L98.6318 194.161H99.0738V195.136H99.831V195.578ZM102.856 193.804V194.428H102.241V193.804H102.856ZM102.843 195.139V198.5H102.261V195.139H102.843ZM105.093 198.565C104.857 198.565 104.639 198.528 104.44 198.454C104.24 198.381 104.073 198.268 103.939 198.116C103.807 197.963 103.725 197.764 103.692 197.522H104.238C104.281 197.719 104.38 197.867 104.534 197.967C104.69 198.067 104.875 198.116 105.09 198.116C105.315 198.116 105.497 198.074 105.636 197.99C105.774 197.905 105.844 197.775 105.844 197.6C105.844 197.364 105.695 197.21 105.398 197.138L104.703 196.966C104.43 196.901 104.212 196.799 104.05 196.66C103.889 196.522 103.809 196.328 103.809 196.079C103.807 195.784 103.913 195.544 104.128 195.357C104.342 195.169 104.663 195.074 105.09 195.074C105.454 195.074 105.747 195.157 105.97 195.321C106.196 195.486 106.313 195.726 106.321 196.04H105.792C105.768 195.879 105.695 195.753 105.574 195.659C105.452 195.564 105.289 195.516 105.083 195.516C104.869 195.516 104.694 195.56 104.56 195.646C104.425 195.731 104.358 195.863 104.358 196.043C104.358 196.162 104.406 196.256 104.501 196.326C104.597 196.393 104.737 196.449 104.924 196.495L105.597 196.664C105.802 196.718 105.963 196.795 106.078 196.894C106.192 196.994 106.273 197.104 106.318 197.223C106.364 197.342 106.386 197.457 106.386 197.567C106.386 197.877 106.273 198.121 106.045 198.298C105.818 198.476 105.5 198.565 105.093 198.565ZM112.393 196.709C112.393 197.088 112.331 197.418 112.208 197.697C112.084 197.975 111.884 198.189 111.607 198.341C111.332 198.49 110.966 198.565 110.511 198.565C110.054 198.565 109.688 198.489 109.413 198.337C109.138 198.184 108.938 197.966 108.815 197.684C108.694 197.403 108.633 197.067 108.633 196.677V193.8H109.598V196.748C109.598 197.099 109.683 197.356 109.852 197.518C110.021 197.679 110.241 197.759 110.511 197.759C110.782 197.759 111.003 197.679 111.174 197.518C111.348 197.358 111.434 197.101 111.434 196.748V193.8H112.393V196.709ZM115.101 198.565C114.869 198.565 114.642 198.536 114.419 198.477C114.196 198.419 113.991 198.331 113.805 198.214C113.62 198.097 113.469 197.951 113.35 197.775C113.23 197.6 113.159 197.394 113.135 197.158H114.107C114.154 197.37 114.267 197.534 114.445 197.648C114.625 197.763 114.842 197.821 115.098 197.821C115.356 197.821 115.578 197.772 115.764 197.674C115.953 197.577 116.047 197.429 116.047 197.229C116.047 197.052 115.971 196.919 115.82 196.833C115.668 196.746 115.478 196.68 115.251 196.634L114.438 196.469C114.083 196.402 113.801 196.261 113.593 196.046C113.385 195.832 113.278 195.544 113.272 195.182C113.269 194.887 113.347 194.632 113.506 194.418C113.666 194.201 113.883 194.034 114.156 193.917C114.431 193.8 114.738 193.742 115.079 193.742C115.484 193.742 115.824 193.806 116.099 193.934C116.376 194.059 116.587 194.231 116.73 194.447C116.875 194.662 116.949 194.901 116.954 195.165H116.002C115.976 194.918 115.879 194.745 115.712 194.645C115.545 194.546 115.34 194.496 115.095 194.496C114.841 194.496 114.64 194.55 114.49 194.658C114.341 194.765 114.266 194.902 114.266 195.071C114.266 195.208 114.31 195.318 114.399 195.403C114.49 195.487 114.661 195.557 114.913 195.611L115.719 195.776C116.005 195.833 116.233 195.916 116.405 196.027C116.576 196.137 116.704 196.262 116.788 196.4C116.875 196.539 116.931 196.681 116.957 196.826C116.985 196.969 116.999 197.101 116.999 197.223C116.999 197.476 116.92 197.705 116.762 197.908C116.604 198.11 116.382 198.27 116.096 198.389C115.812 198.507 115.48 198.565 115.101 198.565ZM120.586 193.128H121.408V193.774C121.681 193.822 121.915 193.912 122.11 194.044C122.307 194.176 122.458 194.338 122.562 194.528C122.668 194.719 122.719 194.926 122.715 195.149L121.756 195.165C121.726 194.957 121.656 194.794 121.548 194.675C121.44 194.556 121.26 194.496 121.008 194.496C120.751 194.496 120.547 194.55 120.397 194.658C120.248 194.765 120.173 194.902 120.173 195.071C120.173 195.208 120.219 195.316 120.31 195.396C120.403 195.474 120.577 195.547 120.833 195.614L121.59 195.799C122.017 195.901 122.325 196.077 122.513 196.326C122.704 196.573 122.799 196.872 122.799 197.223C122.799 197.578 122.672 197.873 122.419 198.107C122.165 198.339 121.822 198.483 121.389 198.539V199.121H120.57V198.542C120.125 198.49 119.766 198.353 119.491 198.129C119.218 197.906 119.059 197.589 119.016 197.177L120.004 197.158C120.054 197.372 120.166 197.536 120.339 197.648C120.512 197.759 120.729 197.814 120.989 197.814C121.223 197.814 121.415 197.759 121.564 197.648C121.716 197.538 121.792 197.398 121.792 197.229C121.792 197.056 121.736 196.927 121.626 196.842C121.515 196.756 121.345 196.686 121.116 196.634L120.345 196.469C119.986 196.397 119.699 196.255 119.484 196.043C119.27 195.831 119.16 195.544 119.156 195.182C119.154 194.926 119.213 194.701 119.335 194.506C119.458 194.309 119.627 194.147 119.842 194.021C120.058 193.896 120.306 193.812 120.586 193.771V193.128ZM124.237 198.5V194.98H123.398V194.444C123.801 194.444 124.091 194.388 124.269 194.275C124.447 194.16 124.546 194.002 124.568 193.8H125.199V198.5H124.237ZM127.998 193.735C128.557 193.735 128.998 193.945 129.321 194.363C129.644 194.781 129.805 195.38 129.805 196.16C129.805 196.938 129.645 197.535 129.324 197.951C129.006 198.365 128.564 198.572 127.998 198.572C127.429 198.572 126.983 198.365 126.663 197.951C126.344 197.537 126.185 196.941 126.185 196.163C126.185 195.381 126.346 194.781 126.669 194.363C126.994 193.945 127.437 193.735 127.998 193.735ZM127.998 197.795C128.28 197.795 128.485 197.67 128.613 197.421C128.743 197.172 128.808 196.753 128.808 196.163C128.808 195.563 128.742 195.133 128.609 194.873C128.477 194.613 128.273 194.483 127.995 194.483C127.718 194.483 127.511 194.614 127.374 194.876C127.24 195.138 127.173 195.567 127.173 196.163C127.173 196.748 127.24 197.166 127.374 197.418C127.509 197.669 127.717 197.795 127.998 197.795ZM132.484 193.8H133.417V196.664H134.142V197.46H133.417V198.5H132.504L132.507 197.46H130.342V196.68L132.484 193.8ZM131.22 196.664H132.507V194.941L131.22 196.664ZM134.65 198.5V197.466H135.69V198.5H134.65ZM138.092 198.572C137.798 198.572 137.524 198.515 137.27 198.402C137.019 198.29 136.813 198.132 136.653 197.928C136.492 197.722 136.402 197.482 136.383 197.206H137.286C137.325 197.388 137.412 197.537 137.546 197.652C137.681 197.764 137.85 197.821 138.053 197.821C138.279 197.821 138.476 197.768 138.645 197.661C138.816 197.555 138.944 197.386 139.028 197.154C139.115 196.923 139.145 196.619 139.119 196.244C139.026 196.418 138.884 196.556 138.694 196.66C138.503 196.762 138.276 196.813 138.014 196.813C137.696 196.813 137.413 196.754 137.166 196.634C136.921 196.513 136.728 196.342 136.588 196.121C136.449 195.898 136.38 195.633 136.38 195.328C136.38 195.02 136.453 194.746 136.601 194.506C136.748 194.265 136.954 194.077 137.218 193.94C137.482 193.804 137.792 193.735 138.148 193.735C138.546 193.735 138.89 193.831 139.178 194.021C139.468 194.21 139.69 194.479 139.844 194.828C140 195.174 140.078 195.583 140.078 196.053C140.078 196.893 139.901 197.524 139.548 197.944C139.195 198.362 138.71 198.572 138.092 198.572ZM138.177 196.059C138.309 196.059 138.437 196.03 138.56 195.971C138.686 195.911 138.789 195.835 138.869 195.744C138.949 195.653 138.989 195.559 138.989 195.461C138.991 195.145 138.917 194.898 138.765 194.72C138.616 194.543 138.419 194.454 138.177 194.454C137.954 194.454 137.768 194.531 137.621 194.684C137.474 194.838 137.4 195.039 137.4 195.286C137.4 195.531 137.472 195.721 137.615 195.858C137.758 195.992 137.945 196.059 138.177 196.059ZM142.446 193.735C143.005 193.735 143.446 193.945 143.768 194.363C144.091 194.781 144.253 195.38 144.253 196.16C144.253 196.938 144.092 197.535 143.772 197.951C143.453 198.365 143.011 198.572 142.446 198.572C141.876 198.572 141.431 198.365 141.11 197.951C140.791 197.537 140.632 196.941 140.632 196.163C140.632 195.381 140.794 194.781 141.116 194.363C141.441 193.945 141.885 193.735 142.446 193.735ZM142.446 197.795C142.727 197.795 142.932 197.67 143.06 197.421C143.19 197.172 143.255 196.753 143.255 196.163C143.255 195.563 143.189 195.133 143.057 194.873C142.925 194.613 142.72 194.483 142.442 194.483C142.165 194.483 141.958 194.614 141.822 194.876C141.687 195.138 141.62 195.567 141.62 196.163C141.62 196.748 141.687 197.166 141.822 197.418C141.956 197.669 142.164 197.795 142.446 197.795ZM144.893 198.5V197.733H145.608V198.5H144.893Z" fill="#36536B"/>
</g>
</g>
<defs>
<filter id="filter0_d" x="0.55249" y="0.341797" width="315.765" height="459.317" filterUnits="userSpaceOnUse" color-interpolation-filters="sRGB">
<feFlood flood-opacity="0" result="BackgroundImageFix"/>
<feColorMatrix in="SourceAlpha" type="matrix" values="0 0 0 0 0 0 0 0 0 0 0 0 0 0 0 0 0 0 127 0" result="hardAlpha"/>
<feOffset dx="25" dy="25"/>
<feGaussianBlur stdDeviation="40"/>
<feColorMatrix type="matrix" values="0 0 0 0 0.211765 0 0 0 0 0.32549 0 0 0 0 0.419608 0 0 0 0.301961 0"/>
<feBlend mode="normal" in2="BackgroundImageFix" result="effect1_dropShadow"/>
<feBlend mode="normal" in="SourceGraphic" in2="effect1_dropShadow" result="shape"/>
</filter>
<filter id="filter1_d" x="61.8054" y="150" width="161.255" height="83.1915" filterUnits="userSpaceOnUse" color-interpolation-filters="sRGB">
<feFlood flood-opacity="0" result="BackgroundImageFix"/>
<feColorMatrix in="SourceAlpha" type="matrix" values="0 0 0 0 0 0 0 0 0 0 0 0 0 0 0 0 0 0 127 0" result="hardAlpha"/>
<feMorphology radius="10" operator="erode" in="SourceAlpha" result="effect1_dropShadow"/>
<feOffset dx="10" dy="10"/>
<feGaussianBlur stdDeviation="12.5"/>
<feColorMatrix type="matrix" values="0 0 0 0 0.211765 0 0 0 0 0.32549 0 0 0 0 0.419608 0 0 0 0.25098 0"/>
<feBlend mode="normal" in2="BackgroundImageFix" result="effect1_dropShadow"/>
<feBlend mode="normal" in="SourceGraphic" in2="effect1_dropShadow" result="shape"/>
</filter>
<linearGradient id="paint0_linear" x1="60.0546" y1="55" x2="60.0546" y2="62.3944" gradientUnits="userSpaceOnUse">
<stop stop-color="#454545"/>
<stop offset="0.226279" stop-color="#999999"/>
<stop offset="1" stop-color="white"/>
</linearGradient>
<linearGradient id="paint1_linear" x1="211.249" y1="106.448" x2="205.529" y2="106.448" gradientUnits="userSpaceOnUse">
<stop stop-color="white" stop-opacity="0.01"/>
<stop offset="0.222178" stop-color="#BABABA"/>
<stop offset="0.54678" stop-color="white" stop-opacity="0.01"/>
<stop offset="1" stop-color="white" stop-opacity="0.01"/>
</linearGradient>
<linearGradient id="paint2_linear" x1="55.5525" y1="106.292" x2="61.2814" y2="106.292" gradientUnits="userSpaceOnUse">
<stop stop-color="white" stop-opacity="0.01"/>
<stop offset="0.222178" stop-color="#BABABA"/>
<stop offset="0.54678" stop-color="white" stop-opacity="0.01"/>
<stop offset="1" stop-color="white" stop-opacity="0.01"/>
</linearGradient>
<linearGradient id="paint3_linear" x1="63.5489" y1="62" x2="63.5489" y2="338.828" gradientUnits="userSpaceOnUse">
<stop stop-color="#9CB6CD"/>
<stop offset="0.420564" stop-color="#9AB3CA"/>
<stop offset="0.716592" stop-color="#557496"/>
<stop offset="1" stop-color="#475178"/>
</linearGradient>
<clipPath id="clip0">
<rect width="132" height="54" fill="white" transform="translate(66.8054 155)"/>
</clipPath>
</defs>
</svg>
