<svg xmlns="http://www.w3.org/2000/svg" xmlns:xlink="http://www.w3.org/1999/xlink" width="364.612" height="479.453" viewBox="0 0 364.612 479.453">
  <defs>
    <filter id="body" x="0" y="0" width="364.612" height="479.453" filterUnits="userSpaceOnUse">
      <feOffset dx="25" dy="25" input="SourceAlpha"/>
      <feGaussianBlur stdDeviation="40" result="blur"/>
      <feFlood flood-color="#36536b" flood-opacity="0.302"/>
      <feComposite operator="in" in2="blur"/>
      <feComposite in="SourceGraphic"/>
    </filter>
    <linearGradient id="linear-gradient" x1="0.5" x2="0.5" y2="1" gradientUnits="objectBoundingBox">
      <stop offset="0" stop-color="#454545" stop-opacity="0.651"/>
      <stop offset="0.226" stop-color="#999" stop-opacity="0.651"/>
      <stop offset="1" stop-color="#fff" stop-opacity="0.651"/>
    </linearGradient>
    <linearGradient id="linear-gradient-2" x1="1" y1="0.5" x2="0.307" y2="0.5" gradientUnits="objectBoundingBox">
      <stop offset="0" stop-color="#fff" stop-opacity="0"/>
      <stop offset="0.222" stop-color="#bababa"/>
      <stop offset="0.547" stop-color="#fff" stop-opacity="0"/>
      <stop offset="1" stop-color="#fff" stop-opacity="0"/>
    </linearGradient>
    <linearGradient id="linear-gradient-3" x1="0" x2="0.694" xlink:href="#linear-gradient-2"/>
    <clipPath id="clip-path">
      <path id="Screen_Mask" data-name="Screen Mask" d="M45.271,0H9.284C3.913,0,0,3.63,0,8.372V211.119c0,6.182,6.047,11.66,12.884,11.66H99.619c6.586,0,12.884-5.52,12.884-11.66V8.92c0-5.683-4.251-8.886-9.284-8.92H66.661A6.914,6.914,0,0,0,62.95,3.63c-1.061,2.583-3.2,4.642-5.535,4.642H54.7c-1.111,0-4.037-1.07-5.519-4.642S45.409.023,45.271,0Z" fill="#fff"/>
    </clipPath>
    <linearGradient id="linear-gradient-4" x1="0.5" x2="0.5" y2="0.992" gradientUnits="objectBoundingBox">
      <stop offset="0" stop-color="#9cb6cd"/>
      <stop offset="0.421" stop-color="#9ab3ca"/>
      <stop offset="0.717" stop-color="#557496"/>
      <stop offset="1" stop-color="#475178"/>
    </linearGradient>
    <filter id="Rectangle" x="76.502" y="147.227" width="180.004" height="117.553" filterUnits="userSpaceOnUse">
      <feOffset dx="10" dy="10" input="SourceAlpha"/>
      <feGaussianBlur stdDeviation="12.5" result="blur-2"/>
      <feFlood flood-color="#36536b" flood-opacity="0.251"/>
      <feComposite operator="in" in2="blur-2"/>
      <feComposite in="SourceGraphic"/>
    </filter>
  </defs>
  <g id="Group_30" data-name="Group 30" transform="translate(93.758 94.727)">
    <g id="Group_2" data-name="Group 2">
      <g id="iPhone-X-Mockup">
        <g id="phone">
          <g transform="matrix(1, 0, 0, 1, -93.76, -94.73)" filter="url(#body)">
            <path id="body-2" data-name="body" d="M16.061,0h92.49c8.87,0,16.061,6.833,16.061,15.262v208.93c0,8.429-7.191,15.262-16.061,15.262H16.061C7.191,239.453,0,232.62,0,224.191V15.262C0,6.833,7.191,0,16.061,0Z" transform="translate(95 95)" fill="#213648"/>
          </g>
          <g id="frame" transform="translate(1.242)">
            <path id="reflect-frame-top" d="M105.307,0H12.047Q5.516.4,0,5.915a18.756,18.756,0,0,1,12.159-4.79h93.036a18.756,18.756,0,0,1,12.159,4.79Q111.838.4,105.307,0Z" transform="translate(3.602)" opacity="0.596" fill="url(#linear-gradient)"/>
            <path id="reflect-frame-right" d="M4.134,215.6V10.312c0-5.508-2.04-7.544-3.257-8.852S-.391-.514,1.358.473,6.6,4.336,6.6,10.312V215.6c0,5.977-3.5,8.852-5.245,9.839s-1.7.32-.48-.987S4.134,221.111,4.134,215.6Z" transform="translate(117.954 6.479)" opacity="0.75" fill="url(#linear-gradient-2)"/>
            <path id="reflect-frame-left" d="M-4.134,215.6V10.312c0-5.508,2.04-7.544,3.257-8.852S.391-.514-1.358.473-6.6,4.336-6.6,10.312V215.6c0,5.977,3.5,8.852,5.245,9.839s1.7.32.48-.987S-4.134,221.111-4.134,215.6Z" transform="translate(6.603 6.479)" opacity="0.75" fill="url(#linear-gradient-3)"/>
          </g>
          <g id="controls" transform="translate(0 48.656)">
            <rect id="vol_" data-name="vol+" width="2.401" height="30.888" rx="1.201" transform="translate(0 0.091)" fill="#2e423c"/>
            <rect id="power" width="2.401" height="22.536" rx="1.201" transform="translate(124.557 25.285)" fill="#2e423c"/>
          </g>
        </g>
        <g id="Screen" transform="translate(7.291 5.973)">
          <path id="Screen_Mask-2" data-name="Screen Mask" d="M45.271,0H9.284C3.913,0,0,3.63,0,8.372V211.119c0,6.182,6.047,11.66,12.884,11.66H99.619c6.586,0,12.884-5.52,12.884-11.66V8.92c0-5.683-4.251-8.886-9.284-8.92H66.661A6.914,6.914,0,0,0,62.95,3.63c-1.061,2.583-3.2,4.642-5.535,4.642H54.7c-1.111,0-4.037-1.07-5.519-4.642S45.409.023,45.271,0Z" fill="#fff"/>
          <g id="Screen-2" data-name="Screen" clip-path="url(#clip-path)">
            <rect id="Rectangle-2" data-name="Rectangle" width="113" height="223" transform="translate(-0.291 0.027)" fill="url(#linear-gradient-4)"/>
            <path id="_12:49" data-name="12:49" d="M32.95,11.029A3.806,3.806,0,0,1,31.472,9.9a3.034,3.034,0,0,1-.643-1.7h2.152a1.778,1.778,0,0,0,1.826,1.451,2.624,2.624,0,0,0,1.412-.376,2.28,2.28,0,0,0,.914-1.2,5.229,5.229,0,0,0,.212-2.15,2.26,2.26,0,0,1-.6.71,2.836,2.836,0,0,1-.894.469,3.7,3.7,0,0,1-1.138.165A4.557,4.557,0,0,1,32.7,6.846a3.292,3.292,0,0,1-1.378-1.213,3.424,3.424,0,0,1-.5-1.87,3.632,3.632,0,0,1,.526-1.943A3.635,3.635,0,0,1,32.819.484,4.784,4.784,0,0,1,35.032,0a4.4,4.4,0,0,1,2.457.672,4.31,4.31,0,0,1,1.587,1.9,7.026,7.026,0,0,1,.553,2.9,8.429,8.429,0,0,1-.569,3.314,4.188,4.188,0,0,1-1.629,1.982,4.716,4.716,0,0,1-2.531.657A4.777,4.777,0,0,1,32.95,11.029Zm-7.181.23L25.777,8.8H20.623V6.958l5.1-6.8h2.22V6.92h1.726V8.8H27.943v2.458Zm-18.936,0V9.585a3.167,3.167,0,0,1,.318-1.463,3.6,3.6,0,0,1,.84-1.076,6.619,6.619,0,0,1,1.145-.8q.624-.346,1.25-.653t1.149-.618a3.174,3.174,0,0,0,.84-.695,1.377,1.377,0,0,0,.317-.906,1.4,1.4,0,0,0-.468-1.091,1.845,1.845,0,0,0-1.281-.422,2.178,2.178,0,0,0-1.432.484A2.208,2.208,0,0,0,8.783,3.8H6.624a3.993,3.993,0,0,1,.5-1.924A3.437,3.437,0,0,1,8.574.507,5.205,5.205,0,0,1,11,0a5.1,5.1,0,0,1,2.163.422,3.288,3.288,0,0,1,1.4,1.175,3.124,3.124,0,0,1,.5,1.759,3.143,3.143,0,0,1-.31,1.444,3.279,3.279,0,0,1-.821,1.037,6.263,6.263,0,0,1-1.121.753q-.612.323-1.22.6t-1.118.564a3.035,3.035,0,0,0-.82.649,1.287,1.287,0,0,0-.31.869v.1h5.7v1.889ZM2,11.259V2.941H0V1.674a5.49,5.49,0,0,0,1.552-.18A1.84,1.84,0,0,0,2.437.971,1.477,1.477,0,0,0,2.786.154h1.5V11.259Zm14.557-.046v-2.4h2.476v2.4Zm0-5.3V3.51h2.476v2.4Z" transform="translate(36.42 49.968)" fill="#fff"/>
          </g>
        </g>
      </g>
    </g>
    <g id="Group_29" data-name="Group 29" transform="translate(10.244 80)">
      <g id="Rectangle-3" data-name="Rectangle">
        <g transform="matrix(1, 0, 0, 1, -104, -174.73)" filter="url(#Rectangle)">
          <rect id="Rectangle-4" data-name="Rectangle" width="105.004" height="42.553" rx="2" transform="translate(104 174.73)" fill="#fbfcfe"/>
        </g>
        <rect id="Rectangle-5" data-name="Rectangle" width="105.004" height="42.553" rx="2" transform="translate(0)" fill="none"/>
        <rect id="Rectangle-6" data-name="Rectangle" width="105.004" height="42.553" rx="2" transform="translate(0)" fill="none"/>
      </g>
      <text id="The_payment_has_been" data-name="The payment has been" transform="translate(7.756 16.5)" fill="#36536b" font-size="5" font-family="PublicSans-ExtraLight, Public Sans" font-weight="200"><tspan x="0" y="5">The payment has been processed. The </tspan><tspan x="0" y="12">total amount deducted from your </tspan><tspan x="0" y="19">account is US $104.90.</tspan></text>
      <g id="Group_28" data-name="Group 28" transform="translate(7.707 8.677)">
        <path id="YourApp" d="M18.431,4.324V1.008h.706l0,.364a.761.761,0,0,1,.136-.165.962.962,0,0,1,.179-.13.9.9,0,0,1,.214-.087.979.979,0,0,1,.244-.031.892.892,0,0,1,.493.139.913.913,0,0,1,.341.426,1.847,1.847,0,0,1,.124.73,1.834,1.834,0,0,1-.134.754.951.951,0,0,1-.367.437,1,1,0,0,1-.527.142.766.766,0,0,1-.226-.033.822.822,0,0,1-.2-.092.865.865,0,0,1-.161-.136,1.034,1.034,0,0,1-.124-.167V4.324Zm-2.907,0V1.008h.706l0,.364a.761.761,0,0,1,.136-.165.962.962,0,0,1,.179-.13.906.906,0,0,1,.215-.087.966.966,0,0,1,.243-.031A.892.892,0,0,1,17.5,1.1a.913.913,0,0,1,.341.426,1.847,1.847,0,0,1,.124.73,1.834,1.834,0,0,1-.134.754.951.951,0,0,1-.367.437,1,1,0,0,1-.527.142.766.766,0,0,1-.226-.033.816.816,0,0,1-.2-.092.843.843,0,0,1-.162-.136.979.979,0,0,1-.123-.167V4.324ZM6.788,3.532a.993.993,0,0,1-.3-.159.8.8,0,0,1-.22-.259.735.735,0,0,1-.084-.357V1.008h.7V2.666A.391.391,0,0,0,7,2.955a.452.452,0,0,0,.332.113.477.477,0,0,0,.329-.109.389.389,0,0,0,.122-.305V1.008h.7V3.536h-.53l-.082-.5a.605.605,0,0,1-.435.5,1.037,1.037,0,0,1-.3.046A1.1,1.1,0,0,1,6.788,3.532ZM3.9,3.426a1.071,1.071,0,0,1-.418-.45,1.5,1.5,0,0,1-.148-.689,1.546,1.546,0,0,1,.148-.7A1.109,1.109,0,0,1,3.9,1.125a1.2,1.2,0,0,1,.64-.166,1.208,1.208,0,0,1,.638.163,1.08,1.08,0,0,1,.417.461,1.576,1.576,0,0,1,.147.7A1.512,1.512,0,0,1,5.6,2.96a1.09,1.09,0,0,1-.412.459,1.21,1.21,0,0,1-.649.167A1.236,1.236,0,0,1,3.9,3.426Zm10.488.11-.284-.819H12.854l-.292.819h-.706L13.1,0h.742L15.09,3.536Zm-5.344,0V1.008h.677v.6a1.1,1.1,0,0,1,.169-.338.8.8,0,0,1,.266-.228.759.759,0,0,1,.354-.082c.023,0,.044,0,.064,0a.164.164,0,0,1,.045.011v.68a.165.165,0,0,0-.052-.013l-.054,0a1.306,1.306,0,0,0-.354.012.563.563,0,0,0-.238.1.4.4,0,0,0-.132.174.6.6,0,0,0-.041.23V3.536Zm-7.837,0V2.047L0,0H.761l.8,1.433L2.355,0h.769L1.913,2.049V3.536Z" transform="translate(0.046 0.015)" fill="#ba4270"/>
        <path id="JustNow" d="M2.955,3.586a1.285,1.285,0,0,1-.367-.058.925.925,0,0,1-.3-.163A.769.769,0,0,1,2.075,3.1.861.861,0,0,1,2,2.724V1.008h.446V2.678a.552.552,0,0,0,.15.4.61.61,0,0,0,.454.154.653.653,0,0,0,.442-.145.546.546,0,0,0,.167-.435V1.008H4.1V3.536H3.748L3.7,3.052a.673.673,0,0,1-.156.309.658.658,0,0,1-.262.172.936.936,0,0,1-.321.053ZM14.33,3.434a1,1,0,0,1-.4-.441,1.6,1.6,0,0,1-.142-.712,1.7,1.7,0,0,1,.132-.694,1.033,1.033,0,0,1,.389-.464,1.122,1.122,0,0,1,.623-.166,1.141,1.141,0,0,1,.6.153,1,1,0,0,1,.393.449,1.672,1.672,0,0,1,.14.721,1.675,1.675,0,0,1-.13.68,1.025,1.025,0,0,1-.38.458,1.115,1.115,0,0,1-.623.166A1.168,1.168,0,0,1,14.33,3.434ZM5.2,3.5a.832.832,0,0,1-.555-.7h.4a.528.528,0,0,0,.342.4.812.812,0,0,0,.289.05.765.765,0,0,0,.4-.1.321.321,0,0,0,.155-.293.309.309,0,0,0-.081-.224.488.488,0,0,0-.249-.123l-.516-.13a1.14,1.14,0,0,1-.482-.23.547.547,0,0,1-.18-.437.7.7,0,0,1,.1-.391.711.711,0,0,1,.318-.266,1.249,1.249,0,0,1,.527-.1,1.073,1.073,0,0,1,.653.184.656.656,0,0,1,.259.542H6.2a.42.42,0,0,0-.16-.287.576.576,0,0,0-.365-.106.706.706,0,0,0-.388.1.332.332,0,0,0-.149.3.246.246,0,0,0,.106.212.91.91,0,0,0,.312.129l.5.127a.932.932,0,0,1,.285.122.683.683,0,0,1,.178.168.607.607,0,0,1,.095.194.768.768,0,0,1,.028.194.693.693,0,0,1-.115.4.736.736,0,0,1-.327.259,1.306,1.306,0,0,1-.517.092A1.4,1.4,0,0,1,5.2,3.5ZM.215,3.542A2.036,2.036,0,0,1,0,3.475l.032-.433c.049.018.107.04.172.068a.633.633,0,0,0,.242.04A.36.36,0,0,0,.77,3.018a.839.839,0,0,0,.088-.445V0H1.3V2.7a1.612,1.612,0,0,1-.063.479.534.534,0,0,1-.222.3.835.835,0,0,1-.454.1A1.357,1.357,0,0,1,.215,3.542Zm7.591-.064a.4.4,0,0,1-.2-.211.909.909,0,0,1-.057-.342V1.337h-.4V1.008h.416L7.671.272H8v.734h.561v.332H8V2.911a.505.505,0,0,0,.028.2.133.133,0,0,0,.094.08A.79.79,0,0,0,8.3,3.2h.272v.3a.721.721,0,0,1-.139.029,1.788,1.788,0,0,1-.229.013A.9.9,0,0,1,7.806,3.478Zm10.926.059L18.164,1.67l-.539,1.866h-.437L16.42,1.008h.411L17.4,2.952h.039L18,1.008h.337l.583,1.939h.039l.546-1.939h.417l-.753,2.528Zm-6.016,0L10.847.748V3.536H10.4V0h.427l1.84,2.749V0h.446V3.536Z" transform="translate(69.584 0.015)" fill="#36536b" opacity="0.5"/>
      </g>
    </g>
  </g>
</svg>
