<svg width="722" height="660" viewBox="0 0 722 660" fill="none" xmlns="http://www.w3.org/2000/svg">
<g filter="url(#filter0_d)">
<path fill-rule="evenodd" clip-rule="evenodd" d="M391.776 55.5695H583.009C601.35 55.5695 616.217 69.8048 616.217 87.365V522.635C616.217 540.195 601.35 554.431 583.009 554.431H391.776C373.436 554.431 358.568 540.195 358.568 522.635V87.365C358.568 69.8048 373.436 55.5695 391.776 55.5695Z" fill="#213648"/>
</g>
<path opacity="0.595562" fill-rule="evenodd" clip-rule="evenodd" d="M583.749 55H390.923C381.92 55.549 373.617 59.6569 366.015 67.3239C370.904 63.0559 379.625 57.3446 391.155 57.3446C391.155 57.3446 575.83 57.3446 583.517 57.3446C595.046 57.3446 603.767 63.0559 608.656 67.3239C601.054 59.6569 592.751 55.549 583.749 55Z" fill="url(#paint0_linear)" fill-opacity="0.65"/>
<path opacity="0.75" fill-rule="evenodd" clip-rule="evenodd" d="M610.999 517.671V89.9818C610.999 78.5065 606.782 74.2644 604.266 71.5405C601.75 68.8165 601.643 67.4272 605.258 69.4838C608.873 71.5405 616.103 77.5305 616.103 89.9818V517.671C616.103 530.122 608.873 536.112 605.258 538.169C601.643 540.225 601.75 538.836 604.266 536.112C606.782 533.388 610.999 529.146 610.999 517.671Z" fill="url(#paint1_linear)"/>
<path opacity="0.75" fill-rule="evenodd" clip-rule="evenodd" d="M363.672 517.671V89.9818C363.672 78.5065 367.889 74.2644 370.405 71.5405C372.921 68.8165 373.028 67.4272 369.413 69.4838C365.798 71.5405 358.568 77.5305 358.568 89.9818V517.671C358.568 530.122 365.798 536.112 369.413 538.169C373.028 540.225 372.921 538.836 370.405 536.112C367.889 533.388 363.672 529.146 363.672 517.671Z" fill="url(#paint2_linear)"/>
<rect x="356" y="156.557" width="4.96454" height="64.3508" rx="2" fill="#2E423C"/>
<rect x="613.535" y="209.043" width="4.96454" height="46.95" rx="2" fill="#2E423C"/>
<path fill-rule="evenodd" clip-rule="evenodd" d="M464.676 67.4445L390.27 67.4445C379.165 67.4445 371.074 75.0078 371.074 84.8859V507.276C371.074 520.156 383.576 531.567 397.713 531.567H577.046C590.664 531.567 603.686 520.067 603.686 507.276V86.0276C603.686 74.188 594.896 67.5149 584.49 67.4445L508.904 67.4445C508.618 67.4914 503.425 69.6262 501.231 75.0078C499.036 80.3893 494.621 84.6793 489.787 84.6793H484.172C481.874 84.6793 475.824 82.4496 472.76 75.0078C469.697 67.5659 464.963 67.4914 464.676 67.4445Z" fill="#36536B"/>
<mask id="mask0" mask-type="alpha" maskUnits="userSpaceOnUse" x="371" y="67" width="233" height="465">
<path fill-rule="evenodd" clip-rule="evenodd" d="M464.676 67.4445L390.27 67.4445C379.165 67.4445 371.074 75.0078 371.074 84.8859V507.276C371.074 520.156 383.576 531.567 397.713 531.567H577.046C590.664 531.567 603.686 520.067 603.686 507.276V86.0276C603.686 74.188 594.896 67.5149 584.49 67.4445L508.904 67.4445C508.618 67.4914 503.425 69.6262 501.231 75.0078C499.036 80.3893 494.621 84.6793 489.787 84.6793H484.172C481.874 84.6793 475.824 82.4496 472.76 75.0078C469.697 67.5659 464.963 67.4914 464.676 67.4445Z" fill="white"/>
</mask>
<g mask="url(#mask0)">
</g>
<g filter="url(#filter1_d)">
<rect x="399" y="197" width="176" height="191" rx="5" fill="#FBFCFE"/>
</g>
<circle opacity="0.25" cx="486" cy="261" r="28" fill="#BA4270"/>
<path d="M477 262.696L481.577 267.273L494.85 254" stroke="#BA4270" stroke-width="3"/>
<rect x="422" y="373" width="131" height="30" rx="15" fill="#BA4270"/>
<path d="M468.574 384.047C468.614 384.047 468.726 384.047 468.909 384.047C469.096 384.047 469.314 384.047 469.564 384.047C469.817 384.047 470.068 384.049 470.317 384.052C470.57 384.052 470.781 384.054 470.95 384.058C471.914 384.08 472.7 384.252 473.309 384.575C473.918 384.898 474.363 385.349 474.646 385.928C474.932 386.507 475.075 387.193 475.075 387.985C475.075 388.81 474.924 389.523 474.624 390.124C474.323 390.722 473.863 391.184 473.243 391.51C472.627 391.837 471.844 392 470.895 392H468.574V384.047ZM470.191 385.345V390.702H470.928C471.382 390.702 471.795 390.614 472.165 390.438C472.539 390.262 472.838 389.974 473.062 389.574C473.285 389.175 473.397 388.641 473.397 387.974C473.397 387.354 473.298 386.852 473.1 386.467C472.902 386.078 472.62 385.794 472.253 385.614C471.886 385.435 471.452 385.345 470.95 385.345H470.191ZM477.819 386.313V392H476.285V386.313H477.819ZM477.836 384.052V385.499H476.274V384.052H477.836ZM481.44 392.11C481.044 392.11 480.662 392.046 480.296 391.917C479.929 391.785 479.619 391.58 479.366 391.301C479.113 391.019 478.952 390.654 478.882 390.207H480.274C480.321 390.409 480.407 390.568 480.532 390.685C480.66 390.803 480.805 390.887 480.967 390.938C481.128 390.986 481.282 391.01 481.429 391.01C481.737 391.01 481.984 390.962 482.171 390.867C482.362 390.768 482.457 390.618 482.457 390.416C482.457 390.262 482.4 390.139 482.287 390.047C482.177 389.956 481.993 389.886 481.737 389.838L480.736 389.629C480.233 389.523 479.83 389.343 479.526 389.09C479.221 388.834 479.065 388.471 479.058 388.001C479.058 387.66 479.148 387.354 479.328 387.083C479.511 386.812 479.78 386.597 480.136 386.439C480.492 386.282 480.928 386.203 481.445 386.203C482.145 386.203 482.705 386.357 483.123 386.665C483.544 386.973 483.759 387.407 483.766 387.968H482.424C482.384 387.748 482.274 387.58 482.094 387.462C481.918 387.341 481.696 387.281 481.429 387.281C481.15 387.281 480.921 387.33 480.741 387.429C480.561 387.528 480.472 387.679 480.472 387.88C480.472 388.031 480.545 388.15 480.692 388.238C480.838 388.322 481.066 388.396 481.374 388.458L482.298 388.667C482.617 388.744 482.875 388.85 483.073 388.986C483.275 389.118 483.431 389.263 483.541 389.42C483.651 389.578 483.726 389.738 483.766 389.899C483.81 390.057 483.832 390.2 483.832 390.328C483.832 390.706 483.731 391.028 483.53 391.296C483.328 391.56 483.047 391.762 482.688 391.901C482.329 392.04 481.913 392.11 481.44 392.11ZM484.874 392V386.313H486.447V387.116C486.619 386.867 486.85 386.652 487.14 386.473C487.433 386.293 487.802 386.203 488.246 386.203C488.44 386.203 488.638 386.238 488.84 386.307C489.041 386.377 489.23 386.48 489.406 386.615C489.586 386.747 489.731 386.914 489.841 387.116C490.024 386.856 490.264 386.639 490.561 386.467C490.862 386.291 491.195 386.203 491.562 386.203C491.775 386.203 491.989 386.238 492.206 386.307C492.426 386.377 492.627 386.491 492.811 386.648C492.994 386.806 493.141 387.017 493.251 387.281C493.364 387.541 493.421 387.864 493.421 388.249V392H491.815V388.447C491.815 388.22 491.769 388.038 491.678 387.902C491.59 387.763 491.476 387.664 491.337 387.605C491.201 387.543 491.056 387.512 490.902 387.512C490.759 387.512 490.614 387.541 490.468 387.6C490.321 387.655 490.196 387.745 490.094 387.869C489.991 387.994 489.94 388.157 489.94 388.359V392H488.339V388.304C488.339 388.132 488.293 387.987 488.202 387.869C488.11 387.752 487.994 387.664 487.855 387.605C487.719 387.543 487.58 387.512 487.437 387.512C487.29 387.512 487.144 387.543 486.997 387.605C486.85 387.664 486.728 387.758 486.629 387.886C486.53 388.011 486.48 388.168 486.48 388.359V392H484.874ZM496.257 386.313V392H494.722V386.313H496.257ZM496.273 384.052V385.499H494.711V384.052H496.273ZM499.877 392.11C499.481 392.11 499.1 392.046 498.733 391.917C498.366 391.785 498.057 391.58 497.804 391.301C497.551 391.019 497.389 390.654 497.32 390.207H498.711C498.759 390.409 498.845 390.568 498.97 390.685C499.098 390.803 499.243 390.887 499.404 390.938C499.565 390.986 499.719 391.01 499.866 391.01C500.174 391.01 500.422 390.962 500.609 390.867C500.799 390.768 500.895 390.618 500.895 390.416C500.895 390.262 500.838 390.139 500.724 390.047C500.614 389.956 500.431 389.886 500.174 389.838L499.173 389.629C498.671 389.523 498.267 389.343 497.963 389.09C497.659 388.834 497.503 388.471 497.496 388.001C497.496 387.66 497.585 387.354 497.765 387.083C497.948 386.812 498.218 386.597 498.574 386.439C498.929 386.282 499.366 386.203 499.883 386.203C500.583 386.203 501.142 386.357 501.56 386.665C501.982 386.973 502.196 387.407 502.204 387.968H500.862C500.821 387.748 500.711 387.58 500.532 387.462C500.356 387.341 500.134 387.281 499.866 387.281C499.587 387.281 499.358 387.33 499.179 387.429C498.999 387.528 498.909 387.679 498.909 387.88C498.909 388.031 498.982 388.15 499.129 388.238C499.276 388.322 499.503 388.396 499.811 388.458L500.735 388.667C501.054 388.744 501.313 388.85 501.511 388.986C501.712 389.118 501.868 389.263 501.978 389.42C502.088 389.578 502.163 389.738 502.204 389.899C502.248 390.057 502.27 390.2 502.27 390.328C502.27 390.706 502.169 391.028 501.967 391.296C501.765 391.56 501.485 391.762 501.126 391.901C500.766 392.04 500.35 392.11 499.877 392.11ZM505.486 392.11C505.09 392.11 504.709 392.046 504.342 391.917C503.975 391.785 503.665 391.58 503.412 391.301C503.159 391.019 502.998 390.654 502.928 390.207H504.32C504.368 390.409 504.454 390.568 504.578 390.685C504.707 390.803 504.852 390.887 505.013 390.938C505.174 390.986 505.328 391.01 505.475 391.01C505.783 391.01 506.03 390.962 506.217 390.867C506.408 390.768 506.503 390.618 506.503 390.416C506.503 390.262 506.447 390.139 506.333 390.047C506.223 389.956 506.04 389.886 505.783 389.838L504.782 389.629C504.28 389.523 503.876 389.343 503.572 389.09C503.268 388.834 503.112 388.471 503.104 388.001C503.104 387.66 503.194 387.354 503.374 387.083C503.557 386.812 503.827 386.597 504.182 386.439C504.538 386.282 504.974 386.203 505.491 386.203C506.192 386.203 506.751 386.357 507.169 386.665C507.591 386.973 507.805 387.407 507.812 387.968H506.47C506.43 387.748 506.32 387.58 506.14 387.462C505.964 387.341 505.743 387.281 505.475 387.281C505.196 387.281 504.967 387.33 504.787 387.429C504.608 387.528 504.518 387.679 504.518 387.88C504.518 388.031 504.591 388.15 504.738 388.238C504.885 388.322 505.112 388.396 505.42 388.458L506.344 388.667C506.663 388.744 506.921 388.85 507.119 388.986C507.321 389.118 507.477 389.263 507.587 389.42C507.697 389.578 507.772 389.738 507.812 389.899C507.856 390.057 507.878 390.2 507.878 390.328C507.878 390.706 507.778 391.028 507.576 391.296C507.374 391.56 507.094 391.762 506.734 391.901C506.375 392.04 505.959 392.11 505.486 392.11Z" fill="#FBFCFE"/>
<g filter="url(#filter2_d)">
<path fill-rule="evenodd" clip-rule="evenodd" d="M88.7761 55.5695H280.009C298.35 55.5695 313.217 69.8048 313.217 87.365V522.635C313.217 540.195 298.35 554.431 280.009 554.431H88.7761C70.4358 554.431 55.568 540.195 55.568 522.635V87.365C55.568 69.8048 70.4358 55.5695 88.7761 55.5695Z" fill="#213648"/>
</g>
<path opacity="0.595562" fill-rule="evenodd" clip-rule="evenodd" d="M280.749 55H87.9227C78.9202 55.549 70.6175 59.6569 63.0148 67.3239C67.9042 63.0559 76.625 57.3446 88.1547 57.3446C88.1547 57.3446 272.83 57.3446 280.517 57.3446C292.046 57.3446 300.767 63.0559 305.657 67.3239C298.054 59.6569 289.751 55.549 280.749 55Z" fill="url(#paint3_linear)" fill-opacity="0.65"/>
<path opacity="0.75" fill-rule="evenodd" clip-rule="evenodd" d="M307.999 517.671V89.9818C307.999 78.5065 303.782 74.2644 301.266 71.5405C298.75 68.8165 298.643 67.4272 302.258 69.4838C305.873 71.5405 313.103 77.5305 313.103 89.9818V517.671C313.103 530.122 305.873 536.112 302.258 538.169C298.643 540.225 298.75 538.836 301.266 536.112C303.782 533.388 307.999 529.146 307.999 517.671Z" fill="url(#paint4_linear)"/>
<path opacity="0.75" fill-rule="evenodd" clip-rule="evenodd" d="M60.672 517.671V89.9818C60.672 78.5065 64.8894 74.2644 67.4053 71.5405C69.9212 68.8165 70.0283 67.4272 66.4134 69.4838C62.7984 71.5405 55.568 77.5305 55.568 89.9818V517.671C55.568 530.122 62.7984 536.112 66.4134 538.169C70.0283 540.225 69.9212 538.836 67.4053 536.112C64.8894 533.388 60.672 529.146 60.672 517.671Z" fill="url(#paint5_linear)"/>
<rect x="53" y="156.557" width="4.96454" height="64.3508" rx="2" fill="#2E423C"/>
<rect x="310.535" y="209.043" width="4.96454" height="46.95" rx="2" fill="#2E423C"/>
<path fill-rule="evenodd" clip-rule="evenodd" d="M161.676 67.4445L87.2698 67.4445C76.1653 67.4445 68.0742 75.0078 68.0742 84.8859V507.276C68.0742 520.156 80.5765 531.567 94.7134 531.567H274.046C287.664 531.567 300.686 520.067 300.686 507.276V86.0276C300.686 74.188 291.896 67.5149 281.49 67.4445L205.904 67.4445C205.618 67.4914 200.425 69.6262 198.231 75.0078C196.036 80.3893 191.621 84.6793 186.787 84.6793H181.172C178.874 84.6793 172.824 82.4496 169.76 75.0078C166.697 67.5659 161.963 67.4914 161.676 67.4445Z" fill="#EDF3F8"/>
<mask id="mask1" mask-type="alpha" maskUnits="userSpaceOnUse" x="68" y="67" width="233" height="465">
<path fill-rule="evenodd" clip-rule="evenodd" d="M161.676 67.4445L87.2698 67.4445C76.1653 67.4445 68.0742 75.0078 68.0742 84.8859V507.276C68.0742 520.156 80.5765 531.567 94.7134 531.567H274.046C287.664 531.567 300.686 520.067 300.686 507.276V86.0276C300.686 74.188 291.896 67.5149 281.49 67.4445L205.904 67.4445C205.618 67.4914 200.425 69.6262 198.231 75.0078C196.036 80.3893 191.621 84.6793 186.787 84.6793H181.172C178.874 84.6793 172.824 82.4496 169.76 75.0078C166.697 67.5659 161.963 67.4914 161.676 67.4445Z" fill="white"/>
</mask>
<g mask="url(#mask1)">
<g filter="url(#filter3_d)">
<rect x="83" y="228" width="204" height="40" rx="5" fill="#FBFCFE"/>
</g>
<path d="M250.126 252.13C248.999 252.13 248.085 251.905 247.383 251.454C246.681 250.999 246.278 250.299 246.174 249.354L248.15 249.315C248.254 249.744 248.477 250.072 248.819 250.297C249.166 250.518 249.599 250.628 250.119 250.628C250.431 250.628 250.706 250.579 250.945 250.479C251.187 250.375 251.378 250.236 251.517 250.063C251.655 249.885 251.725 249.684 251.725 249.458C251.725 249.112 251.614 248.854 251.393 248.685C251.172 248.512 250.832 248.373 250.373 248.269L248.832 247.938C248.117 247.794 247.543 247.511 247.11 247.086C246.681 246.657 246.462 246.083 246.453 245.363C246.449 244.774 246.607 244.265 246.928 243.836C247.253 243.403 247.692 243.069 248.247 242.835C248.806 242.601 249.432 242.484 250.126 242.484C250.836 242.484 251.449 242.612 251.965 242.867C252.485 243.119 252.884 243.459 253.161 243.888C253.443 244.313 253.579 244.783 253.571 245.298L251.653 245.331C251.592 244.915 251.454 244.588 251.237 244.349C251.02 244.111 250.661 243.992 250.158 243.992C249.898 243.992 249.666 244.02 249.463 244.076C249.259 244.133 249.083 244.213 248.936 244.317C248.789 244.417 248.676 244.536 248.598 244.674C248.524 244.813 248.488 244.969 248.488 245.142C248.488 245.415 248.579 245.632 248.761 245.792C248.947 245.948 249.296 246.094 249.807 246.228L251.322 246.598C252.175 246.802 252.791 247.151 253.168 247.645C253.549 248.139 253.74 248.739 253.74 249.445C253.74 249.987 253.59 250.459 253.291 250.862C252.996 251.265 252.578 251.577 252.037 251.798C251.495 252.02 250.858 252.13 250.126 252.13ZM249.313 241.255H250.958V242.945H249.313V241.255ZM249.281 251.551H250.919V253.242H249.281V251.551ZM255.013 252V251.064V250.583C255.013 250.106 255.102 249.695 255.28 249.348C255.457 248.997 255.691 248.694 255.982 248.438C256.276 248.178 256.597 247.95 256.944 247.755C257.295 247.56 257.646 247.376 257.997 247.203C258.348 247.03 258.668 246.856 258.959 246.683C259.253 246.505 259.49 246.308 259.667 246.091C259.845 245.875 259.934 245.619 259.934 245.324C259.934 244.947 259.802 244.64 259.537 244.401C259.277 244.163 258.92 244.044 258.465 244.044C257.992 244.044 257.592 244.18 257.262 244.453C256.933 244.726 256.729 245.138 256.651 245.688H254.838C254.846 245.09 254.985 244.549 255.254 244.063C255.527 243.574 255.934 243.186 256.476 242.9C257.017 242.614 257.698 242.471 258.517 242.471C259.219 242.471 259.823 242.59 260.33 242.828C260.842 243.067 261.236 243.398 261.513 243.823C261.791 244.248 261.929 244.744 261.929 245.311C261.929 245.784 261.843 246.191 261.669 246.533C261.496 246.876 261.266 247.168 260.98 247.411C260.694 247.654 260.38 247.866 260.038 248.048C259.695 248.23 259.353 248.399 259.011 248.555C258.673 248.711 258.361 248.871 258.075 249.036C257.789 249.196 257.559 249.378 257.386 249.582C257.212 249.786 257.126 250.03 257.126 250.316V250.401H261.916V252H255.013ZM266.454 252.143C265.869 252.143 265.323 252.03 264.816 251.805C264.309 251.58 263.895 251.263 263.575 250.856C263.254 250.444 263.074 249.963 263.035 249.413H264.842C264.92 249.777 265.093 250.074 265.362 250.303C265.631 250.529 265.969 250.641 266.376 250.641C266.827 250.641 267.221 250.535 267.559 250.323C267.901 250.111 268.157 249.773 268.326 249.309C268.499 248.845 268.56 248.239 268.508 247.489C268.387 247.719 268.218 247.92 268.001 248.093C267.789 248.262 267.54 248.395 267.254 248.49C266.968 248.581 266.649 248.626 266.298 248.626C265.661 248.626 265.096 248.507 264.602 248.269C264.112 248.026 263.726 247.684 263.445 247.242C263.167 246.796 263.029 246.267 263.029 245.656C263.029 245.041 263.176 244.492 263.471 244.011C263.765 243.53 264.177 243.153 264.706 242.88C265.234 242.607 265.854 242.471 266.565 242.471C267.362 242.471 268.049 242.662 268.625 243.043C269.206 243.42 269.65 243.957 269.958 244.655C270.27 245.348 270.426 246.165 270.426 247.105C270.426 248.228 270.265 249.164 269.945 249.913C269.628 250.659 269.173 251.218 268.58 251.59C267.986 251.959 267.277 252.143 266.454 252.143ZM266.623 247.118C266.887 247.118 267.143 247.06 267.39 246.943C267.641 246.822 267.847 246.67 268.008 246.488C268.168 246.306 268.248 246.117 268.248 245.922C268.252 245.502 268.185 245.142 268.047 244.843C267.912 244.54 267.722 244.308 267.475 244.148C267.232 243.988 266.948 243.907 266.623 243.907C266.324 243.907 266.058 243.977 265.824 244.115C265.59 244.254 265.405 244.449 265.271 244.7C265.137 244.952 265.07 245.242 265.07 245.571C265.07 246.061 265.213 246.442 265.499 246.715C265.785 246.984 266.159 247.118 266.623 247.118Z" fill="#36536B"/>
<g filter="url(#filter4_d)">
<rect x="83" y="276" width="204" height="40" rx="5" fill="#FBFCFE"/>
</g>
<path d="M244.335 300.13C243.208 300.13 242.294 299.905 241.592 299.454C240.89 298.999 240.487 298.299 240.383 297.354L242.359 297.315C242.463 297.744 242.686 298.072 243.028 298.297C243.375 298.518 243.808 298.628 244.328 298.628C244.64 298.628 244.916 298.579 245.154 298.479C245.397 298.375 245.587 298.236 245.726 298.063C245.865 297.885 245.934 297.684 245.934 297.458C245.934 297.112 245.823 296.854 245.602 296.685C245.381 296.512 245.041 296.373 244.582 296.269L243.041 295.938C242.326 295.794 241.752 295.511 241.319 295.086C240.89 294.657 240.671 294.083 240.662 293.363C240.658 292.774 240.816 292.265 241.137 291.836C241.462 291.403 241.902 291.069 242.456 290.835C243.015 290.601 243.642 290.484 244.335 290.484C245.046 290.484 245.659 290.612 246.174 290.867C246.694 291.119 247.093 291.459 247.37 291.888C247.652 292.313 247.789 292.783 247.78 293.298L245.862 293.331C245.802 292.915 245.663 292.588 245.446 292.349C245.23 292.111 244.87 291.992 244.367 291.992C244.107 291.992 243.876 292.02 243.672 292.076C243.468 292.133 243.293 292.213 243.145 292.317C242.998 292.417 242.885 292.536 242.807 292.674C242.734 292.813 242.697 292.969 242.697 293.142C242.697 293.415 242.788 293.632 242.97 293.792C243.156 293.948 243.505 294.094 244.016 294.228L245.531 294.598C246.385 294.802 247 295.151 247.377 295.645C247.758 296.139 247.949 296.739 247.949 297.445C247.949 297.987 247.799 298.459 247.5 298.862C247.206 299.265 246.788 299.577 246.246 299.798C245.704 300.02 245.067 300.13 244.335 300.13ZM243.522 289.255H245.167V290.945H243.522V289.255ZM243.49 299.551H245.128V301.242H243.49V299.551ZM250.724 300V292.96H249.047V291.888C249.584 291.888 250.018 291.838 250.347 291.738C250.681 291.634 250.93 291.487 251.095 291.296C251.259 291.101 251.357 290.87 251.387 290.601H252.648V300H250.724ZM258.148 290.471C259.266 290.471 260.147 290.889 260.793 291.725C261.439 292.557 261.762 293.756 261.762 295.32C261.762 296.876 261.443 298.069 260.806 298.901C260.169 299.729 259.283 300.143 258.148 300.143C257.008 300.143 256.117 299.729 255.476 298.901C254.839 298.074 254.521 296.882 254.521 295.326C254.521 294.286 254.668 293.405 254.963 292.681C255.257 291.957 255.675 291.409 256.217 291.036C256.759 290.659 257.402 290.471 258.148 290.471ZM258.148 298.589C258.707 298.589 259.116 298.34 259.376 297.842C259.636 297.339 259.766 296.501 259.766 295.326C259.766 294.126 259.634 293.266 259.37 292.746C259.105 292.226 258.696 291.966 258.141 291.966C257.586 291.966 257.173 292.228 256.9 292.752C256.631 293.277 256.497 294.135 256.497 295.326C256.497 296.496 256.631 297.333 256.9 297.835C257.168 298.338 257.584 298.589 258.148 298.589ZM263.781 290.601H269.82L269.748 292.154H265.283L265.101 294.423C265.447 294.228 265.777 294.087 266.089 294C266.405 293.914 266.752 293.87 267.129 293.87C267.757 293.87 268.318 293.99 268.812 294.228C269.31 294.462 269.705 294.806 269.995 295.261C270.285 295.716 270.431 296.271 270.431 296.925C270.431 297.588 270.281 298.16 269.982 298.641C269.683 299.122 269.258 299.493 268.708 299.753C268.162 300.013 267.514 300.143 266.765 300.143C266.149 300.143 265.577 300.048 265.049 299.857C264.52 299.666 264.063 299.406 263.677 299.077C263.291 298.743 262.999 298.362 262.8 297.933L264.282 297.055C264.451 297.35 264.641 297.617 264.854 297.855C265.066 298.089 265.311 298.275 265.588 298.414C265.87 298.548 266.197 298.615 266.57 298.615C267.133 298.615 267.586 298.466 267.928 298.167C268.27 297.868 268.442 297.478 268.442 296.997C268.442 296.694 268.364 296.423 268.208 296.184C268.056 295.942 267.846 295.751 267.577 295.612C267.308 295.474 266.994 295.404 266.635 295.404C266.444 295.404 266.262 295.422 266.089 295.456C265.92 295.487 265.746 295.547 265.569 295.638C265.395 295.725 265.202 295.851 264.99 296.015C264.929 296.041 264.886 296.054 264.86 296.054C264.838 296.054 264.795 296.039 264.73 296.009L263.352 295.372L263.781 290.601Z" fill="#36536B"/>
<g filter="url(#filter5_d)">
<rect x="83" y="324" width="204" height="40" rx="5" fill="#FBFCFE"/>
</g>
<path d="M244.386 348.13C243.259 348.13 242.345 347.905 241.643 347.454C240.941 346.999 240.538 346.299 240.434 345.354L242.41 345.315C242.514 345.744 242.737 346.072 243.079 346.297C243.426 346.518 243.859 346.628 244.379 346.628C244.691 346.628 244.966 346.579 245.205 346.479C245.447 346.375 245.638 346.236 245.777 346.063C245.915 345.885 245.985 345.684 245.985 345.458C245.985 345.112 245.874 344.854 245.653 344.685C245.432 344.512 245.092 344.373 244.633 344.269L243.092 343.938C242.377 343.794 241.803 343.511 241.37 343.086C240.941 342.657 240.722 342.083 240.713 341.363C240.709 340.774 240.867 340.265 241.188 339.836C241.513 339.403 241.953 339.069 242.507 338.835C243.066 338.601 243.692 338.484 244.386 338.484C245.096 338.484 245.71 338.612 246.225 338.867C246.745 339.119 247.144 339.459 247.421 339.888C247.703 340.313 247.839 340.783 247.831 341.298L245.913 341.331C245.853 340.915 245.714 340.588 245.497 340.349C245.281 340.111 244.921 339.992 244.418 339.992C244.158 339.992 243.926 340.02 243.723 340.076C243.519 340.133 243.344 340.213 243.196 340.317C243.049 340.417 242.936 340.536 242.858 340.674C242.785 340.813 242.748 340.969 242.748 341.142C242.748 341.415 242.839 341.632 243.021 341.792C243.207 341.948 243.556 342.094 244.067 342.228L245.582 342.598C246.435 342.802 247.051 343.151 247.428 343.645C247.809 344.139 248 344.739 248 345.445C248 345.987 247.85 346.459 247.551 346.862C247.257 347.265 246.838 347.577 246.297 347.798C245.755 348.02 245.118 348.13 244.386 348.13ZM243.573 337.255H245.218V338.945H243.573V337.255ZM243.541 347.551H245.179V349.242H243.541V347.551ZM252.894 338.471C253.54 338.471 254.116 338.573 254.623 338.776C255.134 338.98 255.537 339.279 255.832 339.673C256.127 340.063 256.274 340.544 256.274 341.116C256.274 341.597 256.142 342.007 255.877 342.345C255.613 342.683 255.288 342.943 254.902 343.125C255.188 343.186 255.468 343.329 255.741 343.554C256.018 343.775 256.246 344.048 256.423 344.373C256.601 344.694 256.69 345.034 256.69 345.393C256.69 345.952 256.532 346.438 256.215 346.849C255.903 347.261 255.461 347.58 254.889 347.805C254.322 348.026 253.657 348.137 252.894 348.137C252.14 348.137 251.479 348.026 250.911 347.805C250.344 347.58 249.902 347.261 249.585 346.849C249.269 346.438 249.111 345.952 249.111 345.393C249.111 345.034 249.2 344.694 249.377 344.373C249.555 344.048 249.78 343.775 250.053 343.554C250.326 343.329 250.608 343.186 250.898 343.125C250.513 342.943 250.186 342.683 249.917 342.345C249.648 342.007 249.514 341.597 249.514 341.116C249.514 340.544 249.661 340.063 249.956 339.673C250.255 339.279 250.66 338.98 251.171 338.776C251.683 338.573 252.257 338.471 252.894 338.471ZM252.894 342.39C253.327 342.39 253.683 342.276 253.96 342.046C254.242 341.812 254.382 341.489 254.382 341.077C254.382 340.67 254.242 340.347 253.96 340.109C253.678 339.871 253.323 339.751 252.894 339.751C252.469 339.751 252.116 339.871 251.834 340.109C251.553 340.347 251.412 340.67 251.412 341.077C251.412 341.489 251.553 341.812 251.834 342.046C252.116 342.276 252.469 342.39 252.894 342.39ZM252.894 346.706C253.449 346.706 253.882 346.583 254.194 346.336C254.51 346.085 254.668 345.753 254.668 345.341C254.668 345.064 254.597 344.821 254.454 344.613C254.311 344.401 254.107 344.234 253.843 344.113C253.579 343.992 253.262 343.931 252.894 343.931C252.534 343.931 252.222 343.992 251.958 344.113C251.694 344.234 251.49 344.401 251.347 344.613C251.204 344.821 251.132 345.064 251.132 345.341C251.132 345.753 251.291 346.085 251.607 346.336C251.923 346.583 252.352 346.706 252.894 346.706ZM259.397 348V340.96H257.72V339.888C258.257 339.888 258.69 339.838 259.02 339.738C259.353 339.634 259.602 339.487 259.767 339.296C259.932 339.101 260.029 338.87 260.06 338.601H261.321V348H259.397ZM266.82 338.471C267.938 338.471 268.82 338.889 269.466 339.725C270.111 340.557 270.434 341.756 270.434 343.32C270.434 344.876 270.116 346.069 269.479 346.901C268.842 347.729 267.955 348.143 266.82 348.143C265.68 348.143 264.79 347.729 264.149 346.901C263.512 346.074 263.193 344.882 263.193 343.326C263.193 342.286 263.34 341.405 263.635 340.681C263.93 339.957 264.348 339.409 264.89 339.036C265.431 338.659 266.075 338.471 266.82 338.471ZM266.82 346.589C267.379 346.589 267.789 346.34 268.049 345.842C268.309 345.339 268.439 344.501 268.439 343.326C268.439 342.126 268.306 341.266 268.042 340.746C267.778 340.226 267.368 339.966 266.814 339.966C266.259 339.966 265.845 340.228 265.572 340.752C265.303 341.277 265.169 342.135 265.169 343.326C265.169 344.496 265.303 345.333 265.572 345.835C265.841 346.338 266.257 346.589 266.82 346.589Z" fill="#36536B"/>
<g filter="url(#filter6_d)">
<rect x="83" y="372" width="204" height="40" rx="5" fill="#FBFCFE"/>
</g>
<path d="M236.196 396.13C235.069 396.13 234.155 395.905 233.453 395.454C232.751 394.999 232.348 394.299 232.244 393.354L234.22 393.315C234.324 393.744 234.547 394.072 234.889 394.297C235.236 394.518 235.669 394.628 236.189 394.628C236.501 394.628 236.776 394.579 237.015 394.479C237.257 394.375 237.448 394.236 237.587 394.063C237.725 393.885 237.795 393.684 237.795 393.458C237.795 393.112 237.684 392.854 237.463 392.685C237.242 392.512 236.902 392.373 236.443 392.269L234.902 391.938C234.187 391.794 233.613 391.511 233.18 391.086C232.751 390.657 232.532 390.083 232.523 389.363C232.519 388.774 232.677 388.265 232.998 387.836C233.323 387.403 233.763 387.069 234.317 386.835C234.876 386.601 235.502 386.484 236.196 386.484C236.906 386.484 237.52 386.612 238.035 386.867C238.555 387.119 238.954 387.459 239.231 387.888C239.513 388.313 239.649 388.783 239.641 389.298L237.723 389.331C237.663 388.915 237.524 388.588 237.307 388.349C237.091 388.111 236.731 387.992 236.228 387.992C235.968 387.992 235.736 388.02 235.533 388.076C235.329 388.133 235.154 388.213 235.006 388.317C234.859 388.417 234.746 388.536 234.668 388.674C234.595 388.813 234.558 388.969 234.558 389.142C234.558 389.415 234.649 389.632 234.831 389.792C235.017 389.948 235.366 390.094 235.877 390.228L237.392 390.598C238.245 390.802 238.861 391.151 239.238 391.645C239.619 392.139 239.81 392.739 239.81 393.445C239.81 393.987 239.66 394.459 239.361 394.862C239.067 395.265 238.648 395.577 238.107 395.798C237.565 396.02 236.928 396.13 236.196 396.13ZM235.383 385.255H237.028V386.945H235.383V385.255ZM235.351 395.551H236.989V397.242H235.351V395.551ZM242.585 396V388.96H240.908V387.888C241.445 387.888 241.878 387.838 242.208 387.738C242.541 387.634 242.791 387.487 242.955 387.296C243.12 387.101 243.217 386.87 243.248 386.601H244.509V396H242.585ZM250.008 386.471C251.126 386.471 252.008 386.889 252.654 387.725C253.3 388.557 253.622 389.756 253.622 391.32C253.622 392.876 253.304 394.069 252.667 394.901C252.03 395.729 251.144 396.143 250.008 396.143C248.869 396.143 247.978 395.729 247.337 394.901C246.7 394.074 246.381 392.882 246.381 391.326C246.381 390.286 246.529 389.405 246.823 388.681C247.118 387.957 247.536 387.409 248.078 387.036C248.62 386.659 249.263 386.471 250.008 386.471ZM250.008 394.589C250.567 394.589 250.977 394.34 251.237 393.842C251.497 393.339 251.627 392.501 251.627 391.326C251.627 390.126 251.495 389.266 251.23 388.746C250.966 388.226 250.557 387.966 250.002 387.966C249.447 387.966 249.033 388.228 248.76 388.752C248.492 389.277 248.357 390.135 248.357 391.326C248.357 392.496 248.492 393.333 248.76 393.835C249.029 394.338 249.445 394.589 250.008 394.589ZM258.88 386.601H260.746V392.328H262.195V393.92H260.746V396H258.919L258.926 393.92H254.597V392.36L258.88 386.601ZM256.352 392.328H258.926V388.882L256.352 392.328ZM267.311 386.601H269.177V392.328H270.626V393.92H269.177V396H267.35L267.357 393.92H263.028V392.36L267.311 386.601ZM264.783 392.328H267.357V388.882L264.783 392.328Z" fill="#36536B"/>
<g filter="url(#filter7_d)">
<rect x="83" y="420" width="204" height="40" rx="5" fill="#FBFCFE"/>
</g>
<path d="M250.037 444.13C248.91 444.13 247.996 443.905 247.294 443.454C246.592 442.999 246.189 442.299 246.085 441.354L248.061 441.315C248.165 441.744 248.388 442.072 248.73 442.297C249.077 442.518 249.51 442.628 250.03 442.628C250.342 442.628 250.617 442.579 250.856 442.479C251.098 442.375 251.289 442.236 251.428 442.063C251.566 441.885 251.636 441.684 251.636 441.458C251.636 441.112 251.525 440.854 251.304 440.685C251.083 440.512 250.743 440.373 250.284 440.269L248.743 439.938C248.028 439.794 247.454 439.511 247.021 439.086C246.592 438.657 246.373 438.083 246.364 437.363C246.36 436.774 246.518 436.265 246.839 435.836C247.164 435.403 247.604 435.069 248.158 434.835C248.717 434.601 249.343 434.484 250.037 434.484C250.747 434.484 251.361 434.612 251.876 434.867C252.396 435.119 252.795 435.459 253.072 435.888C253.354 436.313 253.49 436.783 253.482 437.298L251.564 437.331C251.504 436.915 251.365 436.588 251.148 436.349C250.932 436.111 250.572 435.992 250.069 435.992C249.809 435.992 249.577 436.02 249.374 436.076C249.17 436.133 248.995 436.213 248.847 436.317C248.7 436.417 248.587 436.536 248.509 436.674C248.436 436.813 248.399 436.969 248.399 437.142C248.399 437.415 248.49 437.632 248.672 437.792C248.858 437.948 249.207 438.094 249.718 438.228L251.233 438.598C252.086 438.802 252.702 439.151 253.079 439.645C253.46 440.139 253.651 440.739 253.651 441.445C253.651 441.987 253.501 442.459 253.202 442.862C252.908 443.265 252.489 443.577 251.948 443.798C251.406 444.02 250.769 444.13 250.037 444.13ZM249.224 433.255H250.869V434.945H249.224V433.255ZM249.192 443.551H250.83V445.242H249.192V443.551ZM259.032 434.601H260.898V440.328H262.347V441.92H260.898V444H259.071L259.078 441.92H254.749V440.36L259.032 434.601ZM256.504 440.328H259.078V436.882L256.504 440.328ZM266.82 434.471C267.938 434.471 268.82 434.889 269.466 435.725C270.111 436.557 270.434 437.756 270.434 439.32C270.434 440.876 270.116 442.069 269.479 442.901C268.842 443.729 267.955 444.143 266.82 444.143C265.68 444.143 264.79 443.729 264.149 442.901C263.512 442.074 263.193 440.882 263.193 439.326C263.193 438.286 263.34 437.405 263.635 436.681C263.93 435.957 264.348 435.409 264.89 435.036C265.431 434.659 266.075 434.471 266.82 434.471ZM266.82 442.589C267.379 442.589 267.789 442.34 268.049 441.842C268.309 441.339 268.439 440.501 268.439 439.326C268.439 438.126 268.306 437.266 268.042 436.746C267.778 436.226 267.368 435.966 266.814 435.966C266.259 435.966 265.845 436.228 265.572 436.752C265.303 437.277 265.169 438.135 265.169 439.326C265.169 440.496 265.303 441.333 265.572 441.835C265.841 442.338 266.257 442.589 266.82 442.589Z" fill="#36536B"/>
<g filter="url(#filter8_d)">
<rect x="83" y="468" width="204" height="40" rx="5" fill="#FBFCFE"/>
</g>
<path d="M232.996 492.13C231.87 492.13 230.955 491.905 230.253 491.454C229.551 490.999 229.148 490.299 229.044 489.354L231.02 489.315C231.124 489.744 231.348 490.072 231.69 490.297C232.037 490.518 232.47 490.628 232.99 490.628C233.302 490.628 233.577 490.579 233.815 490.479C234.058 490.375 234.249 490.236 234.387 490.063C234.526 489.885 234.595 489.684 234.595 489.458C234.595 489.112 234.485 488.854 234.264 488.685C234.043 488.512 233.703 488.373 233.243 488.269L231.703 487.938C230.988 487.794 230.414 487.511 229.98 487.086C229.551 486.657 229.333 486.083 229.324 485.363C229.32 484.774 229.478 484.265 229.798 483.836C230.123 483.403 230.563 483.069 231.118 482.835C231.677 482.601 232.303 482.484 232.996 482.484C233.707 482.484 234.32 482.612 234.836 482.867C235.356 483.119 235.755 483.459 236.032 483.888C236.314 484.313 236.45 484.783 236.441 485.298L234.524 485.331C234.463 484.915 234.325 484.588 234.108 484.349C233.891 484.111 233.532 483.992 233.029 483.992C232.769 483.992 232.537 484.02 232.333 484.076C232.13 484.133 231.954 484.213 231.807 484.317C231.66 484.417 231.547 484.536 231.469 484.674C231.395 484.813 231.358 484.969 231.358 485.142C231.358 485.415 231.449 485.632 231.631 485.792C231.818 485.948 232.167 486.094 232.678 486.228L234.192 486.598C235.046 486.802 235.661 487.151 236.038 487.645C236.42 488.139 236.61 488.739 236.61 489.445C236.61 489.987 236.461 490.459 236.162 490.862C235.867 491.265 235.449 491.577 234.907 491.798C234.366 492.02 233.729 492.13 232.996 492.13ZM232.184 481.255H233.828V482.945H232.184V481.255ZM232.151 491.551H233.789V493.242H232.151V491.551ZM237.884 492V491.064V490.583C237.884 490.106 237.973 489.695 238.151 489.348C238.328 488.997 238.562 488.694 238.853 488.438C239.147 488.178 239.468 487.95 239.815 487.755C240.166 487.56 240.517 487.376 240.868 487.203C241.219 487.03 241.539 486.856 241.83 486.683C242.124 486.505 242.36 486.308 242.538 486.091C242.716 485.875 242.805 485.619 242.805 485.324C242.805 484.947 242.672 484.64 242.408 484.401C242.148 484.163 241.791 484.044 241.336 484.044C240.863 484.044 240.462 484.18 240.133 484.453C239.804 484.726 239.6 485.138 239.522 485.688H237.709C237.717 485.09 237.856 484.549 238.125 484.063C238.398 483.574 238.805 483.186 239.347 482.9C239.888 482.614 240.569 482.471 241.388 482.471C242.09 482.471 242.694 482.59 243.201 482.828C243.712 483.067 244.107 483.398 244.384 483.823C244.661 484.248 244.8 484.744 244.8 485.311C244.8 485.784 244.713 486.191 244.54 486.533C244.367 486.876 244.137 487.168 243.851 487.411C243.565 487.654 243.251 487.866 242.909 488.048C242.566 488.23 242.224 488.399 241.882 488.555C241.544 488.711 241.232 488.871 240.946 489.036C240.66 489.196 240.43 489.378 240.257 489.582C240.083 489.786 239.997 490.03 239.997 490.316V490.401H244.787V492H237.884ZM246.855 482.601H252.894L252.822 484.154H248.357L248.175 486.423C248.521 486.228 248.851 486.087 249.163 486C249.479 485.914 249.826 485.87 250.203 485.87C250.831 485.87 251.392 485.99 251.886 486.228C252.384 486.462 252.779 486.806 253.069 487.261C253.359 487.716 253.505 488.271 253.505 488.925C253.505 489.588 253.355 490.16 253.056 490.641C252.757 491.122 252.332 491.493 251.782 491.753C251.236 492.013 250.588 492.143 249.839 492.143C249.223 492.143 248.651 492.048 248.123 491.857C247.594 491.666 247.137 491.406 246.751 491.077C246.365 490.743 246.073 490.362 245.874 489.933L247.356 489.055C247.525 489.35 247.715 489.617 247.928 489.855C248.14 490.089 248.385 490.275 248.662 490.414C248.944 490.548 249.271 490.615 249.644 490.615C250.207 490.615 250.66 490.466 251.002 490.167C251.344 489.868 251.516 489.478 251.516 488.997C251.516 488.694 251.438 488.423 251.282 488.184C251.13 487.942 250.92 487.751 250.651 487.612C250.382 487.474 250.068 487.404 249.709 487.404C249.518 487.404 249.336 487.422 249.163 487.456C248.994 487.487 248.82 487.547 248.643 487.638C248.469 487.725 248.276 487.851 248.064 488.015C248.003 488.041 247.96 488.054 247.934 488.054C247.912 488.054 247.869 488.039 247.804 488.009L246.426 487.372L246.855 482.601ZM258.492 482.471C259.081 482.471 259.625 482.579 260.123 482.796C260.621 483.008 261.027 483.318 261.339 483.725C261.655 484.128 261.828 484.614 261.859 485.181H260.123C260.01 484.787 259.82 484.488 259.551 484.284C259.282 484.076 258.942 483.972 258.531 483.972C258.08 483.972 257.705 484.1 257.406 484.356C257.107 484.612 256.893 484.969 256.763 485.428C256.633 485.888 256.598 486.423 256.659 487.034C256.802 486.826 256.984 486.65 257.205 486.507C257.426 486.36 257.673 486.247 257.946 486.169C258.219 486.091 258.502 486.052 258.797 486.052C259.434 486.052 259.991 486.172 260.468 486.41C260.944 486.644 261.317 486.978 261.586 487.411C261.854 487.844 261.989 488.351 261.989 488.932C261.989 489.547 261.837 490.098 261.534 490.583C261.235 491.064 260.816 491.445 260.279 491.727C259.742 492.004 259.12 492.143 258.414 492.143C257.616 492.143 256.927 491.95 256.347 491.564C255.766 491.179 255.32 490.637 255.008 489.939C254.7 489.242 254.546 488.423 254.546 487.482C254.546 486.451 254.702 485.561 255.014 484.811C255.33 484.061 255.783 483.485 256.373 483.082C256.962 482.675 257.668 482.471 258.492 482.471ZM258.355 487.469C258.086 487.469 257.826 487.53 257.575 487.651C257.328 487.768 257.124 487.92 256.964 488.106C256.808 488.288 256.73 488.475 256.73 488.665C256.726 489.086 256.791 489.448 256.925 489.751C257.064 490.05 257.254 490.282 257.497 490.446C257.744 490.607 258.028 490.687 258.349 490.687C258.652 490.687 258.925 490.618 259.168 490.479C259.415 490.336 259.612 490.139 259.759 489.887C259.906 489.636 259.98 489.348 259.98 489.023C259.98 488.676 259.909 488.388 259.766 488.158C259.623 487.929 259.428 487.758 259.181 487.645C258.938 487.528 258.663 487.469 258.355 487.469ZM266.935 482.471C267.525 482.471 268.069 482.579 268.567 482.796C269.065 483.008 269.47 483.318 269.782 483.725C270.099 484.128 270.272 484.614 270.302 485.181H268.567C268.454 484.787 268.264 484.488 267.995 484.284C267.726 484.076 267.386 483.972 266.974 483.972C266.524 483.972 266.149 484.1 265.85 484.356C265.551 484.612 265.336 484.969 265.206 485.428C265.076 485.888 265.042 486.423 265.102 487.034C265.245 486.826 265.427 486.65 265.648 486.507C265.869 486.36 266.116 486.247 266.389 486.169C266.662 486.091 266.946 486.052 267.241 486.052C267.878 486.052 268.435 486.172 268.911 486.41C269.388 486.644 269.761 486.978 270.029 487.411C270.298 487.844 270.432 488.351 270.432 488.932C270.432 489.547 270.281 490.098 269.977 490.583C269.678 491.064 269.26 491.445 268.723 491.727C268.186 492.004 267.564 492.143 266.857 492.143C266.06 492.143 265.371 491.95 264.79 491.564C264.21 491.179 263.763 490.637 263.451 489.939C263.144 489.242 262.99 488.423 262.99 487.482C262.99 486.451 263.146 485.561 263.458 484.811C263.774 484.061 264.227 483.485 264.816 483.082C265.406 482.675 266.112 482.471 266.935 482.471ZM266.799 487.469C266.53 487.469 266.27 487.53 266.019 487.651C265.772 487.768 265.568 487.92 265.408 488.106C265.252 488.288 265.174 488.475 265.174 488.665C265.17 489.086 265.235 489.448 265.369 489.751C265.508 490.05 265.698 490.282 265.941 490.446C266.188 490.607 266.472 490.687 266.792 490.687C267.096 490.687 267.369 490.618 267.611 490.479C267.858 490.336 268.056 490.139 268.203 489.887C268.35 489.636 268.424 489.348 268.424 489.023C268.424 488.676 268.352 488.388 268.209 488.158C268.066 487.929 267.871 487.758 267.624 487.645C267.382 487.528 267.107 487.469 266.799 487.469Z" fill="#36536B"/>
<g filter="url(#filter9_d)">
<rect x="83" y="516" width="204" height="40" rx="5" fill="#FBFCFE"/>
</g>
<path d="M235.954 540.13C234.828 540.13 233.913 539.905 233.211 539.454C232.509 538.999 232.106 538.299 232.002 537.354L233.978 537.315C234.082 537.744 234.306 538.072 234.648 538.297C234.995 538.518 235.428 538.628 235.948 538.628C236.26 538.628 236.535 538.579 236.773 538.479C237.016 538.375 237.207 538.236 237.345 538.063C237.484 537.885 237.553 537.684 237.553 537.458C237.553 537.112 237.443 536.854 237.222 536.685C237.001 536.512 236.661 536.373 236.201 536.269L234.661 535.938C233.946 535.794 233.372 535.511 232.938 535.086C232.509 534.657 232.291 534.083 232.282 533.363C232.278 532.774 232.436 532.265 232.756 531.836C233.081 531.403 233.521 531.069 234.076 530.835C234.635 530.601 235.261 530.484 235.954 530.484C236.665 530.484 237.278 530.612 237.794 530.867C238.314 531.119 238.713 531.459 238.99 531.888C239.272 532.313 239.408 532.783 239.399 533.298L237.482 533.331C237.421 532.915 237.283 532.588 237.066 532.349C236.849 532.111 236.49 531.992 235.987 531.992C235.727 531.992 235.495 532.02 235.291 532.076C235.088 532.133 234.912 532.213 234.765 532.317C234.618 532.417 234.505 532.536 234.427 532.674C234.353 532.813 234.316 532.969 234.316 533.142C234.316 533.415 234.407 533.632 234.589 533.792C234.776 533.948 235.125 534.094 235.636 534.228L237.15 534.598C238.004 534.802 238.619 535.151 238.996 535.645C239.378 536.139 239.568 536.739 239.568 537.445C239.568 537.987 239.419 538.459 239.12 538.862C238.825 539.265 238.407 539.577 237.865 539.798C237.324 540.02 236.687 540.13 235.954 540.13ZM235.142 529.255H236.786V530.945H235.142V529.255ZM235.109 539.551H236.747V541.242H235.109V539.551ZM244.95 530.601H246.816V536.328H248.265V537.92H246.816V540H244.989L244.996 537.92H240.667V536.36L244.95 530.601ZM242.422 536.328H244.996V532.882L242.422 536.328ZM250.775 540V532.96H249.098V531.888C249.635 531.888 250.069 531.838 250.398 531.738C250.732 531.634 250.981 531.487 251.145 531.296C251.31 531.101 251.408 530.87 251.438 530.601H252.699V540H250.775ZM258.023 540.143C257.438 540.143 256.892 540.03 256.385 539.805C255.878 539.58 255.464 539.263 255.143 538.856C254.823 538.444 254.643 537.963 254.604 537.413H256.411C256.489 537.777 256.662 538.074 256.931 538.303C257.2 538.529 257.538 538.641 257.945 538.641C258.396 538.641 258.79 538.535 259.128 538.323C259.47 538.111 259.726 537.773 259.895 537.309C260.068 536.845 260.129 536.239 260.077 535.489C259.956 535.719 259.787 535.92 259.57 536.093C259.358 536.262 259.108 536.395 258.822 536.49C258.536 536.581 258.218 536.626 257.867 536.626C257.23 536.626 256.664 536.507 256.17 536.269C255.681 536.026 255.295 535.684 255.013 535.242C254.736 534.796 254.597 534.267 254.597 533.656C254.597 533.041 254.745 532.492 255.039 532.011C255.334 531.53 255.746 531.153 256.274 530.88C256.803 530.607 257.423 530.471 258.133 530.471C258.931 530.471 259.618 530.662 260.194 531.043C260.775 531.42 261.219 531.957 261.526 532.655C261.838 533.348 261.994 534.165 261.994 535.105C261.994 536.228 261.834 537.164 261.513 537.913C261.197 538.659 260.742 539.218 260.148 539.59C259.555 539.959 258.846 540.143 258.023 540.143ZM258.192 535.118C258.456 535.118 258.712 535.06 258.959 534.943C259.21 534.822 259.416 534.67 259.576 534.488C259.737 534.306 259.817 534.117 259.817 533.922C259.821 533.502 259.754 533.142 259.615 532.843C259.481 532.54 259.29 532.308 259.043 532.148C258.801 531.988 258.517 531.907 258.192 531.907C257.893 531.907 257.626 531.977 257.392 532.115C257.158 532.254 256.974 532.449 256.84 532.7C256.706 532.952 256.638 533.242 256.638 533.571C256.638 534.061 256.781 534.442 257.067 534.715C257.353 534.984 257.728 535.118 258.192 535.118ZM266.454 540.143C265.869 540.143 265.323 540.03 264.816 539.805C264.309 539.58 263.895 539.263 263.575 538.856C263.254 538.444 263.074 537.963 263.035 537.413H264.842C264.92 537.777 265.093 538.074 265.362 538.303C265.631 538.529 265.969 538.641 266.376 538.641C266.827 538.641 267.221 538.535 267.559 538.323C267.901 538.111 268.157 537.773 268.326 537.309C268.499 536.845 268.56 536.239 268.508 535.489C268.387 535.719 268.218 535.92 268.001 536.093C267.789 536.262 267.54 536.395 267.254 536.49C266.968 536.581 266.649 536.626 266.298 536.626C265.661 536.626 265.096 536.507 264.602 536.269C264.112 536.026 263.726 535.684 263.445 535.242C263.167 534.796 263.029 534.267 263.029 533.656C263.029 533.041 263.176 532.492 263.471 532.011C263.765 531.53 264.177 531.153 264.706 530.88C265.234 530.607 265.854 530.471 266.565 530.471C267.362 530.471 268.049 530.662 268.625 531.043C269.206 531.42 269.65 531.957 269.958 532.655C270.27 533.348 270.426 534.165 270.426 535.105C270.426 536.228 270.265 537.164 269.945 537.913C269.628 538.659 269.173 539.218 268.58 539.59C267.986 539.959 267.277 540.143 266.454 540.143ZM266.623 535.118C266.887 535.118 267.143 535.06 267.39 534.943C267.641 534.822 267.847 534.67 268.008 534.488C268.168 534.306 268.248 534.117 268.248 533.922C268.252 533.502 268.185 533.142 268.047 532.843C267.912 532.54 267.722 532.308 267.475 532.148C267.232 531.988 266.948 531.907 266.623 531.907C266.324 531.907 266.058 531.977 265.824 532.115C265.59 532.254 265.405 532.449 265.271 532.7C265.137 532.952 265.07 533.242 265.07 533.571C265.07 534.061 265.213 534.442 265.499 534.715C265.785 534.984 266.159 535.118 266.623 535.118Z" fill="#36536B"/>
<rect x="68.0742" y="67.4445" width="233" height="114" fill="#36536B"/>
</g>
<g clip-path="url(#clip0)">
<g filter="url(#filter10_d)">
<rect x="83" y="148" width="204" height="56" rx="5" fill="#FBFCFE"/>
</g>
<path d="M213.256 183.2C211.522 183.2 210.116 182.853 209.036 182.16C207.956 181.46 207.336 180.383 207.176 178.93L210.216 178.87C210.376 179.53 210.719 180.033 211.246 180.38C211.779 180.72 212.446 180.89 213.246 180.89C213.726 180.89 214.149 180.813 214.516 180.66C214.889 180.5 215.182 180.287 215.396 180.02C215.609 179.747 215.716 179.437 215.716 179.09C215.716 178.557 215.546 178.16 215.206 177.9C214.866 177.633 214.342 177.42 213.636 177.26L211.266 176.75C210.166 176.53 209.282 176.093 208.616 175.44C207.956 174.78 207.619 173.897 207.606 172.79C207.599 171.883 207.842 171.1 208.336 170.44C208.836 169.773 209.512 169.26 210.366 168.9C211.226 168.54 212.189 168.36 213.256 168.36C214.349 168.36 215.292 168.557 216.086 168.95C216.886 169.337 217.499 169.86 217.926 170.52C218.359 171.173 218.569 171.897 218.556 172.69L215.606 172.74C215.512 172.1 215.299 171.597 214.966 171.23C214.632 170.863 214.079 170.68 213.306 170.68C212.906 170.68 212.549 170.723 212.236 170.81C211.922 170.897 211.652 171.02 211.426 171.18C211.199 171.333 211.026 171.517 210.906 171.73C210.792 171.943 210.736 172.183 210.736 172.45C210.736 172.87 210.876 173.203 211.156 173.45C211.442 173.69 211.979 173.913 212.766 174.12L215.096 174.69C216.409 175.003 217.356 175.54 217.936 176.3C218.522 177.06 218.816 177.983 218.816 179.07C218.816 179.903 218.586 180.63 218.126 181.25C217.672 181.87 217.029 182.35 216.196 182.69C215.362 183.03 214.382 183.2 213.256 183.2ZM212.006 166.47H214.536V169.07H212.006V166.47ZM211.956 182.31H214.476V184.91H211.956V182.31ZM225.835 183.22C224.935 183.22 224.095 183.047 223.315 182.7C222.535 182.353 221.898 181.867 221.405 181.24C220.912 180.607 220.635 179.867 220.575 179.02H223.355C223.475 179.58 223.742 180.037 224.155 180.39C224.568 180.737 225.088 180.91 225.715 180.91C226.408 180.91 227.015 180.747 227.535 180.42C228.062 180.093 228.455 179.573 228.715 178.86C228.982 178.147 229.075 177.213 228.995 176.06C228.808 176.413 228.548 176.723 228.215 176.99C227.888 177.25 227.505 177.453 227.065 177.6C226.625 177.74 226.135 177.81 225.595 177.81C224.615 177.81 223.745 177.627 222.985 177.26C222.232 176.887 221.638 176.36 221.205 175.68C220.778 174.993 220.565 174.18 220.565 173.24C220.565 172.293 220.792 171.45 221.245 170.71C221.698 169.97 222.332 169.39 223.145 168.97C223.958 168.55 224.912 168.34 226.005 168.34C227.232 168.34 228.288 168.633 229.175 169.22C230.068 169.8 230.752 170.627 231.225 171.7C231.705 172.767 231.945 174.023 231.945 175.47C231.945 177.197 231.698 178.637 231.205 179.79C230.718 180.937 230.018 181.797 229.105 182.37C228.192 182.937 227.102 183.22 225.835 183.22ZM226.095 175.49C226.502 175.49 226.895 175.4 227.275 175.22C227.662 175.033 227.978 174.8 228.225 174.52C228.472 174.24 228.595 173.95 228.595 173.65C228.602 173.003 228.498 172.45 228.285 171.99C228.078 171.523 227.785 171.167 227.405 170.92C227.032 170.673 226.595 170.55 226.095 170.55C225.635 170.55 225.225 170.657 224.865 170.87C224.505 171.083 224.222 171.383 224.015 171.77C223.808 172.157 223.705 172.603 223.705 173.11C223.705 173.863 223.925 174.45 224.365 174.87C224.805 175.283 225.382 175.49 226.095 175.49ZM233.805 183V181.56V180.82C233.805 180.087 233.942 179.453 234.215 178.92C234.488 178.38 234.848 177.913 235.295 177.52C235.748 177.12 236.242 176.77 236.775 176.47C237.315 176.17 237.855 175.887 238.395 175.62C238.935 175.353 239.428 175.087 239.875 174.82C240.328 174.547 240.692 174.243 240.965 173.91C241.238 173.577 241.375 173.183 241.375 172.73C241.375 172.15 241.172 171.677 240.765 171.31C240.365 170.943 239.815 170.76 239.115 170.76C238.388 170.76 237.772 170.97 237.265 171.39C236.758 171.81 236.445 172.443 236.325 173.29H233.535C233.548 172.37 233.762 171.537 234.175 170.79C234.595 170.037 235.222 169.44 236.055 169C236.888 168.56 237.935 168.34 239.195 168.34C240.275 168.34 241.205 168.523 241.985 168.89C242.772 169.257 243.378 169.767 243.805 170.42C244.232 171.073 244.445 171.837 244.445 172.71C244.445 173.437 244.312 174.063 244.045 174.59C243.778 175.117 243.425 175.567 242.985 175.94C242.545 176.313 242.062 176.64 241.535 176.92C241.008 177.2 240.482 177.46 239.955 177.7C239.435 177.94 238.955 178.187 238.515 178.44C238.075 178.687 237.722 178.967 237.455 179.28C237.188 179.593 237.055 179.97 237.055 180.41V180.54H244.425V183H233.805ZM251.676 168.34C253.396 168.34 254.753 168.983 255.746 170.27C256.74 171.55 257.236 173.393 257.236 175.8C257.236 178.193 256.746 180.03 255.766 181.31C254.786 182.583 253.423 183.22 251.676 183.22C249.923 183.22 248.553 182.583 247.566 181.31C246.586 180.037 246.096 178.203 246.096 175.81C246.096 174.21 246.323 172.853 246.776 171.74C247.23 170.627 247.873 169.783 248.706 169.21C249.54 168.63 250.53 168.34 251.676 168.34ZM251.676 180.83C252.536 180.83 253.166 180.447 253.566 179.68C253.966 178.907 254.166 177.617 254.166 175.81C254.166 173.963 253.963 172.64 253.556 171.84C253.15 171.04 252.52 170.64 251.666 170.64C250.813 170.64 250.176 171.043 249.756 171.85C249.343 172.657 249.136 173.977 249.136 175.81C249.136 177.61 249.343 178.897 249.756 179.67C250.17 180.443 250.81 180.83 251.676 180.83ZM265.325 168.54H268.195V177.35H270.425V179.8H268.195V183H265.385L265.395 179.8H258.735V177.4L265.325 168.54ZM261.435 177.35H265.395V172.05L261.435 177.35Z" fill="#BA4270"/>
</g>
<path fill-rule="evenodd" clip-rule="evenodd" d="M227.047 106.425V104.344H226.279V106.425H227.047ZM173.923 122.432V117.481H173.963C174.313 117.993 174.761 118.38 175.307 118.643C175.853 118.905 176.449 119.037 177.096 119.037C177.864 119.037 178.534 118.889 179.107 118.592C179.679 118.296 180.157 117.898 180.541 117.4C180.925 116.901 181.212 116.329 181.4 115.682C181.589 115.035 181.683 114.361 181.683 113.661C181.683 112.92 181.589 112.209 181.4 111.529C181.212 110.848 180.922 110.252 180.531 109.74C180.141 109.228 179.649 108.817 179.056 108.507C178.463 108.197 177.756 108.042 176.934 108.042C176.287 108.042 175.694 108.17 175.155 108.426C174.616 108.682 174.172 109.093 173.821 109.659H173.781V108.325H171.053V122.432H173.923ZM176.328 116.894C175.869 116.894 175.479 116.8 175.155 116.611C174.832 116.423 174.573 116.177 174.377 115.874C174.182 115.571 174.04 115.217 173.953 114.813C173.865 114.409 173.821 113.998 173.821 113.58C173.821 113.149 173.862 112.731 173.943 112.327C174.024 111.923 174.162 111.566 174.357 111.256C174.552 110.946 174.808 110.693 175.125 110.498C175.442 110.302 175.836 110.205 176.307 110.205C176.765 110.205 177.153 110.302 177.469 110.498C177.786 110.693 178.045 110.949 178.248 111.266C178.45 111.582 178.595 111.943 178.682 112.347C178.77 112.751 178.813 113.162 178.813 113.58C178.813 113.998 178.773 114.409 178.692 114.813C178.611 115.217 178.473 115.571 178.278 115.874C178.083 116.177 177.827 116.423 177.51 116.611C177.193 116.8 176.799 116.894 176.328 116.894ZM188.258 118.754C187.638 118.942 187.005 119.037 186.358 119.037C185.86 119.037 185.395 118.976 184.964 118.855C184.533 118.734 184.155 118.545 183.832 118.289C183.509 118.033 183.256 117.71 183.074 117.319C182.892 116.928 182.801 116.463 182.801 115.924C182.801 115.331 182.906 114.843 183.114 114.459C183.323 114.075 183.593 113.769 183.923 113.539C184.253 113.31 184.63 113.139 185.055 113.024C185.479 112.91 185.907 112.819 186.338 112.751C186.769 112.684 187.194 112.63 187.611 112.59C188.029 112.549 188.399 112.489 188.723 112.408C189.046 112.327 189.302 112.209 189.491 112.054C189.679 111.899 189.767 111.673 189.754 111.377C189.754 111.067 189.703 110.821 189.602 110.639C189.501 110.457 189.366 110.316 189.198 110.215C189.029 110.114 188.834 110.046 188.612 110.013C188.389 109.979 188.15 109.962 187.894 109.962C187.328 109.962 186.884 110.083 186.56 110.326C186.237 110.569 186.048 110.973 185.994 111.539H183.125C183.165 110.865 183.333 110.306 183.63 109.861C183.926 109.417 184.303 109.059 184.762 108.79C185.22 108.521 185.735 108.329 186.308 108.214C186.88 108.099 187.456 108.042 188.036 108.042C188.561 108.042 189.093 108.079 189.632 108.153C190.171 108.227 190.663 108.372 191.108 108.588C191.552 108.803 191.916 109.103 192.199 109.487C192.482 109.871 192.623 110.38 192.623 111.013V116.45C192.623 116.921 192.65 117.373 192.704 117.804C192.758 118.235 192.853 118.558 192.987 118.774H190.077C190.023 118.612 189.979 118.447 189.946 118.279C189.912 118.11 189.888 117.939 189.875 117.763C189.417 118.235 188.878 118.565 188.258 118.754ZM187.429 117.137C187.2 117.137 186.978 117.117 186.762 117.076C186.547 117.036 186.358 116.965 186.197 116.864C186.035 116.763 185.907 116.625 185.813 116.45C185.718 116.275 185.671 116.059 185.671 115.803C185.671 115.534 185.718 115.311 185.813 115.136C185.907 114.961 186.031 114.816 186.186 114.702C186.341 114.587 186.523 114.496 186.732 114.429C186.941 114.361 187.153 114.307 187.369 114.267C187.598 114.227 187.827 114.193 188.056 114.166C188.285 114.139 188.504 114.105 188.713 114.065C188.922 114.025 189.117 113.974 189.299 113.913C189.481 113.853 189.632 113.769 189.754 113.661V114.732C189.754 114.894 189.737 115.109 189.703 115.379C189.669 115.648 189.578 115.914 189.43 116.177C189.282 116.44 189.053 116.665 188.743 116.854C188.433 117.043 187.995 117.137 187.429 117.137ZM198.551 121.886C197.999 122.25 197.231 122.432 196.247 122.432C195.951 122.432 195.658 122.422 195.368 122.402C195.079 122.382 194.785 122.358 194.489 122.331V119.966C194.759 119.993 195.035 120.02 195.318 120.047C195.601 120.074 195.884 120.081 196.167 120.067C196.544 120.027 196.823 119.879 197.005 119.623C197.187 119.367 197.278 119.084 197.278 118.774C197.278 118.545 197.238 118.329 197.157 118.127L193.499 108.325H196.551L198.915 115.48H198.956L201.239 108.325H204.21L199.845 120.067C199.535 120.916 199.104 121.523 198.551 121.886ZM208.057 119.017C208.555 119.017 209.013 118.956 209.431 118.835C209.849 118.713 210.222 118.545 210.553 118.329C210.883 118.114 211.162 117.868 211.391 117.592C211.62 117.315 211.795 117.022 211.917 116.713H211.957V117.258C211.957 117.474 211.974 117.672 212.008 117.854C212.041 118.036 212.105 118.195 212.2 118.329C212.294 118.464 212.432 118.572 212.614 118.653C212.796 118.734 213.042 118.774 213.352 118.774C213.567 118.774 213.776 118.747 213.978 118.693V118.046C213.736 118.087 213.547 118.107 213.412 118.107C213.237 118.107 213.102 118.07 213.008 117.996C212.914 117.922 212.846 117.824 212.806 117.703C212.766 117.582 212.742 117.447 212.735 117.299C212.729 117.15 212.725 117.002 212.725 116.854V110.811C212.725 110.016 212.439 109.373 211.866 108.881C211.294 108.389 210.381 108.143 209.128 108.143C207.875 108.143 206.908 108.43 206.227 109.002C205.547 109.575 205.18 110.434 205.126 111.579H205.894C205.948 110.649 206.261 109.955 206.834 109.497C207.406 109.039 208.158 108.81 209.087 108.81C209.613 108.81 210.057 108.864 210.421 108.972C210.785 109.08 211.081 109.228 211.31 109.417C211.539 109.605 211.708 109.821 211.816 110.063C211.923 110.306 211.977 110.569 211.977 110.851C211.977 111.215 211.957 111.518 211.917 111.761C211.876 112.003 211.775 112.202 211.614 112.357C211.452 112.512 211.213 112.633 210.896 112.721C210.579 112.809 210.145 112.873 209.593 112.913L208.4 113.014C207.982 113.054 207.548 113.122 207.097 113.216C206.645 113.31 206.234 113.469 205.864 113.691C205.493 113.913 205.187 114.217 204.944 114.601C204.702 114.984 204.58 115.48 204.58 116.086C204.58 117.083 204.883 117.821 205.49 118.299C206.096 118.777 206.952 119.017 208.057 119.017ZM206.076 117.794C206.561 118.164 207.228 118.35 208.077 118.35C208.953 118.35 209.646 118.191 210.158 117.875C210.67 117.558 211.061 117.194 211.331 116.783C211.6 116.372 211.772 115.975 211.846 115.591C211.92 115.207 211.957 114.947 211.957 114.813V112.873C211.769 113.102 211.482 113.257 211.098 113.337C210.714 113.418 210.286 113.479 209.815 113.519L208.521 113.641C208.144 113.681 207.767 113.738 207.39 113.812C207.012 113.886 206.672 114.011 206.369 114.186C206.066 114.361 205.82 114.601 205.631 114.904C205.443 115.207 205.348 115.601 205.348 116.086C205.348 116.854 205.591 117.423 206.076 117.794ZM215.965 122.493V116.611H216.005C216.315 117.46 216.807 118.073 217.481 118.451C218.155 118.828 218.923 119.017 219.785 119.017C220.58 119.017 221.27 118.882 221.856 118.612C222.443 118.343 222.928 117.969 223.312 117.491C223.696 117.012 223.982 116.443 224.171 115.783C224.359 115.123 224.453 114.395 224.453 113.6C224.453 112.873 224.359 112.179 224.171 111.518C223.982 110.858 223.696 110.279 223.312 109.78C222.928 109.282 222.443 108.884 221.856 108.588C221.27 108.291 220.58 108.143 219.785 108.143C219.219 108.143 218.717 108.231 218.279 108.406C217.841 108.581 217.467 108.8 217.157 109.063C216.848 109.326 216.598 109.612 216.41 109.922C216.221 110.232 216.086 110.515 216.005 110.771H215.965V108.386H215.197V122.493H215.965ZM217.956 117.955C218.448 118.218 219.057 118.35 219.785 118.35C220.459 118.35 221.041 118.222 221.533 117.966C222.025 117.71 222.429 117.366 222.746 116.935C223.062 116.504 223.298 116.002 223.453 115.429C223.608 114.857 223.685 114.247 223.685 113.6C223.685 113.007 223.611 112.425 223.463 111.852C223.315 111.279 223.086 110.767 222.776 110.316C222.466 109.865 222.065 109.501 221.573 109.225C221.082 108.948 220.485 108.81 219.785 108.81C219.098 108.81 218.512 108.945 218.027 109.214C217.541 109.484 217.147 109.841 216.844 110.286C216.541 110.73 216.322 111.239 216.187 111.811C216.053 112.384 215.985 112.98 215.985 113.6C215.985 114.22 216.046 114.816 216.167 115.389C216.288 115.961 216.494 116.467 216.784 116.905C217.073 117.342 217.464 117.693 217.956 117.955ZM227.047 108.386V118.774H226.279V108.386H227.047Z" fill="white"/>
<circle cx="154.09" cy="104.158" r="1.89474" transform="rotate(45 154.09 104.158)" fill="white"/>
<circle cx="158.556" cy="108.624" r="1.89474" transform="rotate(45 158.556 108.624)" fill="white"/>
<circle cx="163.022" cy="113.09" r="1.89474" transform="rotate(45 163.022 113.09)" fill="white"/>
<circle cx="149.624" cy="108.624" r="1.89474" transform="rotate(45 149.624 108.624)" fill="white"/>
<circle opacity="0.5" cx="154.09" cy="113.09" r="1.89474" transform="rotate(45 154.09 113.09)" fill="white"/>
<circle opacity="0.5" cx="158.556" cy="117.556" r="1.89474" transform="rotate(45 158.556 117.556)" fill="white"/>
<circle cx="145.158" cy="113.09" r="1.89474" transform="rotate(45 145.158 113.09)" fill="white"/>
<circle opacity="0.5" cx="149.624" cy="117.556" r="1.89474" transform="rotate(45 149.624 117.556)" fill="white"/>
<circle opacity="0.25" cx="154.09" cy="122.022" r="1.89474" transform="rotate(45 154.09 122.022)" fill="white"/>
<defs>
<filter id="filter0_d" x="303.568" y="0.569473" width="417.649" height="658.861" filterUnits="userSpaceOnUse" color-interpolation-filters="sRGB">
<feFlood flood-opacity="0" result="BackgroundImageFix"/>
<feColorMatrix in="SourceAlpha" type="matrix" values="0 0 0 0 0 0 0 0 0 0 0 0 0 0 0 0 0 0 127 0" result="hardAlpha"/>
<feOffset dx="25" dy="25"/>
<feGaussianBlur stdDeviation="40"/>
<feColorMatrix type="matrix" values="0 0 0 0 0.211765 0 0 0 0 0.32549 0 0 0 0 0.419608 0 0 0 0.301961 0"/>
<feBlend mode="normal" in2="BackgroundImageFix" result="effect1_dropShadow"/>
<feBlend mode="normal" in="SourceGraphic" in2="effect1_dropShadow" result="shape"/>
</filter>
<filter id="filter1_d" x="394" y="192" width="206" height="221" filterUnits="userSpaceOnUse" color-interpolation-filters="sRGB">
<feFlood flood-opacity="0" result="BackgroundImageFix"/>
<feColorMatrix in="SourceAlpha" type="matrix" values="0 0 0 0 0 0 0 0 0 0 0 0 0 0 0 0 0 0 127 0" result="hardAlpha"/>
<feMorphology radius="10" operator="erode" in="SourceAlpha" result="effect1_dropShadow"/>
<feOffset dx="10" dy="10"/>
<feGaussianBlur stdDeviation="12.5"/>
<feColorMatrix type="matrix" values="0 0 0 0 0.211765 0 0 0 0 0.32549 0 0 0 0 0.419608 0 0 0 0.25098 0"/>
<feBlend mode="normal" in2="BackgroundImageFix" result="effect1_dropShadow"/>
<feBlend mode="normal" in="SourceGraphic" in2="effect1_dropShadow" result="shape"/>
</filter>
<filter id="filter2_d" x="0.567993" y="0.569473" width="417.649" height="658.861" filterUnits="userSpaceOnUse" color-interpolation-filters="sRGB">
<feFlood flood-opacity="0" result="BackgroundImageFix"/>
<feColorMatrix in="SourceAlpha" type="matrix" values="0 0 0 0 0 0 0 0 0 0 0 0 0 0 0 0 0 0 127 0" result="hardAlpha"/>
<feOffset dx="25" dy="25"/>
<feGaussianBlur stdDeviation="40"/>
<feColorMatrix type="matrix" values="0 0 0 0 0.211765 0 0 0 0 0.32549 0 0 0 0 0.419608 0 0 0 0.301961 0"/>
<feBlend mode="normal" in2="BackgroundImageFix" result="effect1_dropShadow"/>
<feBlend mode="normal" in="SourceGraphic" in2="effect1_dropShadow" result="shape"/>
</filter>
<filter id="filter3_d" x="78" y="223" width="234" height="70" filterUnits="userSpaceOnUse" color-interpolation-filters="sRGB">
<feFlood flood-opacity="0" result="BackgroundImageFix"/>
<feColorMatrix in="SourceAlpha" type="matrix" values="0 0 0 0 0 0 0 0 0 0 0 0 0 0 0 0 0 0 127 0" result="hardAlpha"/>
<feMorphology radius="10" operator="erode" in="SourceAlpha" result="effect1_dropShadow"/>
<feOffset dx="10" dy="10"/>
<feGaussianBlur stdDeviation="12.5"/>
<feColorMatrix type="matrix" values="0 0 0 0 0.211765 0 0 0 0 0.32549 0 0 0 0 0.419608 0 0 0 0.25098 0"/>
<feBlend mode="normal" in2="BackgroundImageFix" result="effect1_dropShadow"/>
<feBlend mode="normal" in="SourceGraphic" in2="effect1_dropShadow" result="shape"/>
</filter>
<filter id="filter4_d" x="78" y="271" width="234" height="70" filterUnits="userSpaceOnUse" color-interpolation-filters="sRGB">
<feFlood flood-opacity="0" result="BackgroundImageFix"/>
<feColorMatrix in="SourceAlpha" type="matrix" values="0 0 0 0 0 0 0 0 0 0 0 0 0 0 0 0 0 0 127 0" result="hardAlpha"/>
<feMorphology radius="10" operator="erode" in="SourceAlpha" result="effect1_dropShadow"/>
<feOffset dx="10" dy="10"/>
<feGaussianBlur stdDeviation="12.5"/>
<feColorMatrix type="matrix" values="0 0 0 0 0.211765 0 0 0 0 0.32549 0 0 0 0 0.419608 0 0 0 0.25098 0"/>
<feBlend mode="normal" in2="BackgroundImageFix" result="effect1_dropShadow"/>
<feBlend mode="normal" in="SourceGraphic" in2="effect1_dropShadow" result="shape"/>
</filter>
<filter id="filter5_d" x="78" y="319" width="234" height="70" filterUnits="userSpaceOnUse" color-interpolation-filters="sRGB">
<feFlood flood-opacity="0" result="BackgroundImageFix"/>
<feColorMatrix in="SourceAlpha" type="matrix" values="0 0 0 0 0 0 0 0 0 0 0 0 0 0 0 0 0 0 127 0" result="hardAlpha"/>
<feMorphology radius="10" operator="erode" in="SourceAlpha" result="effect1_dropShadow"/>
<feOffset dx="10" dy="10"/>
<feGaussianBlur stdDeviation="12.5"/>
<feColorMatrix type="matrix" values="0 0 0 0 0.211765 0 0 0 0 0.32549 0 0 0 0 0.419608 0 0 0 0.25098 0"/>
<feBlend mode="normal" in2="BackgroundImageFix" result="effect1_dropShadow"/>
<feBlend mode="normal" in="SourceGraphic" in2="effect1_dropShadow" result="shape"/>
</filter>
<filter id="filter6_d" x="78" y="367" width="234" height="70" filterUnits="userSpaceOnUse" color-interpolation-filters="sRGB">
<feFlood flood-opacity="0" result="BackgroundImageFix"/>
<feColorMatrix in="SourceAlpha" type="matrix" values="0 0 0 0 0 0 0 0 0 0 0 0 0 0 0 0 0 0 127 0" result="hardAlpha"/>
<feMorphology radius="10" operator="erode" in="SourceAlpha" result="effect1_dropShadow"/>
<feOffset dx="10" dy="10"/>
<feGaussianBlur stdDeviation="12.5"/>
<feColorMatrix type="matrix" values="0 0 0 0 0.211765 0 0 0 0 0.32549 0 0 0 0 0.419608 0 0 0 0.25098 0"/>
<feBlend mode="normal" in2="BackgroundImageFix" result="effect1_dropShadow"/>
<feBlend mode="normal" in="SourceGraphic" in2="effect1_dropShadow" result="shape"/>
</filter>
<filter id="filter7_d" x="78" y="415" width="234" height="70" filterUnits="userSpaceOnUse" color-interpolation-filters="sRGB">
<feFlood flood-opacity="0" result="BackgroundImageFix"/>
<feColorMatrix in="SourceAlpha" type="matrix" values="0 0 0 0 0 0 0 0 0 0 0 0 0 0 0 0 0 0 127 0" result="hardAlpha"/>
<feMorphology radius="10" operator="erode" in="SourceAlpha" result="effect1_dropShadow"/>
<feOffset dx="10" dy="10"/>
<feGaussianBlur stdDeviation="12.5"/>
<feColorMatrix type="matrix" values="0 0 0 0 0.211765 0 0 0 0 0.32549 0 0 0 0 0.419608 0 0 0 0.25098 0"/>
<feBlend mode="normal" in2="BackgroundImageFix" result="effect1_dropShadow"/>
<feBlend mode="normal" in="SourceGraphic" in2="effect1_dropShadow" result="shape"/>
</filter>
<filter id="filter8_d" x="78" y="463" width="234" height="70" filterUnits="userSpaceOnUse" color-interpolation-filters="sRGB">
<feFlood flood-opacity="0" result="BackgroundImageFix"/>
<feColorMatrix in="SourceAlpha" type="matrix" values="0 0 0 0 0 0 0 0 0 0 0 0 0 0 0 0 0 0 127 0" result="hardAlpha"/>
<feMorphology radius="10" operator="erode" in="SourceAlpha" result="effect1_dropShadow"/>
<feOffset dx="10" dy="10"/>
<feGaussianBlur stdDeviation="12.5"/>
<feColorMatrix type="matrix" values="0 0 0 0 0.211765 0 0 0 0 0.32549 0 0 0 0 0.419608 0 0 0 0.25098 0"/>
<feBlend mode="normal" in2="BackgroundImageFix" result="effect1_dropShadow"/>
<feBlend mode="normal" in="SourceGraphic" in2="effect1_dropShadow" result="shape"/>
</filter>
<filter id="filter9_d" x="78" y="511" width="234" height="70" filterUnits="userSpaceOnUse" color-interpolation-filters="sRGB">
<feFlood flood-opacity="0" result="BackgroundImageFix"/>
<feColorMatrix in="SourceAlpha" type="matrix" values="0 0 0 0 0 0 0 0 0 0 0 0 0 0 0 0 0 0 127 0" result="hardAlpha"/>
<feMorphology radius="10" operator="erode" in="SourceAlpha" result="effect1_dropShadow"/>
<feOffset dx="10" dy="10"/>
<feGaussianBlur stdDeviation="12.5"/>
<feColorMatrix type="matrix" values="0 0 0 0 0.211765 0 0 0 0 0.32549 0 0 0 0 0.419608 0 0 0 0.25098 0"/>
<feBlend mode="normal" in2="BackgroundImageFix" result="effect1_dropShadow"/>
<feBlend mode="normal" in="SourceGraphic" in2="effect1_dropShadow" result="shape"/>
</filter>
<filter id="filter10_d" x="78" y="143" width="234" height="86" filterUnits="userSpaceOnUse" color-interpolation-filters="sRGB">
<feFlood flood-opacity="0" result="BackgroundImageFix"/>
<feColorMatrix in="SourceAlpha" type="matrix" values="0 0 0 0 0 0 0 0 0 0 0 0 0 0 0 0 0 0 127 0" result="hardAlpha"/>
<feMorphology radius="10" operator="erode" in="SourceAlpha" result="effect1_dropShadow"/>
<feOffset dx="10" dy="10"/>
<feGaussianBlur stdDeviation="12.5"/>
<feColorMatrix type="matrix" values="0 0 0 0 0.211765 0 0 0 0 0.32549 0 0 0 0 0.419608 0 0 0 0.25098 0"/>
<feBlend mode="normal" in2="BackgroundImageFix" result="effect1_dropShadow"/>
<feBlend mode="normal" in="SourceGraphic" in2="effect1_dropShadow" result="shape"/>
</filter>
<linearGradient id="paint0_linear" x1="366.015" y1="55" x2="366.015" y2="67.3239" gradientUnits="userSpaceOnUse">
<stop stop-color="#454545"/>
<stop offset="0.226279" stop-color="#999999"/>
<stop offset="1" stop-color="white"/>
</linearGradient>
<linearGradient id="paint1_linear" x1="616.103" y1="140.747" x2="606.642" y2="140.747" gradientUnits="userSpaceOnUse">
<stop stop-color="white" stop-opacity="0.01"/>
<stop offset="0.222178" stop-color="#BABABA"/>
<stop offset="0.54678" stop-color="white" stop-opacity="0.01"/>
<stop offset="1" stop-color="white" stop-opacity="0.01"/>
</linearGradient>
<linearGradient id="paint2_linear" x1="358.568" y1="140.487" x2="368.044" y2="140.487" gradientUnits="userSpaceOnUse">
<stop stop-color="white" stop-opacity="0.01"/>
<stop offset="0.222178" stop-color="#BABABA"/>
<stop offset="0.54678" stop-color="white" stop-opacity="0.01"/>
<stop offset="1" stop-color="white" stop-opacity="0.01"/>
</linearGradient>
<linearGradient id="paint3_linear" x1="63.0148" y1="55" x2="63.0148" y2="67.3239" gradientUnits="userSpaceOnUse">
<stop stop-color="#454545"/>
<stop offset="0.226279" stop-color="#999999"/>
<stop offset="1" stop-color="white"/>
</linearGradient>
<linearGradient id="paint4_linear" x1="313.103" y1="140.747" x2="303.642" y2="140.747" gradientUnits="userSpaceOnUse">
<stop stop-color="white" stop-opacity="0.01"/>
<stop offset="0.222178" stop-color="#BABABA"/>
<stop offset="0.54678" stop-color="white" stop-opacity="0.01"/>
<stop offset="1" stop-color="white" stop-opacity="0.01"/>
</linearGradient>
<linearGradient id="paint5_linear" x1="55.568" y1="140.487" x2="65.044" y2="140.487" gradientUnits="userSpaceOnUse">
<stop stop-color="white" stop-opacity="0.01"/>
<stop offset="0.222178" stop-color="#BABABA"/>
<stop offset="0.54678" stop-color="white" stop-opacity="0.01"/>
<stop offset="1" stop-color="white" stop-opacity="0.01"/>
</linearGradient>
<clipPath id="clip0">
<rect width="204" height="56" fill="white" transform="translate(83 148)"/>
</clipPath>
</defs>
</svg>
