<svg width="135" height="38" viewBox="0 0 135 38" fill="none" xmlns="http://www.w3.org/2000/svg">
<path fill-rule="evenodd" clip-rule="evenodd" d="M134.657 8.59092V5.29492H133.441V8.59092H134.657ZM50.544 33.9349V26.0949H50.608C51.1627 26.9056 51.872 27.5189 52.736 27.9349C53.6 28.3509 54.544 28.5589 55.568 28.5589C56.784 28.5589 57.8453 28.3243 58.752 27.8549C59.6587 27.3856 60.416 26.7563 61.024 25.9669C61.632 25.1776 62.0853 24.2709 62.384 23.2469C62.6827 22.2229 62.832 21.1563 62.832 20.0469C62.832 18.8736 62.6827 17.7483 62.384 16.6709C62.0853 15.5936 61.6267 14.6496 61.008 13.8389C60.3893 13.0283 59.6107 12.3776 58.672 11.8869C57.7333 11.3963 56.6133 11.1509 55.312 11.1509C54.288 11.1509 53.3493 11.3536 52.496 11.7589C51.6427 12.1643 50.9387 12.8149 50.384 13.7109H50.32V11.5989H46V33.9349H50.544ZM54.352 25.1669C53.6267 25.1669 53.008 25.0176 52.496 24.7189C51.984 24.4203 51.5733 24.0309 51.264 23.5509C50.9547 23.0709 50.7307 22.5109 50.592 21.8709C50.4533 21.2309 50.384 20.5803 50.384 19.9189C50.384 19.2363 50.448 18.5749 50.576 17.9349C50.704 17.2949 50.9227 16.7296 51.232 16.2389C51.5413 15.7483 51.9467 15.3483 52.448 15.0389C52.9493 14.7296 53.5733 14.5749 54.32 14.5749C55.0453 14.5749 55.6587 14.7296 56.16 15.0389C56.6613 15.3483 57.072 15.7536 57.392 16.2549C57.712 16.7563 57.9413 17.3269 58.08 17.9669C58.2187 18.6069 58.288 19.2576 58.288 19.9189C58.288 20.5803 58.224 21.2309 58.096 21.8709C57.968 22.5109 57.7493 23.0709 57.44 23.5509C57.1307 24.0309 56.7253 24.4203 56.224 24.7189C55.7227 25.0176 55.0987 25.1669 54.352 25.1669ZM73.2418 28.1109C72.2605 28.4096 71.2578 28.5589 70.2338 28.5589C69.4445 28.5589 68.7085 28.4629 68.0258 28.2709C67.3432 28.0789 66.7458 27.7803 66.2338 27.3749C65.7218 26.9696 65.3218 26.4576 65.0338 25.8389C64.7458 25.2203 64.6018 24.4843 64.6018 23.6309C64.6018 22.6923 64.7672 21.9189 65.0978 21.3109C65.4285 20.7029 65.8552 20.2176 66.3778 19.8549C66.9005 19.4923 67.4978 19.2203 68.1698 19.0389C68.8418 18.8576 69.5192 18.7136 70.2018 18.6069C70.8845 18.5003 71.5565 18.4149 72.2178 18.3509C72.8792 18.2869 73.4658 18.1909 73.9778 18.0629C74.4898 17.9349 74.8952 17.7483 75.1938 17.5029C75.4925 17.2576 75.6312 16.9003 75.6098 16.4309C75.6098 15.9403 75.5298 15.5509 75.3698 15.2629C75.2098 14.9749 74.9965 14.7509 74.7298 14.5909C74.4632 14.4309 74.1538 14.3243 73.8018 14.2709C73.4498 14.2176 73.0712 14.1909 72.6658 14.1909C71.7698 14.1909 71.0658 14.3829 70.5538 14.7669C70.0418 15.1509 69.7432 15.7909 69.6578 16.6869H65.1138C65.1778 15.6203 65.4445 14.7349 65.9138 14.0309C66.3832 13.3269 66.9805 12.7616 67.7058 12.3349C68.4312 11.9083 69.2472 11.6043 70.1538 11.4229C71.0605 11.2416 71.9725 11.1509 72.8898 11.1509C73.7218 11.1509 74.5645 11.2096 75.4178 11.3269C76.2712 11.4443 77.0498 11.6736 77.7538 12.0149C78.4578 12.3563 79.0338 12.8309 79.4818 13.4389C79.9298 14.0469 80.1538 14.8523 80.1538 15.8549V24.4629C80.1538 25.2096 80.1965 25.9243 80.2818 26.6069C80.3672 27.2896 80.5165 27.8016 80.7298 28.1429H76.1218C76.0365 27.8869 75.9672 27.6256 75.9138 27.3589C75.8605 27.0923 75.8232 26.8203 75.8018 26.5429C75.0765 27.2896 74.2232 27.8123 73.2418 28.1109ZM71.9298 25.5509C71.5672 25.5509 71.2152 25.5189 70.8738 25.4549C70.5325 25.3909 70.2338 25.2789 69.9778 25.1189C69.7218 24.9589 69.5192 24.7403 69.3698 24.4629C69.2205 24.1856 69.1458 23.8443 69.1458 23.4389C69.1458 23.0123 69.2205 22.6603 69.3698 22.3829C69.5192 22.1056 69.7165 21.8763 69.9618 21.6949C70.2072 21.5136 70.4952 21.3696 70.8258 21.2629C71.1565 21.1563 71.4925 21.0709 71.8338 21.0069C72.1965 20.9429 72.5592 20.8896 72.9218 20.8469C73.2845 20.8043 73.6312 20.7509 73.9618 20.6869C74.2925 20.6229 74.6018 20.5429 74.8898 20.4469C75.1778 20.3509 75.4178 20.2176 75.6098 20.0469V21.7429C75.6098 21.9989 75.5832 22.3403 75.5298 22.7669C75.4765 23.1936 75.3325 23.6149 75.0978 24.0309C74.8632 24.4469 74.5005 24.8043 74.0098 25.1029C73.5192 25.4016 72.8258 25.5509 71.9298 25.5509ZM89.5397 33.0709C88.665 33.6469 87.449 33.9349 85.8917 33.9349C85.4224 33.9349 84.9584 33.9189 84.4997 33.8869C84.041 33.8549 83.577 33.8176 83.1077 33.7749V30.0309C83.5344 30.0736 83.9717 30.1163 84.4197 30.1589C84.8677 30.2016 85.3157 30.2123 85.7637 30.1909C86.361 30.1269 86.8037 29.8923 87.0917 29.4869C87.3797 29.0816 87.5237 28.6336 87.5237 28.1429C87.5237 27.7803 87.4597 27.4389 87.3317 27.1189L81.5397 11.5989H86.3717L90.1157 22.9269H90.1797L93.7957 11.5989H98.4997L91.5877 30.1909C91.097 31.5349 90.4144 32.4949 89.5397 33.0709ZM104.59 28.5269C105.379 28.5269 106.104 28.4309 106.766 28.2389C107.427 28.0469 108.019 27.7803 108.542 27.4389C109.064 27.0976 109.507 26.7083 109.87 26.2709C110.232 25.8336 110.51 25.3696 110.702 24.8789H110.766V25.7429C110.766 26.0843 110.792 26.3989 110.846 26.6869C110.899 26.9749 111 27.2256 111.15 27.4389C111.299 27.6523 111.518 27.8229 111.806 27.9509C112.094 28.0789 112.483 28.1429 112.974 28.1429C113.315 28.1429 113.646 28.1003 113.966 28.0149V26.9909C113.582 27.0549 113.283 27.0869 113.07 27.0869C112.792 27.0869 112.579 27.0283 112.43 26.9109C112.28 26.7936 112.174 26.6389 112.11 26.4469C112.046 26.2549 112.008 26.0416 111.998 25.8069C111.987 25.5723 111.982 25.3376 111.982 25.1029V15.5349C111.982 14.2763 111.528 13.2576 110.622 12.4789C109.715 11.7003 108.27 11.3109 106.286 11.3109C104.302 11.3109 102.771 11.7643 101.694 12.6709C100.616 13.5776 100.035 14.9376 99.9495 16.7509H101.166C101.251 15.2789 101.747 14.1803 102.654 13.4549C103.56 12.7296 104.75 12.3669 106.222 12.3669C107.054 12.3669 107.758 12.4523 108.334 12.6229C108.91 12.7936 109.379 13.0283 109.742 13.3269C110.104 13.6256 110.371 13.9669 110.542 14.3509C110.712 14.7349 110.798 15.1509 110.798 15.5989C110.798 16.1749 110.766 16.6549 110.702 17.0389C110.638 17.4229 110.478 17.7376 110.222 17.9829C109.966 18.2283 109.587 18.4203 109.086 18.5589C108.584 18.6976 107.896 18.7989 107.022 18.8629L105.134 19.0229C104.472 19.0869 103.784 19.1936 103.07 19.3429C102.355 19.4923 101.704 19.7429 101.118 20.0949C100.531 20.4469 100.046 20.9269 99.6615 21.5349C99.2775 22.1429 99.0855 22.9269 99.0855 23.8869C99.0855 25.4656 99.5655 26.6336 100.526 27.3909C101.486 28.1483 102.84 28.5269 104.59 28.5269ZM101.454 26.5909C102.222 27.1776 103.278 27.4709 104.622 27.4709C106.008 27.4709 107.107 27.2203 107.918 26.7189C108.728 26.2176 109.347 25.6416 109.774 24.9909C110.2 24.3403 110.472 23.7109 110.59 23.1029C110.707 22.4949 110.766 22.0843 110.766 21.8709V18.7989C110.467 19.1616 110.014 19.4069 109.406 19.5349C108.798 19.6629 108.12 19.7589 107.374 19.8229L105.326 20.0149C104.728 20.0789 104.131 20.1696 103.534 20.2869C102.936 20.4043 102.398 20.6016 101.918 20.8789C101.438 21.1563 101.048 21.5349 100.75 22.0149C100.451 22.4949 100.302 23.1189 100.302 23.8869C100.302 25.1029 100.686 26.0043 101.454 26.5909ZM117.111 34.0309V24.7189H117.175C117.666 26.0629 118.445 27.0336 119.511 27.6309C120.578 28.2283 121.794 28.5269 123.159 28.5269C124.418 28.5269 125.511 28.3136 126.439 27.8869C127.367 27.4603 128.135 26.8683 128.743 26.1109C129.351 25.3536 129.805 24.4523 130.103 23.4069C130.402 22.3616 130.551 21.2096 130.551 19.9509C130.551 18.7989 130.402 17.7003 130.103 16.6549C129.805 15.6096 129.351 14.6923 128.743 13.9029C128.135 13.1136 127.367 12.4843 126.439 12.0149C125.511 11.5456 124.418 11.3109 123.159 11.3109C122.263 11.3109 121.469 11.4496 120.775 11.7269C120.082 12.0043 119.49 12.3509 118.999 12.7669C118.509 13.1829 118.114 13.6363 117.815 14.1269C117.517 14.6176 117.303 15.0656 117.175 15.4709H117.111V11.6949H115.895V34.0309H117.111ZM120.263 26.8469C121.042 27.2629 122.007 27.4709 123.159 27.4709C124.226 27.4709 125.149 27.2683 125.927 26.8629C126.706 26.4576 127.346 25.9136 127.847 25.2309C128.349 24.5483 128.722 23.7536 128.967 22.8469C129.213 21.9403 129.335 20.9749 129.335 19.9509C129.335 19.0123 129.218 18.0896 128.983 17.1829C128.749 16.2763 128.386 15.4656 127.895 14.7509C127.405 14.0363 126.77 13.4603 125.991 13.0229C125.213 12.5856 124.269 12.3669 123.159 12.3669C122.071 12.3669 121.143 12.5803 120.375 13.0069C119.607 13.4336 118.983 13.9989 118.503 14.7029C118.023 15.4069 117.677 16.2123 117.463 17.1189C117.25 18.0256 117.143 18.9696 117.143 19.9509C117.143 20.9323 117.239 21.8763 117.431 22.7829C117.623 23.6896 117.949 24.4896 118.407 25.1829C118.866 25.8763 119.485 26.4309 120.263 26.8469ZM134.657 11.6949V28.1429H133.441V11.6949H134.657Z" fill="#FBFCFE"/>
<circle cx="19.1421" cy="5.00045" r="3" transform="rotate(45 19.1421 5.00045)" fill="#FBFCFE"/>
<circle cx="26.2131" cy="12.0717" r="3" transform="rotate(45 26.2131 12.0717)" fill="#FBFCFE"/>
<circle cx="33.2842" cy="19.143" r="3" transform="rotate(45 33.2842 19.143)" fill="#FBFCFE"/>
<circle cx="12.071" cy="12.0717" r="3" transform="rotate(45 12.071 12.0717)" fill="#FBFCFE"/>
<circle opacity="0.5" cx="19.1421" cy="19.143" r="3" transform="rotate(45 19.1421 19.143)" fill="#FBFCFE"/>
<circle opacity="0.5" cx="26.2131" cy="26.2133" r="3" transform="rotate(45 26.2131 26.2133)" fill="#FBFCFE"/>
<circle cx="5" cy="19.143" r="3" transform="rotate(45 5 19.143)" fill="#FBFCFE"/>
<circle opacity="0.5" cx="12.071" cy="26.2133" r="3" transform="rotate(45 12.071 26.2133)" fill="#FBFCFE"/>
<circle opacity="0.25" cx="19.1421" cy="33.2846" r="3" transform="rotate(45 19.1421 33.2846)" fill="#FBFCFE"/>
</svg>
