<?xml version="1.0" encoding="utf-8"?>
<svg width="301px" height="136px" viewBox="0 0 301 136" version="1.1" xmlns:xlink="http://www.w3.org/1999/xlink" xmlns="http://www.w3.org/2000/svg">
  <defs>
    <path d="M390 780C605.391 780 780 605.391 780 390C780 174.609 605.391 0 390 0C174.609 0 0 174.609 0 390C0 605.391 174.609 780 390 780Z" id="path_1" />
    <clipPath id="mask_1">
      <use xlink:href="#path_1" />
    </clipPath>
  </defs>
  <g id="Bitmap" transform="translate(0 -644)" opacity="0.15">
    <path d="M390 780C605.391 780 780 605.391 780 390C780 174.609 605.391 0 390 0C174.609 0 0 174.609 0 390C0 605.391 174.609 780 390 780Z" id="Mask" fill="#36536B" fill-rule="evenodd" stroke="none" />
    <path d="M390 780C605.391 780 780 605.391 780 390C780 174.609 605.391 0 390 0C174.609 0 0 174.609 0 390C0 605.391 174.609 780 390 780Z" id="Mask-Copy" fill="#36536B" fill-rule="evenodd" stroke="none" />
  </g>
</svg>